<svg width="17" height="17" viewBox="0 0 17 17" fill="none" xmlns="http://www.w3.org/2000/svg">
<path fill-rule="evenodd" clip-rule="evenodd" d="M3.62525 7.4375L8.14541 2.91734C8.92841 2.13434 8.92616 0.864158 8.1404 0.0839291L8.05588 0L0.262985 7.79289C-0.127539 8.18342 -0.12754 8.81658 0.262985 9.20711L8.05588 17L8.14106 16.9148C8.92161 16.1343 8.92218 14.8689 8.14232 14.0877L3.62525 9.5625V7.4375Z" transform="translate(0.444336)" fill="white"/>
<path fill-rule="evenodd" clip-rule="evenodd" d="M0 1C0 0.447715 0.447715 0 1 0H13.875C14.4273 0 14.875 0.447715 14.875 1V1.125C14.875 1.67728 14.4273 2.125 13.875 2.125H1C0.447715 2.125 0 1.67728 0 1.125V1Z" transform="translate(2.125 7.4375)" fill="white"/>
</svg>
