<svg width="20" height="20" viewBox="0 0 20 20" fill="none" xmlns="http://www.w3.org/2000/svg">
<path d="M0 0C0 0 1.31886 2.64045 4.38892 2.63548C7.45897 2.63052 8.63174 0.0199879 8.63174 0.0199879" transform="translate(5.64453 12.2523)" stroke="#B8B7B7" stroke-linecap="round"/>
<path fill-rule="evenodd" clip-rule="evenodd" d="M0.909091 1.81818C1.41117 1.81818 1.81818 1.41117 1.81818 0.909091C1.81818 0.407014 1.41117 0 0.909091 0C0.407014 0 0 0.407014 0 0.909091C0 1.41117 0.407014 1.81818 0.909091 1.81818Z" transform="translate(11.7271 6.79288)" fill="#B8B7B7"/>
<path d="M0.909091 1.81818C1.41117 1.81818 1.81818 1.41117 1.81818 0.909091C1.81818 0.407014 1.41117 0 0.909091 0C0.407014 0 0 0.407014 0 0.909091C0 1.41117 0.407014 1.81818 0.909091 1.81818Z" transform="translate(11.7271 6.79288)" stroke="#B8B7B7" stroke-width="0.5"/>
<path fill-rule="evenodd" clip-rule="evenodd" d="M0.909091 1.81818C1.41117 1.81818 1.81818 1.41117 1.81818 0.909091C1.81818 0.407014 1.41117 0 0.909091 0C0.407014 0 0 0.407014 0 0.909091C0 1.41117 0.407014 1.81818 0.909091 1.81818Z" transform="translate(6.27246 6.79288)" fill="#B8B7B7"/>
<path d="M0.909091 1.81818C1.41117 1.81818 1.81818 1.41117 1.81818 0.909091C1.81818 0.407014 1.41117 0 0.909091 0C0.407014 0 0 0.407014 0 0.909091C0 1.41117 0.407014 1.81818 0.909091 1.81818Z" transform="translate(6.27246 6.79288)" stroke="#B8B7B7" stroke-width="0.5"/>
<path d="M9 18C13.9706 18 18 13.9706 18 9C18 4.02944 13.9706 0 9 0C4.02944 0 0 4.02944 0 9C0 13.9706 4.02944 18 9 18Z" transform="translate(1 1)" stroke="#B8B7B7"/>
</svg>
