<svg width="39" height="39" viewBox="0 0 39 39" fill="none" xmlns="http://www.w3.org/2000/svg">
<path d="M19.4275 39C30.157 39 38.855 30.2696 38.855 19.5C38.855 8.73045 30.157 0 19.4275 0C8.69799 0 0 8.73045 0 19.5C0 30.2696 8.69799 39 19.4275 39Z" fill="#3B5998"/>
<path d="M11.2169 12.6985H7.75024V25.4461H2.49799V12.6985H5.32545e-07V8.21853H2.49799V5.31947C2.49799 3.24632 3.4791 -6.06416e-08 7.79699 -6.06416e-08L11.6875 0.0163373V4.36493H8.86469C8.40166 4.36493 7.75058 4.59714 7.75058 5.58609V8.2227H11.6757L11.2169 12.6985Z" transform="translate(13.095 7.56506)" fill="#BEC7D1" style="mix-blend-mode:darken"/>
<path d="M11.2169 12.6985H7.75024V25.4461H2.49799V12.6985H5.32545e-07V8.21853H2.49799V5.31947C2.49799 3.24632 3.4791 -6.06416e-08 7.79699 -6.06416e-08L11.6875 0.0163373V4.36493H8.86469C8.40166 4.36493 7.75058 4.59714 7.75058 5.58609V8.2227H11.6757L11.2169 12.6985Z" transform="translate(13.095 7.56506)" fill="white"/>
</svg>
