<svg width="16" height="21" viewBox="0 0 16 21" fill="none" xmlns="http://www.w3.org/2000/svg">
<path d="M9.71667 3.66667C10.725 3.66667 11.55 2.84167 11.55 1.83333C11.55 0.825 10.725 1.7484e-08 9.71667 1.7484e-08C8.70833 1.7484e-08 7.88333 0.825 7.88333 1.83333C7.88333 2.84167 8.70833 3.66667 9.71667 3.66667ZM6.41667 16.4083L7.33333 12.375L9.25833 14.2083V19.7083H11.0917V12.8333L9.16667 11L9.71667 8.25C10.9083 9.625 12.7417 10.5417 14.7583 10.5417V8.70833C13.0167 8.70833 11.55 7.79167 10.8167 6.50833L9.9 5.04167C9.53333 4.49167 8.98333 4.125 8.34167 4.125C8.06667 4.125 7.88333 4.21667 7.60833 4.21667L2.84167 6.23333V10.5417H4.675V7.425L6.325 6.78333L4.85833 14.2083L0.366667 13.2917L9.61622e-08 15.125L6.41667 16.4083Z" transform="translate(0.648438 0.356445)" fill="#A9ABC1"/>
</svg>
