<svg width="48" height="48" viewBox="0 0 48 48" fill="none" xmlns="http://www.w3.org/2000/svg">
<path d="M23.829 47.658C36.9894 47.658 47.658 36.9894 47.658 23.829C47.658 10.6686 36.9894 0 23.829 0C10.6686 0 0 10.6686 0 23.829C0 36.9894 10.6686 47.658 23.829 47.658Z" fill="#19D33E"/>
<path d="M-1.30534e-09 26.9231L1.8835 20.2335C0.6723 18.1759 0.0345937 15.8347 0.0345937 13.4297C0.0345937 6.02454 6.05914 -1.99676e-10 13.4643 -1.99676e-10C20.8695 -1.99676e-10 26.8939 6.02454 26.8939 13.4297C26.8939 20.8349 20.8695 26.8594 13.4643 26.8594C11.1569 26.8594 8.89751 26.2688 6.89875 25.1473L-1.30534e-09 26.9231ZM7.25144 22.704L7.66252 22.9551C9.4052 24.0189 11.4115 24.5813 13.4643 24.5813C19.6133 24.5813 24.6158 19.5787 24.6158 13.4297C24.6158 7.28072 19.6133 2.27813 13.4643 2.27813C7.31531 2.27813 2.31272 7.28072 2.31272 13.4297C2.31272 15.5723 2.92165 17.6529 4.07354 19.4466L4.35038 19.8777L3.26573 23.73L7.25144 22.704Z" transform="translate(11.0415 10.0271)" fill="white"/>
<path d="M3.01734 0.0490819L2.14591 0.00157841C1.8722 -0.013356 1.60372 0.0781067 1.39683 0.257825C0.974364 0.624688 0.298858 1.33394 0.0913799 2.25819C-0.218023 3.63629 0.26013 5.32378 1.49766 7.01128C2.73519 8.69878 5.04141 11.3988 9.1195 12.5519C10.4336 12.9235 11.4674 12.673 12.265 12.1628C12.8967 11.7587 13.3322 11.1101 13.4891 10.3769L13.6283 9.72706C13.6725 9.52051 13.5676 9.31093 13.3757 9.2225L10.4306 7.86499C10.2394 7.7769 10.0127 7.83259 9.88411 7.99923L8.72792 9.49807C8.64059 9.6113 8.49108 9.65619 8.35608 9.60877C7.56431 9.3305 4.91206 8.2197 3.45676 5.41643C3.39365 5.29484 3.40934 5.14727 3.49886 5.04358L4.60384 3.76529C4.71673 3.63477 4.74525 3.45125 4.67741 3.29263L3.40791 0.322541C3.34032 0.164422 3.18887 0.0584475 3.01734 0.0490819Z" transform="translate(17.7158 17.1572)" fill="white"/>
</svg>
