<svg width="41" height="39" viewBox="0 0 41 39" fill="none" xmlns="http://www.w3.org/2000/svg">
<path d="M19.5994 39C30.4239 39 39.1988 30.2696 39.1988 19.5C39.1988 8.73045 30.4239 0 19.5994 0C8.77496 0 0 8.73045 0 19.5C0 30.2696 8.77496 39 19.5994 39Z" transform="translate(0.994629)" fill="#DC4E41"/>
<path d="M0.00496267 8.05137C-0.0645643 11.4065 2.25813 14.6083 5.45322 15.6525C8.46279 16.6585 12.1631 15.9059 14.1658 13.3416C15.6279 11.5448 15.9602 9.14947 15.8019 6.91156C13.2245 6.88862 10.6471 6.89627 8.07358 6.90009C8.06939 7.81361 8.07358 8.72365 8.07743 9.63717C9.62065 9.67957 11.1642 9.66011 12.7074 9.69105C12.3179 11.0193 11.4304 12.2554 10.0836 12.7351C7.48313 13.8752 4.16505 12.3857 3.3468 9.67158C2.3591 7.07251 3.97604 3.93603 6.64566 3.17998C8.30103 2.60051 10.0064 3.25298 11.4228 4.10914C12.1404 3.44103 12.8119 2.72704 13.4715 2.00541C11.8623 0.665723 9.79429 -0.155678 7.6683 0.0247315C3.49703 0.074092 -0.153307 3.90544 0.00496267 8.05137ZM20.818 4.59614C20.8103 5.36018 20.8023 6.12805 20.7984 6.89175C20.0266 6.8994 19.259 6.90322 18.4911 6.90704C18.4911 7.67109 18.4911 8.43096 18.4911 9.19501C19.259 9.19883 20.0308 9.20265 20.7984 9.21065C20.8061 9.97469 20.8061 10.7384 20.8138 11.5063C21.5779 11.5063 22.3458 11.5024 23.1134 11.5063C23.1176 10.7384 23.1211 9.97469 23.1291 9.20683C23.8967 9.203 24.6685 9.19918 25.4365 9.19535C25.4365 8.43131 25.4365 7.67144 25.4365 6.90739C24.6689 6.90357 23.8971 6.89974 23.1291 6.8921C23.1249 6.12805 23.1176 5.36018 23.1134 4.59649C22.3458 4.59614 21.5817 4.59614 20.818 4.59614Z" transform="translate(7.81268 12.3214)" fill="#BEC7D1" style="mix-blend-mode:darken"/>
<path d="M0.00496267 8.05137C-0.0645643 11.4065 2.25813 14.6083 5.45322 15.6525C8.46279 16.6585 12.1631 15.9059 14.1658 13.3416C15.6279 11.5448 15.9602 9.14947 15.8019 6.91156C13.2245 6.88862 10.6471 6.89627 8.07358 6.90009C8.06939 7.81361 8.07358 8.72365 8.07743 9.63717C9.62065 9.67957 11.1642 9.66011 12.7074 9.69105C12.3179 11.0193 11.4304 12.2554 10.0836 12.7351C7.48313 13.8752 4.16505 12.3857 3.3468 9.67158C2.3591 7.07251 3.97604 3.93603 6.64566 3.17998C8.30103 2.60051 10.0064 3.25298 11.4228 4.10914C12.1404 3.44103 12.8119 2.72704 13.4715 2.00541C11.8623 0.665723 9.79429 -0.155678 7.6683 0.0247315C3.49703 0.074092 -0.153307 3.90544 0.00496267 8.05137ZM20.818 4.59614C20.8103 5.36018 20.8023 6.12805 20.7984 6.89175C20.0266 6.8994 19.259 6.90322 18.4911 6.90704C18.4911 7.67109 18.4911 8.43096 18.4911 9.19501C19.259 9.19883 20.0308 9.20265 20.7984 9.21065C20.8061 9.97469 20.8061 10.7384 20.8138 11.5063C21.5779 11.5063 22.3458 11.5024 23.1134 11.5063C23.1176 10.7384 23.1211 9.97469 23.1291 9.20683C23.8967 9.203 24.6685 9.19918 25.4365 9.19535C25.4365 8.43131 25.4365 7.67144 25.4365 6.90739C24.6689 6.90357 23.8971 6.89974 23.1291 6.8921C23.1249 6.12805 23.1176 5.36018 23.1134 4.59649C22.3458 4.59614 21.5817 4.59614 20.818 4.59614Z" transform="translate(7.81268 12.3214)" fill="white"/>
<path d="M0.00496313 8.05172C-0.153307 3.90579 3.49668 0.0744396 7.66795 0.0247315C9.79394 -0.155678 11.8623 0.665723 13.4712 2.00541C12.8112 2.72739 12.1397 3.44103 11.4224 4.10914C10.006 3.25298 8.30068 2.60051 6.64531 3.17998C3.97534 3.93638 2.3584 7.07285 3.34645 9.67158C4.1647 12.3857 7.48278 13.8752 10.0832 12.7351C11.4297 12.2554 12.3175 11.0193 12.7071 9.69104C11.1639 9.66045 9.6203 9.67957 8.07708 9.63717C8.07323 8.72365 8.06939 7.81361 8.07323 6.90009C10.6468 6.89627 13.2242 6.88862 15.8016 6.91156C15.9598 9.14982 15.6279 11.5452 14.1654 13.3416C12.1627 15.9059 8.4628 16.6585 5.45287 15.6525C2.25847 14.6087 -0.0645638 11.4068 0.00496313 8.05172ZM20.818 4.59649C21.5821 4.59649 22.3458 4.59649 23.1134 4.59649C23.1176 5.36053 23.1249 6.1284 23.1291 6.8921C23.8967 6.89974 24.6685 6.90357 25.4365 6.90739C25.4365 7.67144 25.4365 8.43131 25.4365 9.19535C24.6689 9.19918 23.8971 9.203 23.1291 9.20683C23.1215 9.97469 23.1176 10.7384 23.1134 11.5063C22.3458 11.5024 21.5775 11.5063 20.8138 11.5063C20.8065 10.7384 20.8065 9.97469 20.7984 9.21065C20.0308 9.20265 19.259 9.19918 18.4911 9.19501C18.4911 8.43096 18.4911 7.67109 18.4911 6.90704C19.259 6.90322 20.027 6.8994 20.7984 6.89175C20.8023 6.1284 20.8099 5.36053 20.818 4.59649Z" transform="translate(7.81268 12.321)" fill="#BEC7D1" style="mix-blend-mode:darken"/>
<path d="M0.00496313 8.05172C-0.153307 3.90579 3.49668 0.0744396 7.66795 0.0247315C9.79394 -0.155678 11.8623 0.665723 13.4712 2.00541C12.8112 2.72739 12.1397 3.44103 11.4224 4.10914C10.006 3.25298 8.30068 2.60051 6.64531 3.17998C3.97534 3.93638 2.3584 7.07285 3.34645 9.67158C4.1647 12.3857 7.48278 13.8752 10.0832 12.7351C11.4297 12.2554 12.3175 11.0193 12.7071 9.69104C11.1639 9.66045 9.6203 9.67957 8.07708 9.63717C8.07323 8.72365 8.06939 7.81361 8.07323 6.90009C10.6468 6.89627 13.2242 6.88862 15.8016 6.91156C15.9598 9.14982 15.6279 11.5452 14.1654 13.3416C12.1627 15.9059 8.4628 16.6585 5.45287 15.6525C2.25847 14.6087 -0.0645638 11.4068 0.00496313 8.05172ZM20.818 4.59649C21.5821 4.59649 22.3458 4.59649 23.1134 4.59649C23.1176 5.36053 23.1249 6.1284 23.1291 6.8921C23.8967 6.89974 24.6685 6.90357 25.4365 6.90739C25.4365 7.67144 25.4365 8.43131 25.4365 9.19535C24.6689 9.19918 23.8971 9.203 23.1291 9.20683C23.1215 9.97469 23.1176 10.7384 23.1134 11.5063C22.3458 11.5024 21.5775 11.5063 20.8138 11.5063C20.8065 10.7384 20.8065 9.97469 20.7984 9.21065C20.0308 9.20265 19.259 9.19918 18.4911 9.19501C18.4911 8.43096 18.4911 7.67109 18.4911 6.90704C19.259 6.90322 20.027 6.8994 20.7984 6.89175C20.8023 6.1284 20.8099 5.36053 20.818 4.59649Z" transform="translate(7.81268 12.321)" fill="white"/>
</svg>
