<svg width="27" height="18" viewBox="0 0 27 18" fill="none" xmlns="http://www.w3.org/2000/svg">
<path d="M0.00506456 8.25817C-0.15644 4.00593 3.56815 0.0763483 7.82467 0.0253657C9.99411 -0.159669 12.1047 0.682792 13.7465 2.05683C13.073 2.79733 12.3878 3.52926 11.6559 4.2145C10.2105 3.33639 8.47034 2.66719 6.78113 3.26152C4.05659 4.03731 2.4066 7.25421 3.41485 9.91957C4.24982 12.7033 7.63572 14.231 10.2893 13.0616C11.6634 12.5696 12.5693 11.3018 12.9668 9.93953C11.392 9.90816 9.81692 9.92777 8.24216 9.88427C8.23824 8.94733 8.23432 8.01396 8.23824 7.07702C10.8644 7.0731 13.4945 7.06525 16.1245 7.08878C16.286 9.38443 15.9473 11.8412 14.4549 13.6837C12.4113 16.3138 8.63576 17.0857 5.56432 16.0539C2.30463 14.9833 -0.0658834 11.6993 0.00506456 8.25817ZM21.2435 4.71434C22.0232 4.71434 22.8025 4.71434 23.5858 4.71434C23.5901 5.49798 23.5976 6.28554 23.6019 7.06882C24.3851 7.07666 25.1727 7.08058 25.9563 7.0845C25.9563 7.86814 25.9563 8.6475 25.9563 9.43113C25.1731 9.43505 24.3855 9.43898 23.6019 9.4429C23.594 10.2305 23.5901 11.0137 23.5858 11.8013C22.8025 11.7974 22.0185 11.8013 21.2392 11.8013C21.2317 11.0137 21.2317 10.2305 21.2235 9.44682C20.4402 9.43862 19.6527 9.43505 18.869 9.43078C18.869 8.64714 18.869 7.86778 18.869 7.08415C19.6527 7.08023 20.4363 7.0763 21.2235 7.06846C21.2274 6.28554 21.2353 5.49798 21.2435 4.71434Z" transform="translate(0.95752 0.637009)" fill="white"/>
</svg>
