<svg width="48" height="48" viewBox="0 0 48 48" fill="none" xmlns="http://www.w3.org/2000/svg">
<path d="M23.829 47.658C36.9894 47.658 47.658 36.9894 47.658 23.829C47.658 10.6686 36.9894 0 23.829 0C10.6686 0 0 10.6686 0 23.829C0 36.9894 10.6686 47.658 23.829 47.658Z" fill="url(#paint0_linear)"/>
<path d="M18.4582 0H7.83199C3.51341 0 0 3.51341 0 7.83199V18.4582C0 22.7768 3.51341 26.2902 7.83199 26.2902H18.4582C22.7768 26.2902 26.2902 22.7768 26.2902 18.4582V7.83199C26.2901 3.51341 22.7767 0 18.4582 0ZM23.6454 18.4582C23.6454 21.323 21.323 23.6454 18.4582 23.6454H7.83199C4.9672 23.6454 2.64479 21.323 2.64479 18.4582V7.83199C2.64479 4.96716 4.9672 2.64479 7.83199 2.64479H18.4582C21.323 2.64479 23.6454 4.96716 23.6454 7.83199V18.4582Z" transform="translate(11.0439 10.62)" fill="white"/>
<path d="M6.79958 1.25345e-07C3.05029 1.25345e-07 1.25345e-07 3.05029 1.25345e-07 6.79953C1.25345e-07 10.5488 3.05029 13.5991 6.79958 13.5991C10.5489 13.5991 13.5992 10.5488 13.5992 6.79953C13.5992 3.05024 10.5489 1.25345e-07 6.79958 1.25345e-07ZM6.79958 10.9544C4.50494 10.9544 2.64479 9.09422 2.64479 6.79958C2.64479 4.50494 4.50498 2.64479 6.79958 2.64479C9.09422 2.64479 10.9544 4.50494 10.9544 6.79958C10.9544 9.09418 9.09418 10.9544 6.79958 10.9544Z" transform="translate(17.3896 16.9655)" fill="white"/>
<path d="M1.629 3.258C2.52867 3.258 3.258 2.52867 3.258 1.629C3.258 0.729328 2.52867 0 1.629 0C0.729328 0 0 0.729328 0 1.629C0 2.52867 0.729328 3.258 1.629 3.258Z" transform="translate(29.373 15.388)" fill="white"/>
<defs>
<linearGradient id="paint0_linear" x2="1" gradientUnits="userSpaceOnUse" gradientTransform="translate(16.2056 63.2262) scale(56.9277) rotate(-123.158)">
<stop stop-color="#E09B3D"/>
<stop offset="0.3" stop-color="#C74C4D"/>
<stop offset="0.6" stop-color="#C21975"/>
<stop offset="1" stop-color="#7024C4"/>
</linearGradient>
</defs>
</svg>
