<svg width="40" height="39" viewBox="0 0 40 39" fill="none" xmlns="http://www.w3.org/2000/svg">
<path d="M19.5994 39C30.4239 39 39.1988 30.2696 39.1988 19.5C39.1988 8.73045 30.4239 0 19.5994 0C8.77496 0 0 8.73045 0 19.5C0 30.2696 8.77496 39 19.5994 39Z" transform="translate(0.80127)" fill="#007AB9"/>
<path d="M21.8531 12.7371V20.7766H17.1683V13.2759C17.1683 11.3925 16.4919 10.1064 14.7956 10.1064C13.5012 10.1064 12.7322 10.9723 12.3926 11.8107C12.2692 12.1104 12.2374 12.5264 12.2374 12.9467V20.7762H7.55224C7.55224 20.7762 7.61512 8.07253 7.55224 6.75752H12.2378V8.74411C12.2284 8.75975 12.2151 8.77504 12.2067 8.78999H12.2378V8.74411C12.8604 7.79096 13.9707 6.42833 16.4601 6.42833C19.5423 6.42833 21.8531 8.43195 21.8531 12.7371ZM2.65111 -3.72565e-07C1.04849 -3.72565e-07 -3.84544e-08 1.04665 -3.84544e-08 2.42179C-3.84544e-08 3.76773 1.0181 4.84463 2.58962 4.84463H2.62001C4.25407 4.84463 5.27007 3.76773 5.27007 2.42179C5.23898 1.04665 4.25407 -3.72565e-07 2.65111 -3.72565e-07ZM0.278457 20.7766H4.96192V6.75752H0.278457V20.7766Z" transform="translate(10.2583 8.33191)" fill="#BEC7D1" style="mix-blend-mode:darken"/>
<path d="M21.8531 12.7371V20.7766H17.1683V13.2759C17.1683 11.3925 16.4919 10.1064 14.7956 10.1064C13.5012 10.1064 12.7322 10.9723 12.3926 11.8107C12.2692 12.1104 12.2374 12.5264 12.2374 12.9467V20.7762H7.55224C7.55224 20.7762 7.61512 8.07253 7.55224 6.75752H12.2378V8.74411C12.2284 8.75975 12.2151 8.77504 12.2067 8.78999H12.2378V8.74411C12.8604 7.79096 13.9707 6.42833 16.4601 6.42833C19.5423 6.42833 21.8531 8.43195 21.8531 12.7371ZM2.65111 -3.72565e-07C1.04849 -3.72565e-07 -3.84544e-08 1.04665 -3.84544e-08 2.42179C-3.84544e-08 3.76773 1.0181 4.84463 2.58962 4.84463H2.62001C4.25407 4.84463 5.27007 3.76773 5.27007 2.42179C5.23898 1.04665 4.25407 -3.72565e-07 2.65111 -3.72565e-07ZM0.278457 20.7766H4.96192V6.75752H0.278457V20.7766Z" transform="translate(10.2583 8.33191)" fill="white"/>
</svg>
