<svg width="38" height="34" viewBox="0 0 38 34" fill="none" xmlns="http://www.w3.org/2000/svg">
<path d="M12.8333 0L9.47833 3.66667H3.66667C1.65 3.66667 0 5.31667 0 7.33333V29.3333C0 31.35 1.65 33 3.66667 33H33C35.0167 33 36.6667 31.35 36.6667 29.3333V7.33333C36.6667 5.31667 35.0167 3.66667 33 3.66667H27.1883L23.8333 0H12.8333ZM18.3333 27.5C13.2733 27.5 9.16667 23.3933 9.16667 18.3333C9.16667 13.2733 13.2733 9.16667 18.3333 9.16667C23.3933 9.16667 27.5 13.2733 27.5 18.3333C27.5 23.3933 23.3933 27.5 18.3333 27.5Z" transform="translate(0.666504 0.666664)" fill="#C8C8DE"/>
</svg>
