<svg width="26" height="26" viewBox="0 0 26 26" fill="none" xmlns="http://www.w3.org/2000/svg">
<path d="M13 26C20.1797 26 26 20.1797 26 13C26 5.8203 20.1797 0 13 0C5.8203 0 0 5.8203 0 13C0 20.1797 5.8203 26 13 26Z" fill="#CB2027"/>
<path d="M7.32922 11.7096C6.34641 11.6336 5.93345 11.1463 5.16269 10.6784C4.73907 12.901 4.22136 15.0316 2.68794 16.1447C2.21403 12.7854 3.38269 10.2622 3.92543 7.58397C3.00032 6.02668 4.03666 2.89217 5.98791 3.66456C8.38943 4.61423 3.90874 9.45504 6.91672 10.0596C10.057 10.6909 11.339 4.61075 9.39147 2.63309C6.57769 -0.222176 1.2011 2.5682 1.86225 6.65562C2.02331 7.65489 3.05594 7.95823 2.27475 9.33708C0.473898 8.93826 -0.0632744 7.51793 0.00578393 5.62438C0.117251 2.52487 2.79083 0.354624 5.47252 0.0542894C8.86403 -0.3253 12.0472 1.29966 12.4866 4.48979C12.9809 8.09032 10.9555 11.9896 7.32922 11.7096Z" transform="translate(6.71985 5.69873)" fill="white"/>
</svg>
