<svg width="24" height="31" viewBox="0 0 24 31" fill="none" xmlns="http://www.w3.org/2000/svg">
<path d="M13.4345 21.4638C11.633 21.3244 10.876 20.4311 9.4632 19.5735C8.68671 23.6475 7.73775 27.553 4.92699 29.5932C4.05832 23.4356 6.20048 18.8106 7.19531 13.9014C5.49959 11.0469 7.3992 5.30135 10.9758 6.71714C15.3778 8.45788 7.16473 17.3311 12.6784 18.4393C18.4345 19.5964 20.7844 8.45151 17.2146 4.82645C12.0569 -0.407248 2.20161 4.70751 3.4135 12.1998C3.70873 14.0314 5.60154 14.5874 4.16961 17.1149C0.868655 16.3838 -0.115982 13.7804 0.010602 10.3095C0.214921 4.62808 5.11559 0.650026 10.0311 0.0995125C16.2478 -0.596275 22.0825 2.38227 22.8879 8.22978C23.794 14.8296 20.0814 21.9769 13.4345 21.4638Z" transform="translate(0.317383 0.445496)" fill="white"/>
</svg>
