<svg width="20" height="20" viewBox="0 0 20 20" fill="none" xmlns="http://www.w3.org/2000/svg">
<path d="M13.5965 13.5V8.5C13.5965 5.43 11.9565 2.86 9.09648 2.18V1.5C9.09648 0.67 8.41648 0 7.58648 0C6.75648 0 6.09648 0.67 6.09648 1.5V2.18C3.22648 2.86 1.59648 5.42 1.59648 8.5V13.5L0.296477 14.79C-0.333523 15.42 0.106477 16.5 0.996477 16.5H14.1665C15.0565 16.5 15.5065 15.42 14.8765 14.79L13.5965 13.5Z" transform="translate(2.40332 0.5)" fill="#0084FF"/>
<path d="M2 2C3.1 2 4 1.1 4 0H-2.28882e-07C-2.28882e-07 1.1 0.89 2 2 2Z" transform="translate(7.98975 18)" fill="#0084FF"/>
<path d="M4.64107 1.72136C5.06107 1.34136 5.07107 0.691362 4.67107 0.291362C4.29107 -0.0886376 3.67107 -0.0986376 3.28107 0.271362C1.57107 1.83136 0.391071 3.95136 0.011071 6.33136C-0.078929 6.94136 0.391071 7.49136 1.01107 7.49136C1.49107 7.49136 1.91107 7.14136 1.99107 6.66136C2.29107 4.72136 3.25107 2.99136 4.64107 1.72136Z" transform="translate(0.128906 1.00864)" fill="#0084FF"/>
<path d="M1.68904 0.271362C1.28904 -0.0986376 0.66904 -0.0886376 0.28904 0.291362C-0.11096 0.691362 -0.0909612 1.33136 0.319039 1.71136C1.69904 2.98136 2.66904 4.71136 2.96904 6.65136C3.03904 7.13136 3.45904 7.48136 3.94904 7.48136C4.55904 7.48136 5.03904 6.93136 4.93904 6.32136C4.55904 3.95136 3.38904 1.84136 1.68904 0.271362Z" transform="translate(14.9111 1.00864)" fill="#0084FF"/>
</svg>
