<svg width="20" height="20" viewBox="0 0 20 20" fill="none" xmlns="http://www.w3.org/2000/svg">
<path d="M13.5965 13.5V8.5C13.5965 5.43 11.9565 2.86 9.09648 2.18V1.5C9.09648 0.67 8.41648 0 7.58648 0C6.75648 0 6.09648 0.67 6.09648 1.5V2.18C3.22648 2.86 1.59648 5.42 1.59648 8.5V13.5L0.296477 14.79C-0.333523 15.42 0.106477 16.5 0.996477 16.5H14.1665C15.0565 16.5 15.5065 15.42 14.8765 14.79L13.5965 13.5Z" transform="translate(2.40332 0.5)" fill="#c8c8c8"/>
<path d="M2 2C3.1 2 4 1.1 4 0H-2.28882e-07C-2.28882e-07 1.1 0.89 2 2 2Z" transform="translate(7.98975 18)" fill="#c8c8c8"/>
</svg>
