<svg width="44" height="34" viewBox="0 0 44 34" fill="none" xmlns="http://www.w3.org/2000/svg">
<path d="M25.9658 23.0718C28.6255 21.9691 30.7251 20.4682 32.2636 18.5684C33.802 16.669 34.5713 14.6006 34.5713 12.363C34.5713 10.1254 33.802 8.05682 32.263 6.15738C30.7246 4.25794 28.6254 2.75684 25.9654 1.65392C23.3054 0.551166 20.4123 7.22674e-08 17.2855 7.22674e-08C14.1591 7.22674e-08 11.266 0.551504 8.60579 1.65392C5.94589 2.75676 3.84654 4.25786 2.30808 6.15738C0.769445 8.05715 0 10.1254 0 12.3631C0 14.2786 0.581964 16.0823 1.74409 17.7725C2.90612 19.4623 4.5022 20.8872 6.53181 22.046C6.36824 22.4327 6.20045 22.7864 6.02854 23.1088C5.85654 23.4307 5.65211 23.7403 5.41458 24.0383C5.17722 24.3365 4.99326 24.5697 4.8622 24.7382C4.73122 24.9072 4.51846 25.1452 4.22365 25.4505C3.92892 25.7564 3.74058 25.9576 3.65888 26.0539C3.65888 26.0377 3.62612 26.0742 3.56059 26.1627C3.49497 26.2513 3.45816 26.2913 3.45008 26.2838C3.44182 26.2751 3.40905 26.3153 3.35178 26.4039C3.2945 26.4925 3.26578 26.5367 3.26578 26.5367L3.20429 26.6571C3.18003 26.7057 3.16335 26.7532 3.15527 26.8019C3.14701 26.8498 3.14288 26.9025 3.14288 26.9587C3.14288 27.0148 3.15097 27.0669 3.16765 27.1155C3.20042 27.3244 3.2945 27.4932 3.44999 27.6226C3.60539 27.7511 3.77301 27.8153 3.95326 27.8153H4.02697C4.84526 27.7027 5.54926 27.5739 6.13844 27.4289C8.65929 26.7853 10.9348 25.7546 12.9645 24.3382C14.4376 24.5958 15.8781 24.7245 17.2857 24.7245C20.4124 24.7256 23.3059 24.1746 25.9658 23.0718Z" fill="#0084FF"/>
<path d="M27.1321 15.2731C28.2946 13.591 28.8755 11.7846 28.8755 9.85273C28.8755 7.87253 28.2609 6.0202 27.0337 4.29794C25.8059 2.57586 24.136 1.14293 22.0246 -3.51013e-07C22.4008 1.2072 22.589 2.43056 22.589 3.67032C22.589 5.8272 22.0414 7.8716 20.9439 9.80351C19.8472 11.7348 18.2758 13.441 16.2297 14.9222C14.3308 16.2744 12.1701 17.3124 9.74728 18.037C7.32516 18.7611 4.79598 19.1236 2.1605 19.1236C1.66961 19.1236 0.949271 19.0917 -2.30958e-07 19.0274C3.29003 21.1518 7.15325 22.2146 11.5891 22.2146C12.997 22.2146 14.4373 22.0855 15.9107 21.828C17.9403 23.245 20.2158 24.2748 22.7365 24.9191C23.3258 25.0644 24.0297 25.1929 24.8482 25.3054C25.0445 25.3216 25.2249 25.2652 25.3885 25.1364C25.5522 25.0076 25.6587 24.8311 25.7076 24.6059C25.6999 24.5092 25.7076 24.4562 25.7322 24.4485C25.7564 24.4409 25.7523 24.3883 25.7199 24.2919C25.6875 24.1951 25.671 24.1469 25.671 24.1469L25.6098 24.0264C25.5928 23.9946 25.5651 23.95 25.5239 23.8939C25.4829 23.8381 25.4503 23.7972 25.4256 23.7732C25.4015 23.7492 25.3649 23.7087 25.3155 23.6528C25.2666 23.597 25.2337 23.5604 25.2172 23.5443C25.1354 23.4476 24.9472 23.2465 24.6527 22.9405C24.3578 22.6349 24.1454 22.3975 24.0144 22.2286C23.8834 22.0595 23.6992 21.8262 23.4619 21.5281C23.2247 21.2306 23.0199 20.9206 22.848 20.5986C22.6761 20.2767 22.5084 19.9224 22.3447 19.5363C24.3745 18.3763 25.9701 16.9557 27.1321 15.2731Z" transform="translate(15.1245 8.69189)" fill="#0084FF"/>
</svg>
