<svg width="24" height="21" viewBox="0 0 24 21" fill="none" xmlns="http://www.w3.org/2000/svg">
<path d="M0.423911 10.0387L5.95399 12.1066L8.09447 19.0035C8.23143 19.4452 8.77055 19.6085 9.12839 19.3154L12.211 16.7976C12.5341 16.5338 12.9943 16.5207 13.332 16.7663L18.8918 20.8106C19.2746 21.0893 19.8169 20.8792 19.913 20.4157L23.9858 0.787056C24.0906 0.280812 23.5942 -0.141512 23.113 0.0449226L0.417431 8.81691C-0.142649 9.03332 -0.137769 9.8278 0.423911 10.0387ZM7.74951 11.0058L18.5574 4.33654C18.7516 4.21703 18.9514 4.48017 18.7846 4.63519L9.86503 12.9422C9.55151 13.2346 9.34927 13.6259 9.29199 14.0506L8.98815 16.3066C8.94791 16.6078 8.52559 16.6377 8.44263 16.3462L7.27407 12.2324C7.14023 11.7632 7.33527 11.262 7.74951 11.0058Z" transform="translate(0 0.0321045)" fill="white"/>
</svg>
