<svg width="29" height="24" viewBox="0 0 29 24" fill="none" xmlns="http://www.w3.org/2000/svg">
<path d="M27.7627 2.67101C26.7415 3.12382 25.643 3.43009 24.491 3.56687C25.6673 2.86216 26.5699 1.74712 26.996 0.416283C25.8954 1.06917 24.6758 1.5428 23.379 1.79809C22.34 0.69154 20.8596 -2.47668e-07 19.2204 -2.47668e-07C16.0753 -2.47668e-07 13.5245 2.5508 13.5245 5.69586C13.5245 6.1423 13.5751 6.57685 13.6728 6.99398C8.93904 6.75653 4.74181 4.48906 1.93232 1.04198C1.44212 1.88304 1.16092 2.86216 1.16092 3.90584C1.16092 5.88149 2.16722 7.62563 3.69473 8.6468C2.76149 8.61749 1.88262 8.36134 1.11504 7.93359C1.11462 7.9578 1.11462 7.98202 1.11462 8.00581C1.11462 10.7656 3.0788 13.0675 5.68396 13.5904C5.20651 13.7212 4.7023 13.7904 4.18365 13.7904C3.81579 13.7904 3.4594 13.7552 3.11193 13.6889C3.8366 15.9513 5.93968 17.5982 8.43271 17.6445C6.48297 19.1724 4.02733 20.0827 1.35802 20.0827C0.899257 20.0827 0.444744 20.0559 1.59253e-07 20.0028C2.51936 21.6195 5.51405 22.5621 8.73048 22.5621C19.2072 22.5621 24.9366 13.883 24.9366 6.35554C24.9366 6.10874 24.9311 5.8628 24.9201 5.61897C26.0338 4.81614 26.9994 3.81324 27.7627 2.67101Z" transform="translate(0.662109 0.454346)" fill="white"/>
</svg>
