<svg width="40" height="39" viewBox="0 0 40 39" fill="none" xmlns="http://www.w3.org/2000/svg">
<path d="M19.4275 39C30.157 39 38.855 30.2696 38.855 19.5C38.855 8.73045 30.157 0 19.4275 0C8.69799 0 0 8.73045 0 19.5C0 30.2696 8.69799 39 19.4275 39Z" transform="translate(0.99707)" fill="#00BAF5"/>
<path d="M22.6346 2.18577C21.8021 2.55632 20.9065 2.80695 19.9673 2.91888C20.9262 2.34219 21.6621 1.42972 22.0095 0.340657C21.1122 0.874933 20.1179 1.26252 19.0606 1.47143C18.2135 0.565908 17.0066 -2.02675e-07 15.6702 -2.02675e-07C13.106 -2.02675e-07 11.0264 2.08739 11.0264 4.6611C11.0264 5.02643 11.0676 5.38204 11.1473 5.72339C7.2879 5.52908 3.86594 3.67354 1.5754 0.852686C1.17575 1.54095 0.946485 2.34219 0.946485 3.19627C0.946485 4.813 1.76691 6.24029 3.01227 7.07594C2.25141 7.05195 1.53488 6.84234 0.909083 6.4923C0.908737 6.51212 0.908737 6.53193 0.908737 6.5514C0.908737 8.80981 2.51011 10.6935 4.63407 11.1214C4.24481 11.2285 3.83373 11.2851 3.41088 11.2851C3.11097 11.2851 2.82041 11.2563 2.53712 11.2021C3.12794 13.0534 4.84256 14.4011 6.87509 14.439C5.2855 15.6894 3.28343 16.4343 1.10718 16.4343C0.733154 16.4343 0.362594 16.4124 1.29837e-07 16.3689C2.05401 17.6919 4.49555 18.4633 7.11786 18.4633C15.6594 18.4633 20.3306 11.3609 20.3306 5.20093C20.3306 4.99897 20.3261 4.79771 20.3171 4.59818C21.2251 3.9412 22.0123 3.12049 22.6346 2.18577Z" transform="translate(9.68988 11.8285)" fill="#BEC7D1" style="mix-blend-mode:darken"/>
<path d="M22.6346 2.18577C21.8021 2.55632 20.9065 2.80695 19.9673 2.91888C20.9262 2.34219 21.6621 1.42972 22.0095 0.340657C21.1122 0.874933 20.1179 1.26252 19.0606 1.47143C18.2135 0.565908 17.0066 -2.02675e-07 15.6702 -2.02675e-07C13.106 -2.02675e-07 11.0264 2.08739 11.0264 4.6611C11.0264 5.02643 11.0676 5.38204 11.1473 5.72339C7.2879 5.52908 3.86594 3.67354 1.5754 0.852686C1.17575 1.54095 0.946485 2.34219 0.946485 3.19627C0.946485 4.813 1.76691 6.24029 3.01227 7.07594C2.25141 7.05195 1.53488 6.84234 0.909083 6.4923C0.908737 6.51212 0.908737 6.53193 0.908737 6.5514C0.908737 8.80981 2.51011 10.6935 4.63407 11.1214C4.24481 11.2285 3.83373 11.2851 3.41088 11.2851C3.11097 11.2851 2.82041 11.2563 2.53712 11.2021C3.12794 13.0534 4.84256 14.4011 6.87509 14.439C5.2855 15.6894 3.28343 16.4343 1.10718 16.4343C0.733154 16.4343 0.362594 16.4124 1.29837e-07 16.3689C2.05401 17.6919 4.49555 18.4633 7.11786 18.4633C15.6594 18.4633 20.3306 11.3609 20.3306 5.20093C20.3306 4.99897 20.3261 4.79771 20.3171 4.59818C21.2251 3.9412 22.0123 3.12049 22.6346 2.18577Z" transform="translate(9.68988 11.8285)" fill="white"/>
</svg>
