<svg width="32" height="19" viewBox="0 0 32 19" fill="none" xmlns="http://www.w3.org/2000/svg">
<path fill-rule="evenodd" clip-rule="evenodd" d="M15.3088 17.7755H17.1791C17.1791 17.7755 17.7441 17.7135 18.0325 17.4026C18.298 17.1171 18.2895 16.581 18.2895 16.581C18.2895 16.581 18.2529 14.0715 19.4177 13.7019C20.5659 13.3379 22.0403 16.1274 23.603 17.2C24.7848 18.0117 25.6827 17.8337 25.6827 17.8337L29.8613 17.7755C29.8613 17.7755 32.0472 17.6409 31.0107 15.9222C30.9258 15.7816 30.4071 14.6509 27.9039 12.3273C25.2839 9.89546 25.6347 10.2888 28.7909 6.08222C30.713 3.52037 31.4814 1.95634 31.2414 1.28646C31.0124 0.648446 29.5988 0.817085 29.5988 0.817085L24.8939 0.846393C24.8939 0.846393 24.5452 0.798818 24.2865 0.953437C24.0338 1.10508 23.8711 1.4585 23.8711 1.4585C23.8711 1.4585 23.1264 3.44094 22.1333 5.12689C20.0383 8.68441 19.2006 8.87216 18.8583 8.65128C18.0618 8.13645 18.2606 6.58303 18.2606 5.47945C18.2606 2.03195 18.7835 0.5945 17.2424 0.222394C16.731 0.0987836 16.3546 0.0172244 15.0467 0.00405621C13.368 -0.0133597 11.9471 0.00915542 11.1426 0.40335C10.6073 0.665439 10.1945 1.24951 10.4459 1.28307C10.7569 1.3247 11.4612 1.47294 11.8345 1.9814C12.3167 2.63726 12.2997 4.11039 12.2997 4.11039C12.2997 4.11039 12.5766 8.16873 11.6527 8.67294C11.0185 9.01871 10.1486 8.31273 8.28084 5.08526C7.32381 3.43202 6.60126 1.60462 6.60126 1.60462C6.60126 1.60462 6.46193 1.2631 6.21344 1.08045C5.91184 0.859138 5.49046 0.788623 5.49046 0.788623L1.01967 0.817933C1.01967 0.817933 0.348517 0.836623 0.102146 1.12845C-0.11704 1.38799 0.0847297 1.92491 0.0847297 1.92491C0.0847297 1.92491 3.58491 10.1138 7.54809 14.2405C11.1821 18.024 15.3088 17.7755 15.3088 17.7755Z" transform="translate(0.620117 0.504944)" fill="white"/>
</svg>
