<svg width="28" height="28" viewBox="0 0 28 28" fill="none" xmlns="http://www.w3.org/2000/svg">
<path d="M12.8864 10.4694C13.6435 10.4694 14.2363 10.2284 14.6702 9.88586C15.1013 9.54164 15.3168 9.07331 15.3168 8.47167V4.8411C15.3168 4.30685 15.0968 3.86532 14.6582 3.5257C14.2167 3.18592 13.6525 3.01693 12.9612 3.01693C12.2055 3.01693 11.6009 3.17704 11.1534 3.49874C10.7045 3.82192 10.4799 4.25293 10.4799 4.79918V8.44159C10.4799 9.04011 10.6984 9.51304 11.1353 9.86778C11.5723 10.2225 12.1576 10.4694 12.8864 10.4694ZM12.0948 4.97589C12.0948 4.83814 12.1667 4.72751 12.3089 4.63923C12.4525 4.55392 12.6381 4.512 12.8656 4.512C13.114 4.512 13.3146 4.55392 13.4658 4.63923C13.6185 4.72751 13.6933 4.8383 13.6933 4.97589V8.42679C13.6933 8.59742 13.6185 8.73206 13.4688 8.82937C13.3192 8.92521 13.1186 8.97452 12.8656 8.97452C12.6187 8.97452 12.4272 8.92816 12.2939 8.83085C12.1622 8.73649 12.0948 8.60186 12.0948 8.42679V4.97589ZM17.8968 10.465C18.1631 10.465 18.434 10.3123 18.7154 10.1597C18.9998 10.0041 19.2705 9.77655 19.5311 9.48033V10.287H20.9453V3.00641H19.5311V8.53299C19.3994 8.69014 19.2528 8.82033 19.0956 8.92356C18.9355 9.02531 18.8038 9.07775 18.7006 9.07775C18.5675 9.07775 18.4701 9.04027 18.4133 8.96104C18.3534 8.88477 18.3205 8.76049 18.3205 8.58986V3.00789H16.9093V9.09123C16.9093 9.5252 16.9946 9.85003 17.1577 10.0655C17.3236 10.2824 17.569 10.465 17.8968 10.465ZM22.0092 13.4745H4.91901C2.20143 13.4745 -1.71997e-08 15.5921 -1.71997e-08 18.2005V22.1962C-1.71997e-08 24.8061 2.20143 26.9237 4.91901 26.9237H22.009C24.7251 26.9237 26.928 24.8061 26.928 22.1962V18.2005C26.9282 15.5919 24.7253 13.4745 22.0092 13.4745ZM7.46153 17.53H5.95019V23.7884H4.48816V17.53H2.97666V16.463H7.4617C7.46153 16.463 7.46153 17.53 7.46153 17.53ZM11.9721 23.8752H10.3963V23.2258C10.103 23.4653 9.80219 23.6492 9.48493 23.772C9.17211 23.9007 8.86685 23.962 8.57063 23.962C8.20553 23.962 7.93315 23.8738 7.74756 23.6957C7.56493 23.5207 7.47074 23.2573 7.47074 22.9055V17.9642H9.04652V22.497C9.04652 22.6378 9.0794 22.7365 9.14236 22.7993C9.21123 22.8636 9.32038 22.8921 9.46718 22.8921C9.58093 22.8921 9.73052 22.8516 9.90707 22.7678C10.0851 22.6854 10.2483 22.5807 10.3964 22.4505V17.9625H11.9722C11.9721 17.9625 11.9721 23.8752 11.9721 23.8752ZM17.937 22.7499C17.937 23.1375 17.8142 23.4322 17.5705 23.6403C17.3295 23.8483 16.9734 23.95 16.514 23.95C16.2072 23.95 15.9348 23.9111 15.6983 23.8318C15.4604 23.7526 15.2359 23.6298 15.0324 23.4607V23.8797H13.4596V16.463H15.0324V18.853C15.2449 18.6884 15.4678 18.5597 15.6998 18.4729C15.9376 18.3847 16.1772 18.3427 16.4181 18.3427C16.9105 18.3427 17.2861 18.458 17.545 18.6899C17.8068 18.9233 17.937 19.2661 17.937 19.7135C17.937 19.7134 17.937 22.7499 17.937 22.7499ZM23.9321 21.0812H21.0289V22.1497C21.0289 22.4476 21.0768 22.654 21.177 22.7707C21.2788 22.886 21.4509 22.9428 21.6919 22.9428C21.9464 22.9428 22.1199 22.8935 22.2217 22.7962C22.3205 22.6974 22.3744 22.4834 22.3744 22.1482V21.8908H23.9352V22.1811C23.9352 22.7617 23.7482 23.1988 23.362 23.4935C22.982 23.7868 22.4132 23.9334 21.6575 23.9334C20.9767 23.9334 20.4409 23.7778 20.0504 23.4666C19.6613 23.1584 19.4637 22.7273 19.4637 22.1826V19.6355C19.4637 19.1461 19.6792 18.742 20.1102 18.4323C20.5397 18.1241 21.0904 17.9699 21.7713 17.9699C22.4656 17.9699 22.9999 18.1136 23.374 18.3995C23.7467 18.6853 23.9323 19.0982 23.9323 19.6341C23.9321 19.6341 23.9321 21.0812 23.9321 21.0812ZM6.61463 10.486H8.4V6.13562L10.4786 2.17212e-07H8.66334L7.55885 4.19326H7.4451L6.28685 2.17212e-07H4.48652L6.61447 6.33173C6.61463 6.33173 6.61463 10.486 6.61463 10.486ZM15.6833 19.2105L15.3526 19.2644L15.0309 19.4306V22.8396C15.1567 22.9279 15.2808 22.9953 15.4006 23.0326L15.7762 23.091C15.9677 23.091 16.107 23.0535 16.1967 22.9742C16.285 22.898 16.3313 22.7722 16.3313 22.6001V19.7732C16.3313 19.5861 16.2789 19.4469 16.1683 19.3527C16.0545 19.2585 15.8944 19.2105 15.6833 19.2105Z" transform="translate(0.47998 0.986511)" fill="white"/>
</svg>
