<svg width="18" height="18" viewBox="0 0 18 18" fill="none" xmlns="http://www.w3.org/2000/svg">
<path fill-rule="evenodd" clip-rule="evenodd" d="M9.91667 9.91667V16.3333C9.91667 16.5764 9.82009 16.8096 9.64818 16.9815C9.47627 17.1534 9.24312 17.25 9 17.25C8.75688 17.25 8.52373 17.1534 8.35182 16.9815C8.17991 16.8096 8.08333 16.5764 8.08333 16.3333V9.91667H1.66667C1.42355 9.91667 1.19039 9.82009 1.01849 9.64818C0.846577 9.47627 0.75 9.24312 0.75 9C0.75 8.75688 0.846577 8.52373 1.01849 8.35182C1.19039 8.17991 1.42355 8.08333 1.66667 8.08333H8.08333V1.66667C8.08333 1.42355 8.17991 1.19039 8.35182 1.01849C8.52373 0.846577 8.75688 0.75 9 0.75C9.24312 0.75 9.47627 0.846577 9.64818 1.01849C9.82009 1.19039 9.91667 1.42355 9.91667 1.66667V8.08333H16.3333C16.5764 8.08333 16.8096 8.17991 16.9815 8.35182C17.1534 8.52373 17.25 8.75688 17.25 9C17.25 9.24312 17.1534 9.47627 16.9815 9.64818C16.8096 9.82009 16.5764 9.91667 16.3333 9.91667H9.91667Z" fill="white"/>
</svg>
