<svg width="19" height="11" viewBox="0 0 19 11" fill="none" xmlns="http://www.w3.org/2000/svg">
<path d="M16.0883 10.5122L9.49114 4.03023L2.89395 10.5122C2.73654 10.6668 2.54966 10.7895 2.34398 10.8732C2.1383 10.9569 1.91786 11 1.69524 11C1.47262 11 1.25218 10.9569 1.0465 10.8732C0.840824 10.7895 0.65394 10.6668 0.496523 10.5122C0.339105 10.3575 0.214237 10.1739 0.129044 9.97179C0.0438498 9.7697 1.60089e-06 9.55311 1.58343e-06 9.33438C1.56596e-06 9.11565 0.0438497 8.89906 0.129043 8.69697C0.214237 8.49489 0.339105 8.31127 0.496523 8.15661L8.30092 0.488556C8.45823 0.333685 8.64507 0.210817 8.85076 0.126984C9.05645 0.0431506 9.27695 -1.30234e-06 9.49964 -1.32181e-06C9.72233 -1.34128e-06 9.94283 0.0431505 10.1485 0.126984C10.3542 0.210817 10.5411 0.333685 10.6984 0.488556L18.5028 8.15661C18.6604 8.31116 18.7854 8.49474 18.8708 8.69684C18.9561 8.89893 19 9.11558 19 9.33438C19 9.55317 18.9561 9.76982 18.8708 9.97192C18.7854 10.174 18.6604 10.3576 18.5028 10.5122C17.8396 11.147 16.7514 11.1637 16.0883 10.5122V10.5122Z" fill="white"/>
</svg>
