<svg width="7" height="12" viewBox="0 0 7 12" fill="none" xmlns="http://www.w3.org/2000/svg">
<path d="M0.515733 9.55668L4.0724 6.00001L0.515732 2.44335C0.430865 2.35848 0.363546 2.25773 0.317616 2.14684C0.271687 2.03596 0.248046 1.91712 0.248046 1.7971C0.248046 1.67708 0.271687 1.55823 0.317616 1.44735C0.363546 1.33646 0.430865 1.23571 0.515732 1.15085C0.600599 1.06598 0.70135 0.99866 0.812234 0.95273C0.923118 0.906801 1.04196 0.883162 1.16198 0.883162C1.282 0.883161 1.40085 0.906801 1.51173 0.95273C1.62261 0.99866 1.72337 1.06598 1.80823 1.15085L6.01573 5.35835C6.10071 5.44315 6.16813 5.54388 6.21413 5.65477C6.26013 5.76567 6.28381 5.88454 6.28381 6.0046C6.28381 6.12465 6.26013 6.24353 6.21413 6.35442C6.16813 6.46531 6.10071 6.56604 6.01573 6.65085L1.80823 10.8583C1.72343 10.9433 1.6227 11.0107 1.5118 11.0567C1.40091 11.1027 1.28204 11.1264 1.16198 11.1264C1.04193 11.1264 0.923053 11.1027 0.81216 11.0567C0.701268 11.0107 0.600537 10.9433 0.515733 10.8583C0.167399 10.5008 0.158233 9.91418 0.515733 9.55668Z" fill="#646262"/>
</svg>
