<svg width="12" height="20" viewBox="0 0 12 20" fill="none" xmlns="http://www.w3.org/2000/svg">
<path d="M5.95828 0C2.96838 0 0.535156 2.43249 0.535156 5.4232V15.6905C0.535156 16.057 0.831719 16.3536 1.19831 16.3536C1.56465 16.3536 1.86121 16.057 1.86121 15.6905V5.4232C1.86121 3.16413 3.69876 1.3261 5.95828 1.3261C8.21804 1.3261 10.0555 3.16413 10.0555 5.4232V16.0085C10.0555 17.478 8.85966 18.674 7.38984 18.674C7.37891 18.674 7.36908 18.6798 7.3582 18.6804C7.34655 18.6798 7.33745 18.674 7.32584 18.674C5.85613 18.674 4.66025 17.478 4.66025 16.0085V9.65885C4.66025 8.94271 5.24225 8.36067 5.95828 8.36067C6.67446 8.36067 7.2565 8.94271 7.2565 9.65885V15.6905C7.2565 16.057 7.55359 16.3536 7.91945 16.3536C8.28523 16.3536 8.58256 16.057 8.58256 15.6905V9.65885C8.58256 8.21172 7.40541 7.03461 5.95828 7.03461C4.51135 7.03461 3.3342 8.21176 3.3342 9.65885V16.0085C3.3342 18.2091 5.12445 20 7.3258 20C7.33741 20 7.34651 19.9942 7.35816 19.9935C7.36908 19.9942 7.37891 20 7.3898 20C9.59061 20 11.3814 18.2091 11.3814 16.0085V5.4232C11.3814 2.43249 8.94822 0 5.95828 0Z" fill="#E0B1A3"/>
</svg>
