<svg width="22" height="22" viewBox="0 0 22 22" fill="none" xmlns="http://www.w3.org/2000/svg">
<path d="M19.6823 0H2.31768C1.03757 0 0 1.04206 0 2.31768V19.6823C0 20.9624 1.04206 22 2.31768 22H19.6823C20.9624 22 22 20.9579 22 19.6823V2.31768C22 1.04206 20.9579 0 19.6823 0ZM20.8996 19.6823C20.8996 20.3516 20.3516 20.8996 19.6823 20.8996H2.31768C1.64843 20.8996 1.10045 20.3516 1.10045 19.6823V2.31768C1.10045 1.64843 1.64843 1.10045 2.31768 1.10045H19.6823C20.3516 1.10045 20.8996 1.64843 20.8996 2.31768V19.6823Z" fill="#E0B1A3"/>
<path d="M14.3512 7.99061L9.46879 12.8416L7.64969 11.0135C7.43409 10.7979 7.08823 10.7979 6.87264 11.0135C6.65704 11.2291 6.65704 11.5749 6.87264 11.7905L9.07802 14.0094C9.18133 14.1127 9.32057 14.1711 9.46879 14.1711C9.61253 14.1711 9.75177 14.1127 9.85507 14.0094L15.1282 8.76766C15.3438 8.55206 15.3438 8.20621 15.1282 7.99061C14.9126 7.77501 14.5668 7.77501 14.3512 7.99061Z" fill="#E0B1A3"/>
</svg>
