<svg width="26" height="23" viewBox="0 0 26 23" fill="none" xmlns="http://www.w3.org/2000/svg">
<path d="M18.7723 4.22326C16.6932 2.14419 13.9351 1 10.9955 1C8.05601 1 5.29787 2.14419 3.2188 4.22326C-0.799803 8.24186 -1.07887 14.6744 2.52578 19.014C2.17229 19.7256 1.60485 20.5535 0.762988 20.9674C0.358337 21.1674 0.13043 21.6 0.200198 22.0465C0.269965 22.493 0.614151 22.8419 1.06066 22.9116C1.26997 22.9442 1.56764 22.9767 1.93043 22.9767C2.90252 22.9767 4.33508 22.7488 5.8002 21.693C7.43276 22.5721 9.2188 23 10.9909 23C13.8374 23 16.656 21.8977 18.7769 19.7767C20.856 17.6977 22.0002 14.9395 22.0002 12C22.0002 9.06046 20.8514 6.30233 18.7723 4.22326ZM17.8839 18.8884C14.7444 22.0279 9.88392 22.6512 6.06066 20.4047C5.8095 20.2558 5.49787 20.3023 5.29787 20.5023C5.27927 20.5116 5.26066 20.5256 5.24671 20.5395C3.98624 21.5163 2.74904 21.7209 1.93043 21.7209H1.92578C2.86997 21.0326 3.46531 20.0093 3.81415 19.214C3.86997 19.0791 3.87927 18.9395 3.84671 18.8093C3.83276 18.6837 3.78159 18.5581 3.69322 18.4558C0.28857 14.6093 0.465314 8.74884 4.10252 5.11163C7.90252 1.31163 14.0839 1.31163 17.8793 5.11163C21.6839 8.91163 21.6839 15.0884 17.8839 18.8884Z" fill="#E0B1A3"/>
<path d="M10.9947 12.7721C11.4212 12.7721 11.7668 12.4264 11.7668 12C11.7668 11.5736 11.4212 11.2279 10.9947 11.2279C10.5683 11.2279 10.2227 11.5736 10.2227 12C10.2227 12.4264 10.5683 12.7721 10.9947 12.7721Z" fill="#E0B1A3"/>
<path d="M14.9752 12.7721C15.4016 12.7721 15.7473 12.4264 15.7473 12C15.7473 11.5736 15.4016 11.2279 14.9752 11.2279C14.5488 11.2279 14.2031 11.5736 14.2031 12C14.2031 12.4264 14.5488 12.7721 14.9752 12.7721Z" fill="#E0B1A3"/>
<path d="M7.01233 12.7721C7.43874 12.7721 7.78442 12.4264 7.78442 12C7.78442 11.5736 7.43874 11.2279 7.01233 11.2279C6.58591 11.2279 6.24023 11.5736 6.24023 12C6.24023 12.4264 6.58591 12.7721 7.01233 12.7721Z" fill="#E0B1A3"/>
<circle cx="21" cy="7" r="6" fill="#E0B1A3" stroke="white" stroke-width="2"/>
<path d="M22.5 5.5L19.5 8.5" stroke="white" stroke-linecap="round" stroke-linejoin="round"/>
<path d="M19.5 5.5L22.5 8.5" stroke="white" stroke-linecap="round" stroke-linejoin="round"/>
</svg>
