<svg width="27" height="26" viewBox="0 0 27 26" fill="none" xmlns="http://www.w3.org/2000/svg">
<path d="M13.1498 7.70867L10.6311 10.2274C9.70319 11.1553 8.76996 12.0832 7.84733 13.0218C7.62993 13.2445 7.46555 13.5414 7.40192 13.833C7.06787 15.3654 6.74441 16.8979 6.42096 18.4303L6.24068 19.2787C6.15584 19.6923 6.26719 20.1059 6.54822 20.3869C6.76562 20.6043 7.06787 20.7263 7.38601 20.7263C7.47616 20.7263 7.5663 20.7156 7.65644 20.6997L8.58967 20.5035C10.0744 20.1907 11.5644 19.8726 13.0491 19.565C13.3937 19.4908 13.6853 19.337 13.9346 19.0878C18.1023 14.9147 22.27 10.747 26.4378 6.58455C26.7453 6.27701 26.915 5.91114 26.9574 5.46042C26.9627 5.38619 26.9574 5.31196 26.9415 5.24302C26.915 5.13697 26.8938 5.02562 26.8673 4.91957C26.809 4.64915 26.7453 4.3416 26.6181 4.04466C25.8386 2.26303 24.5448 0.990439 22.7738 0.274604C22.4185 0.131438 22.042 0.0837152 21.7133 0.0412954L21.6231 0.0306905C21.1459 -0.0276367 20.7111 0.131438 20.3346 0.513216C17.9485 2.90993 15.5465 5.31196 13.1498 7.70867ZM21.4482 1.30859C21.4588 1.30859 21.4641 1.30859 21.4747 1.30859L21.5648 1.31919C21.8405 1.35101 22.0951 1.38282 22.2966 1.46766C23.7388 2.05093 24.7993 3.09022 25.4409 4.5537C25.5152 4.72338 25.5629 4.94078 25.6106 5.16879C25.6265 5.25363 25.6477 5.33847 25.6636 5.42331C25.6424 5.51875 25.6053 5.58238 25.5311 5.65131C21.358 9.81376 17.1903 13.9868 13.0225 18.1546C12.9536 18.2235 12.89 18.2553 12.7945 18.2765C11.3045 18.5894 9.81985 18.9022 8.32985 19.215L7.54509 19.3794L7.69356 18.6848C8.01701 17.1577 8.34046 15.6253 8.66921 14.0982C8.67982 14.0504 8.72224 13.9762 8.76996 13.9232C9.69259 12.9899 10.6152 12.062 11.5432 11.1394L14.0618 8.6207C16.4638 6.21868 18.8659 3.81666 21.2626 1.40933C21.3633 1.32449 21.411 1.30859 21.4482 1.30859Z" fill="#E0B1A3" stroke="#E0B1A3" stroke-width="0.5"/>
<path d="M3.02165 5.7998H12.2798C12.6403 5.7998 12.932 5.50816 12.932 5.1476C12.932 4.78703 12.6403 4.49539 12.2798 4.49539H3.02165C1.88162 4.49539 0.958984 5.42333 0.958984 6.55805V23.9184C0.958984 25.0584 1.88692 25.981 3.02165 25.981H20.3767C21.5167 25.981 22.4393 25.0531 22.4393 23.9184V15.0367C22.4393 14.6761 22.1477 14.3845 21.7871 14.3845C21.4265 14.3845 21.1349 14.6761 21.1349 15.0367V23.9184C21.1349 24.3373 20.7902 24.6819 20.3713 24.6819H3.02165C2.60275 24.6819 2.25809 24.3373 2.25809 23.9184V6.56336C2.25809 6.14446 2.60275 5.7998 3.02165 5.7998Z" fill="#E0B1A3" stroke="#E0B1A3" stroke-width="0.5"/>
</svg>
