<svg width="27" height="26" viewBox="0 0 27 26" fill="none" xmlns="http://www.w3.org/2000/svg">
<path d="M12.2309 7.70867L9.71218 10.2274C8.78425 11.1553 7.85101 12.0832 6.92838 13.0218C6.71098 13.2445 6.54661 13.5414 6.48298 13.833C6.14892 15.3654 5.82547 16.8979 5.50202 18.4303L5.32173 19.2787C5.2369 19.6923 5.34825 20.1059 5.62928 20.3869C5.84668 20.6043 6.14892 20.7263 6.46707 20.7263C6.55721 20.7263 6.64735 20.7156 6.73749 20.6997L7.67073 20.5035C9.15542 20.1907 10.6454 19.8726 12.1301 19.565C12.4748 19.4908 12.7664 19.337 13.0156 19.0878C17.1834 14.9147 21.3511 10.747 25.5188 6.58455C25.8264 6.27701 25.9961 5.91114 26.0385 5.46042C26.0438 5.38619 26.0385 5.31196 26.0226 5.24302C25.9961 5.13697 25.9749 5.02562 25.9483 4.91957C25.89 4.64915 25.8264 4.3416 25.6991 4.04466C24.9197 2.26303 23.6259 0.990439 21.8548 0.274604C21.4996 0.131438 21.1231 0.0837152 20.7943 0.0412954L20.7042 0.0306905C20.227 -0.0276367 19.7922 0.131438 19.4157 0.513216C17.0296 2.90993 14.6276 5.31196 12.2309 7.70867ZM20.5292 1.30859C20.5398 1.30859 20.5451 1.30859 20.5557 1.30859L20.6459 1.31919C20.9216 1.35101 21.1761 1.38282 21.3776 1.46766C22.8199 2.05093 23.8804 3.09022 24.522 4.5537C24.5962 4.72338 24.6439 4.94078 24.6917 5.16879C24.7076 5.25363 24.7288 5.33847 24.7447 5.42331C24.7235 5.51875 24.6864 5.58238 24.6121 5.65131C20.4391 9.81376 16.2713 13.9868 12.1036 18.1546C12.0347 18.2235 11.971 18.2553 11.8756 18.2765C10.3856 18.5894 8.9009 18.9022 7.41091 19.215L6.62614 19.3794L6.77461 18.6848C7.09806 17.1577 7.42151 15.6253 7.75027 14.0982C7.76087 14.0504 7.80329 13.9762 7.85101 13.9232C8.77364 12.9899 9.69627 12.062 10.6242 11.1394L13.1429 8.6207C15.5449 6.21868 17.9469 3.81666 20.3436 1.40933C20.4444 1.32449 20.4921 1.30859 20.5292 1.30859Z" fill="#D1D1D1" stroke="#D1D1D1" stroke-width="0.5"/>
</svg>
