<?xml version="1.0" encoding="utf-8"?>
<!-- Generator: Adobe Illustrator 19.0.0, SVG Export Plug-In . SVG Version: 6.00 Build 0)  -->
<svg version="1.1" id="Layer_1" xmlns="http://www.w3.org/2000/svg" xmlns:xlink="http://www.w3.org/1999/xlink" x="0px" y="0px"
	 viewBox="0 0 96 96" style="enable-background: #646262;" xml:space="preserve">
<style type="text/css">
	.st0{fill:#D1D1D1;}
</style>
<g id="XMLID_2_">
	<path id="XMLID_4_" class="st0" d="M63.6,57.7c0,3.4-1.1,6.4-3.3,8.8c-2.2,2.5-5.1,4-8.7,4.6v5.9c0,0.3-0.1,0.6-0.3,0.8
		c-0.2,0.2-0.5,0.3-0.8,0.3H46c-0.3,0-0.5-0.1-0.8-0.3c-0.2-0.2-0.3-0.5-0.3-0.8v-5.9c-1.5-0.2-2.9-0.5-4.3-1s-2.5-1-3.4-1.5
		c-0.9-0.5-1.7-1-2.5-1.6c-0.8-0.6-1.3-1-1.6-1.3c-0.3-0.3-0.5-0.5-0.6-0.6c-0.4-0.5-0.4-0.9-0.1-1.4l3.4-4.5
		c0.2-0.2,0.4-0.4,0.8-0.4c0.3,0,0.6,0.1,0.8,0.3l0.1,0.1c2.5,2.2,5.2,3.6,8.1,4.2c0.8,0.2,1.7,0.3,2.5,0.3c1.8,0,3.4-0.5,4.8-1.4
		s2.1-2.3,2.1-4.1c0-0.6-0.2-1.2-0.5-1.8c-0.3-0.6-0.7-1-1.1-1.4c-0.4-0.4-1.1-0.8-2-1.3c-0.9-0.5-1.6-0.8-2.2-1.1
		c-0.6-0.3-1.5-0.6-2.7-1.1c-0.9-0.4-1.6-0.6-2.1-0.8s-1.2-0.5-2.1-0.9c-0.9-0.4-1.6-0.7-2.1-1c-0.5-0.3-1.2-0.7-1.9-1.2
		c-0.7-0.5-1.3-1-1.8-1.4c-0.5-0.5-0.9-1-1.5-1.6c-0.5-0.6-0.9-1.3-1.2-1.9s-0.5-1.4-0.7-2.2s-0.3-1.7-0.3-2.6
		c0-3.1,1.1-5.8,3.3-8.1s5-3.8,8.5-4.5v-6c0-0.3,0.1-0.5,0.3-0.8c0.2-0.2,0.5-0.3,0.8-0.3h4.5c0.3,0,0.6,0.1,0.8,0.3
		c0.2,0.2,0.3,0.5,0.3,0.8V25c1.3,0.1,2.5,0.4,3.7,0.8c1.2,0.4,2.2,0.8,2.9,1.1c0.7,0.4,1.5,0.8,2.1,1.3c0.7,0.5,1.1,0.8,1.3,1
		c0.2,0.2,0.4,0.3,0.5,0.5c0.4,0.4,0.4,0.8,0.2,1.3l-2.7,4.9c-0.2,0.3-0.4,0.5-0.8,0.5c-0.3,0.1-0.6,0-0.9-0.2
		c-0.1-0.1-0.2-0.2-0.5-0.4s-0.7-0.5-1.3-0.9c-0.6-0.4-1.3-0.7-2-1.1c-0.7-0.3-1.5-0.6-2.5-0.9c-1-0.3-1.9-0.4-2.9-0.4
		c-2.1,0-3.9,0.5-5.2,1.4s-2,2.2-2,3.7c0,0.6,0.1,1.1,0.3,1.6c0.2,0.5,0.5,1,1,1.4s0.9,0.8,1.3,1.1c0.4,0.3,1,0.6,1.9,1
		c0.8,0.4,1.5,0.7,2,0.9c0.5,0.2,1.3,0.5,2.3,0.9c1.2,0.4,2.1,0.8,2.7,1.1c0.6,0.3,1.5,0.6,2.5,1.2c1.1,0.5,1.9,1,2.5,1.4
		s1.3,1,2.1,1.7s1.4,1.4,1.8,2.1c0.4,0.7,0.8,1.6,1.1,2.6C63.5,55.5,63.6,56.6,63.6,57.7z"/>
</g>
</svg>
