<svg width="7" height="12" viewBox="0 0 7 12" fill="none" xmlns="http://www.w3.org/2000/svg">
<path d="M6.48427 2.44328L2.9276 5.99994L6.48427 9.55661C6.56913 9.64148 6.63645 9.74223 6.68238 9.85311C6.72831 9.964 6.75195 10.0828 6.75195 10.2029C6.75195 10.3229 6.72831 10.4417 6.68238 10.5526C6.63645 10.6635 6.56913 10.7642 6.48427 10.8491C6.3994 10.934 6.29865 11.0013 6.18776 11.0472C6.07688 11.0932 5.95804 11.1168 5.83802 11.1168C5.718 11.1168 5.59915 11.0932 5.48827 11.0472C5.37739 11.0013 5.27663 10.934 5.19177 10.8491L0.984267 6.64161C0.899289 6.5568 0.83187 6.45607 0.78587 6.34518C0.739871 6.23429 0.716193 6.11541 0.716193 5.99536C0.716193 5.8753 0.739871 5.75643 0.78587 5.64554C0.83187 5.53464 0.899289 5.43391 0.984267 5.34911L5.19177 1.14161C5.27657 1.05663 5.3773 0.989212 5.4882 0.943212C5.59909 0.897212 5.71796 0.873535 5.83802 0.873535C5.95807 0.873535 6.07695 0.897212 6.18784 0.943212C6.29873 0.989212 6.39946 1.05663 6.48427 1.14161C6.8326 1.49911 6.84177 2.08578 6.48427 2.44328Z" fill="#E0B1A3"/>
</svg>
