<svg width="27" height="28" viewBox="0 0 27 28" fill="none" xmlns="http://www.w3.org/2000/svg">
<path d="M25.6313 19.5809C22.6909 16.522 22.2484 14.9871 22.2484 10.1C22.2484 5.07417 18.3318 1 13.5001 1C8.66839 1 4.75175 5.07422 4.75175 10.1C4.75175 12.7351 4.68427 13.7187 4.33549 14.9264C3.90175 16.431 3.01132 17.8714 1.36841 19.5809C0.581346 20.3999 1.13886 21.8 2.25219 21.8H9.18841L9.12547 22.45C9.12547 24.9629 11.0838 27 13.4996 27C15.9154 27 17.8738 24.9629 17.8738 22.45L17.8109 21.8H24.7475C25.8613 21.8 26.4188 20.3999 25.6313 19.5809ZM13.5005 25.7C11.775 25.7 10.3759 24.2444 10.3759 22.45L10.4388 21.8H16.5613L16.6251 22.45C16.6251 24.2444 15.2259 25.7 13.5005 25.7ZM2.25258 20.5C6.00175 16.6 6.00175 14 6.00175 10.1C6.00175 5.79267 9.35882 2.3 13.5001 2.3C17.6413 2.3 20.9984 5.79267 20.9988 10.1C20.9988 14 20.9988 16.6 24.7479 20.5H2.25258Z" fill="#E0B1A3" stroke="#E0B1A3" stroke-width="0.3"/>
</svg>
