<svg width="26" height="20" viewBox="0 0 26 20" fill="none" xmlns="http://www.w3.org/2000/svg">
<path d="M22.826 0.10675H3.17939C1.42562 0.10675 0 1.53237 0 3.28614V16.7138C0 18.4676 1.42562 19.8932 3.17939 19.8932H22.8206C24.5744 19.8932 26 18.4676 26 16.7138V3.29152C26.0054 1.53775 24.5798 0.10675 22.826 0.10675ZM24.5529 16.7138C24.5529 17.666 23.7782 18.4407 22.826 18.4407H3.17939C2.22719 18.4407 1.45251 17.666 1.45251 16.7138V3.29152C1.45251 2.33932 2.22719 1.56464 3.17939 1.56464H22.8206C23.7728 1.56464 24.5475 2.33932 24.5475 3.29152V16.7138H24.5529Z" fill="#E0B1A3"/>
<path d="M16.3972 9.83321L22.756 4.13075C23.0519 3.86176 23.0788 3.40449 22.8098 3.10323C22.5408 2.80735 22.0836 2.78045 21.7823 3.04943L13.0134 10.9199L11.3027 9.39208C11.2973 9.3867 11.2919 9.38132 11.2919 9.37594C11.2543 9.33828 11.2166 9.306 11.1736 9.27372L4.21226 3.04405C3.911 2.77507 3.45372 2.80197 3.18474 3.10323C2.91575 3.40449 2.94265 3.86176 3.24392 4.13075L9.67801 9.88163L3.27081 15.88C2.98031 16.1543 2.96417 16.6116 3.23854 16.9075C3.38379 17.0581 3.57746 17.1388 3.77112 17.1388C3.94865 17.1388 4.12618 17.0743 4.26605 16.9451L10.7701 10.8607L12.5346 12.437C12.6745 12.5607 12.8466 12.6199 13.0188 12.6199C13.1909 12.6199 13.3685 12.5553 13.503 12.4316L15.3159 10.8069L21.7823 16.9505C21.9222 17.085 22.1051 17.1496 22.2826 17.1496C22.4763 17.1496 22.6646 17.0743 22.8098 16.9236C23.0842 16.6331 23.0734 16.1705 22.7829 15.8961L16.3972 9.83321Z" fill="#E0B1A3"/>
</svg>
