<svg width="30" height="26" viewBox="0 0 30 26" fill="none" xmlns="http://www.w3.org/2000/svg">
<path d="M28.8899 14.4029C28.1527 12.3762 26.9951 10.5649 25.4493 9.01907C23.4129 6.98267 20.8827 5.61348 18.1298 5.02262C18.6474 4.55915 18.9739 3.88634 18.9739 3.13848C18.9739 1.74377 17.8393 0.609117 16.4446 0.609117C15.9082 0.609117 15.4107 0.777385 15.0011 1.06321C14.5798 0.768271 14.0798 0.608856 13.5548 0.608856C12.1604 0.608856 11.0259 1.74364 11.0259 3.13841C11.0259 3.88816 11.3541 4.56247 11.8739 5.02607C11.077 5.19903 10.2928 5.43838 9.52604 5.74412C7.74077 6.45593 6.1362 7.4904 4.75699 8.81871C3.10601 10.4085 1.87853 12.2906 1.10867 14.4123C0.906876 14.9677 0.98935 15.5889 1.32921 16.074C1.59863 16.4585 2.00345 16.7201 2.45423 16.8142C2.27333 17.6707 2.17745 18.5581 2.17745 19.4676C2.17745 22.7338 4.83471 25.3911 8.101 25.3911H21.9009C25.1672 25.3911 27.8245 22.7338 27.8245 19.4676C27.8245 18.558 27.7286 17.6705 27.5477 16.8141C27.9976 16.72 28.4015 16.4588 28.6701 16.0751C29.0114 15.5873 29.0936 14.9622 28.8899 14.4029ZM16.4445 1.58546C17.3008 1.58546 17.9974 2.2821 17.9974 3.13841C17.9974 3.99472 17.3007 4.69136 16.4445 4.69136C15.5882 4.69136 14.8915 3.99472 14.8915 3.13841C14.8915 2.2821 15.5882 1.58546 16.4445 1.58546ZM13.5548 1.58514C13.8241 1.58514 14.0827 1.65362 14.3114 1.78166C14.0609 2.17404 13.9151 2.63933 13.9151 3.13835C13.9151 3.63729 14.0609 4.10258 14.3114 4.4949C14.0826 4.62294 13.824 4.69136 13.5548 4.69136C12.6987 4.69136 12.0023 3.99459 12.0023 3.13821C12.0023 2.28184 12.6987 1.58514 13.5548 1.58514ZM21.9009 24.4147H8.10094C5.37304 24.4147 3.15379 22.1953 3.15379 19.4675C3.15379 12.935 8.46839 7.62039 15.0009 7.62039C21.5334 7.62039 26.848 12.935 26.848 19.4675C26.848 22.1953 24.6287 24.4147 21.9009 24.4147ZM27.8701 15.515C27.7352 15.7077 27.5351 15.8303 27.3086 15.8654C25.7482 10.5425 20.8216 6.64398 15.0008 6.64398C9.18007 6.64398 4.25343 10.5426 2.69306 15.8655C2.46562 15.8305 2.26448 15.7073 2.12876 15.5136C1.96908 15.2857 1.93178 15.0058 2.02636 14.7454C2.745 12.7648 3.89157 11.0074 5.43423 9.52186C8.00245 7.04841 11.522 5.64421 15.096 5.66816C18.7451 5.69205 22.1768 7.12724 24.759 9.70939C26.2031 11.1536 27.2843 12.845 27.9724 14.7368C28.0686 15.0011 28.0313 15.2848 27.8701 15.515Z" fill="#E0B1A3" stroke="#E0B1A3" stroke-width="0.5"/>
</svg>
