<svg width="16" height="16" viewBox="0 0 18 16" fill="none" xmlns="http://www.w3.org/2000/svg">
<path d="M9 16.0391C8.74374 16.0391 8.49669 15.9463 8.30415 15.7778C7.577 15.1426 6.87593 14.5456 6.2574 14.019L6.25424 14.0162C4.44081 12.4722 2.87485 11.1388 1.78528 9.82536C0.567307 8.35697 0 6.96473 0 5.44379C0 3.96607 0.507156 2.60278 1.42795 1.60487C2.35973 0.595163 3.63826 0.0390625 5.02844 0.0390625C6.06747 0.0390625 7.01903 0.367262 7.8566 1.01447C8.2793 1.34116 8.66245 1.74098 9 2.20735C9.33769 1.74098 9.7207 1.34116 10.1435 1.01447C10.9811 0.367262 11.9327 0.0390625 12.9717 0.0390625C14.3617 0.0390625 15.6404 0.595163 16.5722 1.60487C17.493 2.60278 18 3.96607 18 5.44379C18 6.96473 17.4328 8.35697 16.2149 9.82522C15.1253 11.1388 13.5595 12.4721 11.7463 14.0159C11.1267 14.5434 10.4245 15.1413 9.69571 15.7781C9.50331 15.9463 9.25612 16.0391 9 16.0391ZM5.02844 1.09254C3.93626 1.09254 2.93294 1.52803 2.20303 2.3189C1.46228 3.1217 1.05428 4.23143 1.05428 5.44379C1.05428 6.72297 1.53012 7.867 2.59703 9.15318C3.62823 10.3964 5.16206 11.7024 6.938 13.2145L6.9413 13.2173C7.56216 13.7459 8.26598 14.3452 8.99849 14.9852C9.7354 14.344 10.4403 13.7437 11.0624 13.2142C12.8382 11.7021 14.3719 10.3964 15.4031 9.15318C16.4699 7.867 16.9457 6.72297 16.9457 5.44379C16.9457 4.23143 16.5377 3.1217 15.797 2.3189C15.0672 1.52803 14.0637 1.09254 12.9717 1.09254C12.1716 1.09254 11.437 1.34665 10.7884 1.84773C10.2104 2.29447 9.80777 2.85922 9.5717 3.25437C9.4503 3.45758 9.23662 3.57887 9 3.57887C8.76338 3.57887 8.5497 3.45758 8.4283 3.25437C8.19237 2.85922 7.78972 2.29447 7.21156 1.84773C6.56296 1.34665 5.82838 1.09254 5.02844 1.09254Z" fill="#FF004C"/>
<path class="full_heart" d="M16.5721 1.56581C15.6403 0.556101 14.3617 0 12.9717 0C11.9327 0 10.9811 0.328199 10.1434 0.975406C9.7207 1.3021 9.33769 1.70178 9 2.16828C8.66245 1.70192 8.2793 1.3021 7.85646 0.975406C7.01889 0.328199 6.06734 0 5.02831 0C3.63826 0 2.35959 0.556101 1.42781 1.56581C0.507156 2.56372 0 3.92701 0 5.40473C0 6.92567 0.567307 8.31791 1.78528 9.7863C2.87485 11.0998 4.44081 12.4332 6.25424 13.9772C6.87346 14.5044 7.57535 15.1021 8.30415 15.7388C8.49669 15.9072 8.74374 16 9 16C9.25612 16 9.50331 15.9072 9.69557 15.739C10.4244 15.1023 11.1267 14.5043 11.7462 13.9767C13.5593 12.433 15.1253 11.0998 16.2149 9.78616C17.4328 8.31791 18 6.92567 18 5.40459C18 3.92701 17.4928 2.56372 16.5721 1.56581Z" fill="#FF004D"/>
</svg>
