<svg width="14" height="16" viewBox="0 0 14 16" fill="none" xmlns="http://www.w3.org/2000/svg">
<path d="M7.83811 3.48134C9.05526 2.45888 9.86855 0.155408 9.36804 0.0546593C8.70302 -0.0792577 7.25888 0.507951 6.56087 0.61141C5.57086 0.730946 4.4926 -0.462146 3.88735 0.202883C3.39525 0.743596 4.24016 2.71 5.56205 3.56666C1.61826 5.50497 -3.925 15.2355 5.74551 15.9415C19.1263 16.9184 12.4261 5.37019 7.83811 3.48134ZM8.98726 11.1553C8.94611 11.5346 8.74507 11.8777 8.44456 12.1106C8.12725 12.3565 7.72927 12.4709 7.33384 12.5029V12.9221C7.33384 13.0342 7.28486 13.1427 7.2009 13.2169C7.08551 13.319 6.91594 13.3442 6.77588 13.2797C6.6376 13.2161 6.54675 13.0742 6.54675 12.9221V12.4639C6.47895 12.4511 6.41163 12.4357 6.34511 12.4175C5.97555 12.3159 5.63275 12.118 5.38235 11.8252C5.25762 11.6792 5.15593 11.5136 5.0856 11.3348C5.06723 11.2881 5.05085 11.2405 5.03651 11.1924C5.02352 11.1488 5.01012 11.1046 5.00549 11.0592C4.99769 10.983 5.01279 10.9053 5.04829 10.8374C5.12126 10.6979 5.27501 10.6136 5.43201 10.6276C5.58652 10.6413 5.72194 10.7485 5.77059 10.8958C5.78557 10.9412 5.79573 10.9877 5.81256 11.0325C5.82924 11.0771 5.84938 11.1204 5.87307 11.1617C5.91983 11.243 5.97841 11.3179 6.04587 11.3829C6.18495 11.5169 6.36209 11.604 6.54675 11.6558V10.0985C6.18566 10.0051 5.81294 9.88432 5.51476 9.65248C5.36985 9.53976 5.24689 9.39971 5.16636 9.23394C5.08139 9.05898 5.04618 8.86408 5.04475 8.67049C5.04329 8.47392 5.08063 8.27909 5.16263 8.09999C5.23944 7.9323 5.35001 7.78175 5.48558 7.65694C5.77548 7.39012 6.16055 7.2413 6.54679 7.18663V7.15237V6.75152C6.54679 6.63941 6.59577 6.5309 6.67973 6.45666C6.79516 6.35459 6.96466 6.32937 7.10475 6.3939C7.24299 6.45756 7.33388 6.59935 7.33388 6.75152V7.15237V7.18426C7.38534 7.19073 7.43666 7.19849 7.48771 7.20775C7.86699 7.27639 8.23794 7.43301 8.5153 7.70645C8.64669 7.83596 8.75426 7.99028 8.82989 8.15857C8.85101 8.20552 8.8695 8.25356 8.8855 8.30254C8.90041 8.34821 8.91539 8.39524 8.92251 8.4429C8.93388 8.51899 8.92228 8.5976 8.88972 8.66721C8.823 8.80982 8.67339 8.90063 8.51598 8.89389C8.36131 8.88715 8.22119 8.78644 8.1658 8.64187C8.14931 8.59888 8.14107 8.55336 8.12424 8.51048C8.10726 8.46707 8.08527 8.42566 8.05994 8.38654C8.01069 8.31049 7.94688 8.24528 7.87403 8.19155C7.71628 8.07507 7.52495 8.01438 7.33377 7.98046V9.47067C7.56098 9.52508 7.78837 9.58441 8.00606 9.67025C8.33507 9.79999 8.64684 9.99892 8.82643 10.3126C8.79857 10.2637 8.77146 10.2161 8.82737 10.3142C8.88226 10.4106 8.85606 10.3647 8.8285 10.3164C8.97138 10.5682 9.01832 10.8693 8.98726 11.1553Z" fill="#E0B1A3"/>
</svg>
