<svg width="16" height="16" viewBox="0 0 16 16" fill="none" xmlns="http://www.w3.org/2000/svg">
<path d="M7.99996 0.666656C3.94996 0.666656 0.666626 3.94999 0.666626 7.99999C0.666626 12.0502 3.94996 15.3333 7.99996 15.3333C12.0501 15.3333 15.3333 12.0502 15.3333 7.99999C15.3333 3.94999 12.0501 0.666656 7.99996 0.666656ZM7.99996 14C4.68629 14 1.99996 11.3137 1.99996 7.99999C1.99996 4.68632 4.68629 1.99999 7.99996 1.99999C11.3136 1.99999 14 4.68632 14 7.99999C14 11.3137 11.3136 14 7.99996 14Z" fill="#E0B1A3"/>
<path d="M8.66671 7.72384V4.00001C8.66671 3.63184 8.36821 3.33334 8.00004 3.33334C7.63187 3.33334 7.33337 3.63184 7.33337 4.00001V8.00001C7.33337 8.00151 7.33387 8.00301 7.33387 8.00451C7.33404 8.04667 7.33821 8.08884 7.34654 8.13034C7.35054 8.15084 7.35804 8.16934 7.36387 8.18934C7.37037 8.21134 7.37537 8.23367 7.38421 8.25517C7.39387 8.27817 7.40687 8.29917 7.41887 8.32084C7.42787 8.33751 7.43504 8.35417 7.44554 8.37001C7.47004 8.40684 7.49787 8.44134 7.52904 8.47217L9.41421 10.3575C9.67454 10.6178 10.097 10.6178 10.3572 10.3575C10.6175 10.0972 10.6175 9.67467 10.3572 9.41484L8.66671 7.72384Z" fill="#E0B1A3"/>
</svg>
