<svg width="16" height="16" viewBox="0 0 16 16" fill="none" xmlns="http://www.w3.org/2000/svg">
<path d="M11.6576 1.64133L11.4575 1.84181V1.64133H10.4719C10.0274 2.32807 9.0892 2.80277 7.99989 2.80277C6.91098 2.80277 5.97274 2.32807 5.52833 1.64133H4.54265V1.84181L4.34217 1.64133L0.797241 5.18825L2.73631 7.12891L4.54265 5.32177V14.3583H11.4567V5.32217L13.2635 7.12931L15.2021 5.18825L11.6576 1.64133Z" fill="#E0B1A3"/>
<path d="M11.4567 15.1554H4.54259C4.10257 15.1554 3.74544 14.7983 3.74544 14.3583V7.24689L3.29984 7.69249C3.15037 7.84236 2.94749 7.92606 2.73585 7.92606C2.52461 7.92606 2.32133 7.84196 2.17187 7.69249L0.2328 5.75183C-0.0780883 5.44055 -0.0780883 4.93635 0.2328 4.62466L3.77852 1.07774C3.95151 0.904362 4.20141 0.820263 4.44215 0.850554C4.47523 0.846569 4.50871 0.844177 4.54259 0.844177H5.52827C5.7985 0.844177 6.0508 0.981287 6.19748 1.20808C6.51115 1.69274 7.21863 2.00563 7.99983 2.00563C8.78104 2.00563 9.48891 1.69274 9.80259 1.20808C9.94926 0.981287 10.2012 0.844177 10.4718 0.844177H11.4575C11.4914 0.844177 11.5248 0.84617 11.5579 0.850554C11.5906 0.846569 11.6237 0.844177 11.6572 0.844177C11.6576 0.844177 11.6576 0.844177 11.6576 0.844177C11.8688 0.844177 12.0717 0.928277 12.2215 1.07774L15.7665 4.62426C16.0774 4.93555 16.0774 5.43975 15.7665 5.75143L13.8278 7.69249C13.6783 7.84196 13.4755 7.92606 13.2642 7.92606C13.2638 7.92606 13.2638 7.92606 13.2638 7.92606C13.0526 7.92646 12.8497 7.84236 12.7002 7.69289L12.2542 7.24649V14.3583C12.2538 14.7987 11.8971 15.1554 11.4567 15.1554ZM5.33974 13.5611H10.6595V5.32217C10.6595 4.99972 10.8536 4.70916 11.1514 4.5856C11.4495 4.46164 11.7919 4.5302 12.0203 4.75858L13.263 6.00134L14.0753 5.18825L11.5248 2.63617C11.3977 2.64773 11.2725 2.6278 11.1526 2.57838C11.0693 2.5441 10.9939 2.49627 10.9286 2.43848H10.86C10.202 3.16388 9.14733 3.59993 7.99983 3.59993C6.85233 3.59993 5.7981 3.16388 5.13966 2.43848H5.0711C5.00613 2.49627 4.9308 2.5437 4.8475 2.57838C4.72673 2.6282 4.59839 2.64574 4.47444 2.63617L1.92356 5.18865L2.73585 6.00174L3.97821 4.75858C4.2062 4.5302 4.54897 4.46204 4.8471 4.5856C5.14524 4.70916 5.33934 4.99972 5.33934 5.32217V13.5611H5.33974Z" fill="#E0B1A3"/>
</svg>
