<svg width="66" height="66" viewBox="0 0 66 66" fill="none" xmlns="http://www.w3.org/2000/svg">
<path d="M62.5312 0.1875H3.46875C2.59851 0.1875 1.76391 0.533202 1.14856 1.14856C0.533202 1.76391 0.1875 2.59851 0.1875 3.46875V62.5312C0.1875 63.4015 0.533202 64.2361 1.14856 64.8514C1.76391 65.4668 2.59851 65.8125 3.46875 65.8125H62.5312C63.4015 65.8125 64.2361 65.4668 64.8514 64.8514C65.4668 64.2361 65.8125 63.4015 65.8125 62.5312V3.46875C65.8125 2.59851 65.4668 1.76391 64.8514 1.14856C64.2361 0.533202 63.4015 0.1875 62.5312 0.1875ZM55.9688 29.7188C55.9688 29.4287 55.8535 29.1505 55.6484 28.9454C55.4433 28.7402 55.1651 28.625 54.875 28.625C54.5849 28.625 54.3067 28.7402 54.1016 28.9454C53.8965 29.1505 53.7812 29.4287 53.7812 29.7188V30.8125H51.5938V27.5312C51.5929 27.1001 51.6772 26.673 51.8418 26.2745C52.0063 25.8761 52.248 25.514 52.5529 25.2091C52.8577 24.9043 53.2198 24.6626 53.6183 24.498C54.0168 24.3334 54.4439 24.2491 54.875 24.25H58.2656C58.5193 25.4845 59.1909 26.5937 60.1672 27.3907C61.1435 28.1877 62.3647 28.6236 63.625 28.625V43.9375H55.9688V29.7188ZM2.375 3.46875C2.375 3.17867 2.49023 2.90047 2.69535 2.69535C2.90047 2.49023 3.17867 2.375 3.46875 2.375H62.5312C62.8213 2.375 63.0995 2.49023 63.3046 2.69535C63.5098 2.90047 63.625 3.17867 63.625 3.46875V13.3125H2.375V3.46875ZM11.125 24.25C11.5561 24.2491 11.9832 24.3334 12.3817 24.498C12.7802 24.6626 13.1423 24.9043 13.4471 25.2091C13.752 25.514 13.9936 25.8761 14.1582 26.2745C14.3228 26.673 14.4071 27.1001 14.4062 27.5312V30.8125H12.2188V29.7188C12.2188 29.4287 12.1035 29.1505 11.8984 28.9454C11.6933 28.7402 11.4151 28.625 11.125 28.625C10.8349 28.625 10.5567 28.7402 10.3516 28.9454C10.1465 29.1505 10.0312 29.4287 10.0312 29.7188V43.9375H2.375V28.625C3.63528 28.6236 4.85653 28.1877 5.83282 27.3907C6.80911 26.5937 7.48071 25.4845 7.73437 24.25H11.125ZM62.5312 63.625H3.46875C3.17867 63.625 2.90047 63.5098 2.69535 63.3046C2.49023 63.0995 2.375 62.8213 2.375 62.5312V46.125H11.125C11.4151 46.125 11.6933 46.0098 11.8984 45.8046C12.1035 45.5995 12.2188 45.3213 12.2188 45.0312V33H15.5C15.7901 33 16.0683 32.8848 16.2734 32.6796C16.4785 32.4745 16.5938 32.1963 16.5938 31.9062V27.5312C16.5945 26.8129 16.4535 26.1014 16.1789 25.4376C15.9044 24.7738 15.5016 24.1706 14.9936 23.6627C14.4856 23.1547 13.8825 22.7519 13.2187 22.4773C12.5548 22.2027 11.8434 22.0618 11.125 22.0625H6.75C6.45992 22.0625 6.18172 22.1777 5.9766 22.3829C5.77148 22.588 5.65625 22.8662 5.65625 23.1562C5.65625 24.0265 5.31055 24.8611 4.69519 25.4764C4.07984 26.0918 3.24524 26.4375 2.375 26.4375V15.5H63.625V26.4375C62.7548 26.4375 61.9202 26.0918 61.3048 25.4764C60.6895 24.8611 60.3438 24.0265 60.3438 23.1562C60.3438 22.8662 60.2285 22.588 60.0234 22.3829C59.8183 22.1777 59.5401 22.0625 59.25 22.0625H54.875C54.1566 22.0618 53.4452 22.2027 52.7813 22.4773C52.1175 22.7519 51.5144 23.1547 51.0064 23.6627C50.4984 24.1706 50.0956 24.7738 49.8211 25.4376C49.5465 26.1014 49.4055 26.8129 49.4062 27.5312V31.9062C49.4062 32.1963 49.5215 32.4745 49.7266 32.6796C49.9317 32.8848 50.2099 33 50.5 33H53.7812V45.0312C53.7812 45.3213 53.8965 45.5995 54.1016 45.8046C54.3067 46.0098 54.5849 46.125 54.875 46.125H63.625V62.5312C63.625 62.8213 63.5098 63.0995 63.3046 63.3046C63.0995 63.5098 62.8213 63.625 62.5312 63.625Z" fill="#E0B1A3"/>
<path d="M7.84375 4.5625C7.19478 4.5625 6.56039 4.75494 6.02079 5.11549C5.48119 5.47604 5.06062 5.9885 4.81227 6.58807C4.56392 7.18764 4.49894 7.84739 4.62555 8.48389C4.75216 9.12039 5.06467 9.70505 5.52356 10.1639C5.98245 10.6228 6.56711 10.9353 7.20361 11.062C7.84011 11.1886 8.49986 11.1236 9.09943 10.8752C9.699 10.6269 10.2115 10.2063 10.572 9.66671C10.9326 9.12712 11.125 8.49272 11.125 7.84375C11.125 6.97351 10.7793 6.13891 10.1639 5.52356C9.54859 4.9082 8.71399 4.5625 7.84375 4.5625ZM7.84375 8.9375C7.62743 8.9375 7.41596 8.87335 7.2361 8.75317C7.05623 8.63299 6.91604 8.46217 6.83326 8.26231C6.75047 8.06245 6.72881 7.84254 6.77102 7.63037C6.81322 7.4182 6.91739 7.22332 7.07035 7.07035C7.22332 6.91739 7.4182 6.81322 7.63037 6.77102C7.84254 6.72881 8.06245 6.75047 8.26231 6.83326C8.46217 6.91604 8.63299 7.05623 8.75317 7.23609C8.87335 7.41596 8.9375 7.62743 8.9375 7.84375C8.9375 8.13383 8.82227 8.41203 8.61715 8.61715C8.41203 8.82227 8.13383 8.9375 7.84375 8.9375Z" fill="#E0B1A3"/>
<path d="M16.5938 4.5625C15.9448 4.5625 15.3104 4.75494 14.7708 5.11549C14.2312 5.47604 13.8106 5.9885 13.5623 6.58807C13.3139 7.18764 13.2489 7.84739 13.3755 8.48389C13.5022 9.12039 13.8147 9.70505 14.2736 10.1639C14.7324 10.6228 15.3171 10.9353 15.9536 11.062C16.5901 11.1886 17.2499 11.1236 17.8494 10.8752C18.449 10.6269 18.9615 10.2063 19.322 9.66671C19.6826 9.12712 19.875 8.49272 19.875 7.84375C19.875 6.97351 19.5293 6.13891 18.9139 5.52356C18.2986 4.9082 17.464 4.5625 16.5938 4.5625ZM16.5938 8.9375C16.3774 8.9375 16.166 8.87335 15.9861 8.75317C15.8062 8.63299 15.666 8.46217 15.5833 8.26231C15.5005 8.06245 15.4788 7.84254 15.521 7.63037C15.5632 7.4182 15.6674 7.22332 15.8204 7.07035C15.9733 6.91739 16.1682 6.81322 16.3804 6.77102C16.5925 6.72881 16.8125 6.75047 17.0123 6.83326C17.2122 6.91604 17.383 7.05623 17.5032 7.23609C17.6234 7.41596 17.6875 7.62743 17.6875 7.84375C17.6875 8.13383 17.5723 8.41203 17.3671 8.61715C17.162 8.82227 16.8838 8.9375 16.5938 8.9375Z" fill="#E0B1A3"/>
<path d="M25.3438 4.5625C24.6948 4.5625 24.0604 4.75494 23.5208 5.11549C22.9812 5.47604 22.5606 5.9885 22.3123 6.58807C22.0639 7.18764 21.9989 7.84739 22.1255 8.48389C22.2522 9.12039 22.5647 9.70505 23.0236 10.1639C23.4824 10.6228 24.0671 10.9353 24.7036 11.062C25.3401 11.1886 25.9999 11.1236 26.5994 10.8752C27.199 10.6269 27.7115 10.2063 28.072 9.66671C28.4326 9.12712 28.625 8.49272 28.625 7.84375C28.625 6.97351 28.2793 6.13891 27.6639 5.52356C27.0486 4.9082 26.214 4.5625 25.3438 4.5625ZM25.3438 8.9375C25.1274 8.9375 24.916 8.87335 24.7361 8.75317C24.5562 8.63299 24.416 8.46217 24.3333 8.26231C24.2505 8.06245 24.2288 7.84254 24.271 7.63037C24.3132 7.4182 24.4174 7.22332 24.5704 7.07035C24.7233 6.91739 24.9182 6.81322 25.1304 6.77102C25.3425 6.72881 25.5625 6.75047 25.7623 6.83326C25.9622 6.91604 26.133 7.05623 26.2532 7.23609C26.3734 7.41596 26.4375 7.62743 26.4375 7.84375C26.4375 8.13383 26.3223 8.41203 26.1171 8.61715C25.912 8.82227 25.6338 8.9375 25.3438 8.9375Z" fill="#E0B1A3"/>
<path d="M42.8438 33H46.125C46.4151 33 46.6933 32.8848 46.8984 32.6797C47.1035 32.4745 47.2187 32.1963 47.2187 31.9063V27.5313C47.2195 26.8129 47.0785 26.1014 46.8039 25.4376C46.5294 24.7738 46.1266 24.1706 45.6186 23.6627C45.1106 23.1547 44.5075 22.7519 43.8437 22.4773C43.1798 22.2027 42.4684 22.0618 41.75 22.0625H37.375C37.0849 22.0625 36.8067 22.1777 36.6016 22.3829C36.3965 22.588 36.2812 22.8662 36.2812 23.1563C36.2812 24.0265 35.9355 24.8611 35.3202 25.4764C34.7048 26.0918 33.8702 26.4375 33 26.4375C32.1298 26.4375 31.2952 26.0918 30.6798 25.4764C30.0645 24.8611 29.7188 24.0265 29.7188 23.1563C29.7188 22.8662 29.6035 22.588 29.3984 22.3829C29.1933 22.1777 28.9151 22.0625 28.625 22.0625H24.25C23.5316 22.0618 22.8202 22.2027 22.1564 22.4773C21.4925 22.7519 20.8894 23.1547 20.3814 23.6627C19.8734 24.1706 19.4706 24.7738 19.1961 25.4376C18.9215 26.1014 18.7805 26.8129 18.7813 27.5313V31.9063C18.7813 32.1963 18.8965 32.4745 19.1016 32.6797C19.3067 32.8848 19.5849 33 19.875 33H23.1563V45.0313C23.1563 45.3213 23.2715 45.5995 23.4766 45.8047C23.6817 46.0098 23.9599 46.125 24.25 46.125H41.75C42.0401 46.125 42.3183 46.0098 42.5234 45.8047C42.7285 45.5995 42.8438 45.3213 42.8438 45.0313V33ZM40.6562 43.9375H25.3438V29.7188C25.3438 29.4287 25.2285 29.1505 25.0234 28.9454C24.8183 28.7402 24.5401 28.625 24.25 28.625C23.9599 28.625 23.6817 28.7402 23.4766 28.9454C23.2715 29.1505 23.1563 29.4287 23.1563 29.7188V30.8125H20.9688V27.5313C20.9679 27.1001 21.0522 26.673 21.2168 26.2746C21.3814 25.8761 21.623 25.514 21.9279 25.2091C22.2327 24.9043 22.5948 24.6626 22.9933 24.498C23.3918 24.3334 23.8189 24.2491 24.25 24.25H27.6406C27.8917 25.4863 28.5624 26.5977 29.5391 27.396C30.5158 28.1944 31.7385 28.6305 33 28.6305C34.2615 28.6305 35.4842 28.1944 36.4609 27.396C37.4376 26.5977 38.1083 25.4863 38.3594 24.25H41.75C42.1811 24.2491 42.6082 24.3334 43.0067 24.498C43.4052 24.6626 43.7673 24.9043 44.0721 25.2091C44.377 25.514 44.6187 25.8761 44.7832 26.2746C44.9478 26.673 45.0321 27.1001 45.0312 27.5313V30.8125H42.8438V29.7188C42.8438 29.4287 42.7285 29.1505 42.5234 28.9454C42.3183 28.7402 42.0401 28.625 41.75 28.625C41.4599 28.625 41.1817 28.7402 40.9766 28.9454C40.7715 29.1505 40.6562 29.4287 40.6562 29.7188V43.9375Z" fill="#E0B1A3"/>
<path d="M44.6244 48.5553C44.4637 48.4257 44.2697 48.3442 44.0647 48.3202C43.8597 48.2962 43.6521 48.3306 43.4659 48.4196C43.2797 48.5086 43.1224 48.6485 43.0123 48.8231C42.9022 48.9977 42.8438 49.1999 42.8438 49.4063V58.1562C42.8437 58.3619 42.9016 58.5633 43.0109 58.7375C43.1201 58.9117 43.2762 59.0516 43.4613 59.1411C43.6464 59.2306 43.8529 59.2661 44.0573 59.2436C44.2617 59.2211 44.4556 59.1414 44.6167 59.0137L50.0855 54.6825C50.2141 54.5806 50.3181 54.4511 50.3898 54.3035C50.4616 54.156 50.4992 53.9942 50.5 53.8301C50.5007 53.6661 50.4645 53.5039 50.3941 53.3557C50.3237 53.2075 50.2208 53.0771 50.0931 52.9741L44.6244 48.5553ZM45.0312 55.8944V51.6966L47.6563 53.8163L45.0312 55.8944Z" fill="#E0B1A3"/>
<path d="M22.5339 48.4219C22.3477 48.3329 22.1401 48.2984 21.9352 48.3224C21.7302 48.3464 21.5362 48.4279 21.3756 48.5575L15.9069 52.9763C15.7792 53.0793 15.6763 53.2097 15.6059 53.3579C15.5355 53.5061 15.4993 53.6682 15.5 53.8323C15.5007 53.9964 15.5384 54.1582 15.6101 54.3057C15.6819 54.4533 15.7859 54.5828 15.9145 54.6847L21.3833 59.0159C21.5446 59.1437 21.7386 59.2234 21.9432 59.2459C22.1478 59.2683 22.3545 59.2326 22.5397 59.1428C22.7249 59.053 22.8809 58.9128 22.99 58.7383C23.0991 58.5638 23.1567 58.362 23.1562 58.1563V49.4063C23.1557 49.2002 23.0971 48.9985 22.987 48.8243C22.8769 48.6502 22.7198 48.5107 22.5339 48.4219ZM20.9687 55.8944L18.3437 53.8163L20.9687 51.6966V55.8944Z" fill="#E0B1A3"/>
</svg>
