<svg width="70" height="66" viewBox="0 0 70 66" fill="none" xmlns="http://www.w3.org/2000/svg">
<path d="M12.6203 7.32892C12.6203 5.43248 11.078 3.88959 9.18152 3.88959C7.28508 3.88959 5.74219 5.43248 5.74219 7.32892C5.74219 9.22482 7.28508 10.7677 9.18098 10.7677C11.0774 10.7677 12.6203 9.22482 12.6203 7.32892ZM7.79297 7.32892C7.79297 6.56308 8.41568 5.94037 9.18098 5.94037C9.94682 5.94037 10.5695 6.56308 10.5695 7.32892C10.5695 8.09422 9.94682 8.71693 9.18098 8.71693C8.41568 8.71693 7.79297 8.09422 7.79297 7.32892Z" fill="#E0B1A3"/>
<path d="M17.3509 10.7677C19.2473 10.7677 20.7902 9.22482 20.7902 7.32892C20.7902 5.43248 19.2473 3.88959 17.3509 3.88959C15.455 3.88959 13.9121 5.43248 13.9121 7.32892C13.9121 9.22482 15.4545 10.7677 17.3509 10.7677ZM17.3509 5.94037C18.1167 5.94037 18.7395 6.56308 18.7395 7.32892C18.7395 8.09422 18.1167 8.71693 17.3509 8.71693C16.5856 8.71693 15.9629 8.09422 15.9629 7.32892C15.9629 6.56308 16.5856 5.94037 17.3509 5.94037Z" fill="#E0B1A3"/>
<path d="M25.5214 10.7677C27.4173 10.7677 28.9602 9.22482 28.9602 7.32892C28.9602 5.43248 27.4173 3.88959 25.5214 3.88959C23.6249 3.88959 22.082 5.43248 22.082 7.32892C22.082 9.22482 23.6249 10.7677 25.5214 10.7677ZM25.5214 5.94037C26.2867 5.94037 26.9094 6.56308 26.9094 7.32892C26.9094 8.09422 26.2867 8.71693 25.5214 8.71693C24.7555 8.71693 24.1328 8.09422 24.1328 7.32892C24.1328 6.56308 24.7555 5.94037 25.5214 5.94037Z" fill="#E0B1A3"/>
<path d="M36.8691 8.35431H61.8433C62.4094 8.35431 62.8687 7.89502 62.8687 7.32892C62.8687 6.76228 62.4094 6.30353 61.8433 6.30353H36.8691C36.3025 6.30353 35.8438 6.76228 35.8438 7.32892C35.8438 7.89502 36.3025 8.35431 36.8691 8.35431Z" fill="#E0B1A3"/>
<path d="M65.7185 0.1875H4.28154C1.9162 0.1875 0 2.11278 0 4.46904V61.5149C0 63.876 1.92101 65.7965 4.28154 65.7965H65.7185C68.079 65.7965 70 63.876 70 61.5149V4.46904C70 2.11118 68.0822 0.1875 65.7185 0.1875V0.1875ZM65.7185 63.7457H4.28154C3.05161 63.7457 2.05078 62.7449 2.05078 61.5149V14.4698H7.7668C8.33344 14.4698 8.79219 14.0105 8.79219 13.4444C8.79219 12.8778 8.33344 12.419 7.7668 12.419H2.05078V4.46904C2.05078 3.23911 3.05161 2.23828 4.28154 2.23828H65.7185C66.9505 2.23828 67.9492 3.24071 67.9492 4.46904V12.419H11.5949C11.0288 12.419 10.5695 12.8778 10.5695 13.4444C10.5695 14.0105 11.0288 14.4698 11.5949 14.4698H67.9492V61.5149C67.9492 62.7449 66.9484 63.7457 65.7185 63.7457Z" fill="#E0B1A3"/>
<path d="M19.8388 25.6396C20.2661 22.9848 18.21 20.5794 15.5301 20.5794C12.847 20.5794 10.7946 22.988 11.2213 25.6396C10.1046 26.5662 9.31684 27.8228 8.97558 29.2434C8.67224 30.5043 9.3334 31.7936 10.5478 32.3095C13.8537 33.713 17.2065 33.713 20.5123 32.3095C21.7267 31.7936 22.3879 30.5043 22.0845 29.2434C21.7433 27.8228 20.9561 26.5662 19.8388 25.6396ZM15.5301 22.6302C16.8059 22.6302 17.8436 23.6684 17.8436 24.9437C17.8436 26.806 15.7287 27.9083 14.2019 26.8375C12.3519 25.5355 13.2833 22.6302 15.5301 22.6302ZM19.7112 30.4216C16.8978 31.6157 14.1629 31.6157 11.3489 30.4216C11.0659 30.3014 10.9025 30.0007 10.9692 29.723C11.1593 28.9337 11.5471 28.2175 12.0923 27.6322C13.7997 29.8111 17.1782 29.9164 18.9678 27.6322C19.857 28.5865 20.0268 29.5553 20.0909 29.723C20.1577 30.0013 19.9948 30.3014 19.7112 30.4216Z" fill="#E0B1A3"/>
<path d="M57.6684 22.4449H30.386C28.4965 22.4449 26.959 23.9819 26.959 25.8719V28.0712C26.959 29.9607 28.4965 31.4982 30.386 31.4982H57.6684C59.5579 31.4982 61.0954 29.9607 61.0954 28.0712V25.8719C61.0954 23.9819 59.5579 22.4449 57.6684 22.4449ZM59.0446 28.0712C59.0446 28.8301 58.4273 29.4474 57.6684 29.4474H30.386C29.6271 29.4474 29.0098 28.8301 29.0098 28.0712V25.8719C29.0098 25.113 29.6271 24.4957 30.386 24.4957H57.6684C58.4273 24.4957 59.0446 25.113 59.0446 25.8719V28.0712Z" fill="#E0B1A3"/>
<path d="M57.6684 39.3393H30.386C28.4965 39.3393 26.959 40.8768 26.959 42.7663V44.9661C26.959 46.8556 28.4965 48.3931 30.386 48.3931H57.6684C59.5579 48.3931 61.0954 46.8556 61.0954 44.9661V42.7663C61.0954 40.8768 59.5579 39.3393 57.6684 39.3393ZM59.0446 44.9661C59.0446 45.725 58.4273 46.3424 57.6684 46.3424H30.386C29.6271 46.3424 29.0098 45.725 29.0098 44.9661V42.7668C29.0098 42.0079 29.6271 41.3906 30.386 41.3906H57.6684C58.4273 41.3906 59.0446 42.0079 59.0446 42.7668V44.9661Z" fill="#E0B1A3"/>
<path d="M19.1152 41.1214V39.6592C19.1152 38.1051 17.8511 36.8409 16.2975 36.8409H14.7653C13.2112 36.8409 11.9471 38.1051 11.9471 39.6592V41.1214C10.738 41.343 9.81836 42.4048 9.81836 43.6769V48.2938C9.81836 49.7267 10.9837 50.8915 12.416 50.8915H18.6463C20.0787 50.8915 21.244 49.7267 21.244 48.2938V43.6769C21.244 42.4048 20.3249 41.343 19.1152 41.1214ZM13.9979 39.6592C13.9979 39.2357 14.3424 38.8917 14.7653 38.8917H16.2975C16.7205 38.8917 17.0645 39.2362 17.0645 39.6592V41.0792H13.9979V39.6592ZM19.1932 48.2943C19.1932 48.5956 18.9481 48.8412 18.6463 48.8412H12.416C12.1148 48.8412 11.8691 48.5956 11.8691 48.2943V43.6769C11.8691 43.3751 12.1148 43.13 12.416 43.13H18.6463C18.9481 43.13 19.1932 43.3751 19.1932 43.6769V48.2943Z" fill="#E0B1A3"/>
<path d="M42.2715 51.7908H29.8301C28.2466 51.7908 26.959 53.079 26.959 54.6619V58.0831C26.959 59.6666 28.2466 60.9542 29.8301 60.9542H34.1367C34.7028 60.9542 35.1621 60.4954 35.1621 59.9288C35.1621 59.3627 34.7028 58.9034 34.1367 58.9034H29.8301C29.3777 58.9034 29.0098 58.5354 29.0098 58.0831V54.6619C29.0098 54.2096 29.3777 53.8416 29.8301 53.8416H42.2715C42.7238 53.8416 43.0918 54.2096 43.0918 54.6619V58.0831C43.0918 58.5354 42.7238 58.9034 42.2715 58.9034H37.9648C37.3987 58.9034 36.9394 59.3627 36.9394 59.9288C36.9394 60.4954 37.3987 60.9542 37.9648 60.9542H42.2715C43.8544 60.9542 45.1426 59.6666 45.1426 58.0831V54.6619C45.1426 53.079 43.8544 51.7908 42.2715 51.7908Z" fill="#E0B1A3"/>
</svg>
