<svg width="66" height="66" viewBox="0 0 66 66" fill="none" xmlns="http://www.w3.org/2000/svg">
<path d="M64.7188 17.6875H59.25V10.0312C59.2533 8.30224 58.8003 6.60297 57.9368 5.10506C57.0732 3.60715 55.8296 2.36366 54.3317 1.50017C52.8337 0.636683 51.1344 0.183781 49.4054 0.187206C47.6764 0.190632 45.9789 0.650265 44.4844 1.51968C42.9899 0.650265 41.2924 0.190632 39.5634 0.187206C37.8343 0.183781 36.1351 0.636683 34.6371 1.50017C33.1391 2.36366 31.8956 3.60715 31.032 5.10506C30.1684 6.60297 29.7154 8.30224 29.7188 10.0312V17.6875H23.1562C22.8662 17.6875 22.588 17.8027 22.3829 18.0079C22.1777 18.213 22.0625 18.4912 22.0625 18.7812V35.1875H5.65625C4.20638 35.1892 2.81639 35.766 1.79118 36.7912C0.765965 37.8164 0.189237 39.2064 0.1875 40.6563V60.3438C0.189237 61.7936 0.765965 63.1836 1.79118 64.2088C2.81639 65.234 4.20638 65.8108 5.65625 65.8125H60.3438C61.7936 65.8108 63.1836 65.234 64.2088 64.2088C65.234 63.1836 65.8108 61.7936 65.8125 60.3438V18.7812C65.8125 18.4912 65.6973 18.213 65.4921 18.0079C65.287 17.8027 65.0088 17.6875 64.7188 17.6875ZM49.4062 2.375C51.4361 2.37731 53.3822 3.18469 54.8175 4.62002C56.2528 6.05534 57.0602 8.00139 57.0625 10.0312V17.6875H49.4062V10.0312C49.4061 8.71606 49.1416 7.41432 48.6285 6.20336C48.1153 4.9924 47.364 3.89693 46.4192 2.98203C47.3638 2.58035 48.3798 2.37386 49.4062 2.375ZM44.4844 4.17531C45.3403 4.89232 46.0288 5.78822 46.5012 6.79995C46.9736 7.81168 47.2185 8.91465 47.2188 10.0312V17.6875H41.75V10.0312C41.7502 8.91465 41.9952 7.81168 42.4676 6.79995C42.94 5.78822 43.6284 4.89232 44.4844 4.17531ZM31.9062 10.0312C31.9063 8.76696 32.2194 7.52235 32.8177 6.40857C33.416 5.29479 34.2808 4.3465 35.3348 3.64838C36.3889 2.95026 37.5994 2.52403 38.8584 2.40775C40.1173 2.29148 41.3854 2.48877 42.5495 2.98203C41.6047 3.89693 40.8534 4.9924 40.3403 6.20336C39.8272 7.41432 39.5627 8.71606 39.5625 10.0312V17.6875H31.9062V10.0312ZM24.25 19.875H29.7188V23.1563C29.7188 23.4463 29.834 23.7245 30.0391 23.9296C30.2442 24.1348 30.5224 24.25 30.8125 24.25C31.1026 24.25 31.3808 24.1348 31.5859 23.9296C31.791 23.7245 31.9062 23.4463 31.9062 23.1563V19.875H47.2188V23.1563C47.2188 23.4463 47.334 23.7245 47.5391 23.9296C47.7442 24.1348 48.0224 24.25 48.3125 24.25C48.6026 24.25 48.8808 24.1348 49.0859 23.9296C49.291 23.7245 49.4062 23.4463 49.4062 23.1563V19.875H54.875V60.3438C54.879 61.531 55.2733 62.684 55.9972 63.625H47.1903C47.9142 62.684 48.3085 61.531 48.3125 60.3438V40.6563C48.3108 39.2064 47.734 37.8164 46.7088 36.7912C45.6836 35.766 44.2936 35.1892 42.8438 35.1875H24.25V19.875ZM2.375 43.9375H46.125V46.125H2.375V43.9375ZM5.65625 37.375H42.8438C43.714 37.375 44.5486 37.7207 45.1639 38.3361C45.7793 38.9514 46.125 39.786 46.125 40.6563V41.75H2.375V40.6563C2.375 39.786 2.7207 38.9514 3.33606 38.3361C3.95141 37.7207 4.78601 37.375 5.65625 37.375ZM5.65625 63.625C4.78601 63.625 3.95141 63.2793 3.33606 62.664C2.7207 62.0486 2.375 61.214 2.375 60.3438V48.3125H46.125V60.3438C46.125 61.214 45.7793 62.0486 45.1639 62.664C44.5486 63.2793 43.714 63.625 42.8438 63.625H5.65625ZM63.625 60.3438C63.625 61.214 63.2793 62.0486 62.6639 62.664C62.0486 63.2793 61.214 63.625 60.3438 63.625C59.4735 63.625 58.6389 63.2793 58.0236 62.664C57.4082 62.0486 57.0625 61.214 57.0625 60.3438V19.875H63.625V60.3438Z" fill="#E0B1A3"/>
<path d="M39.5626 52.6875C38.5624 52.6889 37.5932 53.0341 36.8173 53.6653C36.1754 53.1444 35.399 52.816 34.5781 52.7182C33.7572 52.6204 32.9254 52.7572 32.1791 53.1127C31.4327 53.4682 30.8024 54.0279 30.3611 54.727C29.9198 55.426 29.6855 56.2358 29.6855 57.0625C29.6855 57.8892 29.9198 58.699 30.3611 59.398C30.8024 60.0971 31.4327 60.6568 32.1791 61.0123C32.9254 61.3678 33.7572 61.5046 34.5781 61.4068C35.399 61.309 36.1754 60.9806 36.8173 60.4597C37.3615 60.9013 38.0037 61.2057 38.69 61.3473C39.3764 61.4889 40.0867 61.4635 40.7611 61.2734C41.4356 61.0832 42.0546 60.7338 42.5659 60.2546C43.0772 59.7754 43.4659 59.1804 43.6993 58.5196C43.9327 57.8588 44.0039 57.1517 43.907 56.4576C43.8102 55.7636 43.548 55.103 43.1426 54.5314C42.7371 53.9598 42.2003 53.494 41.5773 53.1731C40.9544 52.8522 40.2634 52.6857 39.5626 52.6875ZM34.0939 59.25C33.6612 59.25 33.2383 59.1217 32.8786 58.8813C32.5188 58.641 32.2385 58.2993 32.0729 57.8996C31.9073 57.4999 31.864 57.0601 31.9484 56.6357C32.0328 56.2114 32.2412 55.8216 32.5471 55.5157C32.853 55.2098 33.2428 55.0014 33.6671 54.917C34.0914 54.8326 34.5313 54.8759 34.931 55.0415C35.3307 55.2071 35.6723 55.4875 35.9127 55.8472C36.1531 56.2069 36.2814 56.6299 36.2814 57.0625C36.2814 57.6427 36.0509 58.1991 35.6407 58.6093C35.2304 59.0195 34.674 59.25 34.0939 59.25ZM39.5626 59.25C39.0398 59.2514 38.5344 59.0624 38.1407 58.7184C38.3588 58.1936 38.4711 57.6309 38.4711 57.0625C38.4711 56.4942 38.3588 55.9314 38.1407 55.4066C38.5344 55.0626 39.0398 54.8736 39.5626 54.875C40.1428 54.875 40.6992 55.1055 41.1094 55.5157C41.5197 55.9259 41.7501 56.4823 41.7501 57.0625C41.7501 57.6427 41.5197 58.1991 41.1094 58.6093C40.6992 59.0195 40.1428 59.25 39.5626 59.25Z" fill="#E0B1A3"/>
<path d="M23.1562 54.875H7.84375C7.55367 54.875 7.27547 54.9902 7.07035 55.1954C6.86523 55.4005 6.75 55.6787 6.75 55.9688V60.3438C6.75 60.6338 6.86523 60.912 7.07035 61.1171C7.27547 61.3223 7.55367 61.4375 7.84375 61.4375H23.1562C23.4463 61.4375 23.7245 61.3223 23.9296 61.1171C24.1348 60.912 24.25 60.6338 24.25 60.3438V55.9688C24.25 55.6787 24.1348 55.4005 23.9296 55.1954C23.7245 54.9902 23.4463 54.875 23.1562 54.875ZM22.0625 59.25H8.9375V57.0625H22.0625V59.25Z" fill="#E0B1A3"/>
</svg>
