<svg width="70" height="58" viewBox="0 0 70 58" fill="none" xmlns="http://www.w3.org/2000/svg">
<path d="M64.4012 12.0833H54.4565L49.7898 0.416656H20.2102L15.5435 12.0833H14V6.24999H7V12.0833H5.59883C2.51067 12.0833 0 14.594 0 17.6822V51.9448C0 55.054 2.52933 57.5833 5.6385 57.5833H64.3615C67.4707 57.5833 70 55.054 70 51.9448V17.6822C70 14.594 67.4893 12.0833 64.4012 12.0833ZM9.33333 8.58332H11.6667V12.0833H9.33333V8.58332ZM67.6667 51.9448C67.6667 53.7683 66.1838 55.25 64.3615 55.25H5.6385C3.81617 55.25 2.33333 53.7672 2.33333 51.9448V17.6822C2.33333 15.882 3.79867 14.4167 5.59883 14.4167H7H14H17.1232L21.7898 2.74999H48.2102L52.8768 14.4167H64.4012C66.2013 14.4167 67.6667 15.882 67.6667 17.6822V51.9448Z" fill="#E0B1A3"/>
<path d="M35 10.9167C23.4208 10.9167 14 20.3375 14 31.9167C14 43.4958 23.4208 52.9167 35 52.9167C46.5792 52.9167 56 43.4958 56 31.9167C56 20.3375 46.5792 10.9167 35 10.9167ZM35 50.5833C24.7077 50.5833 16.3333 42.209 16.3333 31.9167C16.3333 21.6243 24.7077 13.25 35 13.25C45.2923 13.25 53.6667 21.6243 53.6667 31.9167C53.6667 42.209 45.2923 50.5833 35 50.5833Z" fill="#E0B1A3"/>
<path d="M35 17.9167C27.2802 17.9167 21 24.1968 21 31.9167C21 39.6365 27.2802 45.9167 35 45.9167C42.7198 45.9167 49 39.6365 49 31.9167C49 24.1968 42.7198 17.9167 35 17.9167ZM35 43.5833C28.567 43.5833 23.3333 38.3497 23.3333 31.9167C23.3333 25.4837 28.567 20.25 35 20.25C41.433 20.25 46.6667 25.4837 46.6667 31.9167C46.6667 38.3497 41.433 43.5833 35 43.5833Z" fill="#E0B1A3"/>
<path d="M60.6667 16.75C58.093 16.75 56 18.843 56 21.4167C56 23.9903 58.093 26.0833 60.6667 26.0833C63.2403 26.0833 65.3333 23.9903 65.3333 21.4167C65.3333 18.843 63.2403 16.75 60.6667 16.75ZM60.6667 23.75C59.3798 23.75 58.3333 22.7035 58.3333 21.4167C58.3333 20.1298 59.3798 19.0833 60.6667 19.0833C61.9535 19.0833 63 20.1298 63 21.4167C63 22.7035 61.9535 23.75 60.6667 23.75Z" fill="#E0B1A3"/>
</svg>
