<svg width="45" height="66" viewBox="0 0 45 66" fill="none" xmlns="http://www.w3.org/2000/svg">
<path d="M20 48.3125C22.8998 48.3093 25.68 47.156 27.7305 45.1055C29.781 43.055 30.9343 40.2748 30.9375 37.375V31.9062C30.9375 31.6162 30.8223 31.338 30.6171 31.1329C30.412 30.9277 30.1338 30.8125 29.8438 30.8125C29.5537 30.8125 29.2755 30.9277 29.0704 31.1329C28.8652 31.338 28.75 31.6162 28.75 31.9062V37.375C28.75 39.6956 27.8281 41.9212 26.1872 43.5622C24.5462 45.2031 22.3206 46.125 20 46.125C17.6794 46.125 15.4538 45.2031 13.8128 43.5622C12.1719 41.9212 11.25 39.6956 11.25 37.375V31.9062C11.25 31.6162 11.1348 31.338 10.9296 31.1329C10.7245 30.9277 10.4463 30.8125 10.1562 30.8125C9.86617 30.8125 9.58797 30.9277 9.38285 31.1329C9.17773 31.338 9.0625 31.6162 9.0625 31.9062V37.375C9.06568 40.2748 10.219 43.055 12.2695 45.1055C14.32 47.156 17.1002 48.3093 20 48.3125Z" fill="#E0B1A3"/>
<path d="M42.9688 24.25H26.5625V15.5H30.9375C31.1454 15.5001 31.3491 15.441 31.5246 15.3295C31.7001 15.218 31.8402 15.0589 31.9285 14.8706C32.0167 14.6824 32.0495 14.4728 32.023 14.2666C31.9964 14.0604 31.9117 13.866 31.7786 13.7063L20.8411 0.581255C20.7349 0.463568 20.6051 0.369487 20.4602 0.305094C20.3153 0.2407 20.1585 0.207428 20 0.207428C19.8415 0.207428 19.6847 0.2407 19.5398 0.305094C19.3949 0.369487 19.2651 0.463568 19.1589 0.581255L8.22141 13.7063C8.08834 13.866 8.00356 14.0604 7.97702 14.2666C7.95047 14.4728 7.98326 14.6824 8.07153 14.8706C8.1598 15.0589 8.2999 15.218 8.47542 15.3295C8.65093 15.441 8.85458 15.5001 9.0625 15.5H13.4375V24.25H1.40625C1.11617 24.25 0.83797 24.3652 0.632852 24.5704C0.427734 24.7755 0.3125 25.0537 0.3125 25.3438V60.3438C0.314237 61.7936 0.890965 63.1836 1.91618 64.2088C2.94139 65.234 4.33138 65.8108 5.78125 65.8125H39.6875C40.8478 65.8125 41.9606 65.3516 42.7811 64.5311C43.6016 63.7106 44.0625 62.5978 44.0625 61.4375V25.3438C44.0625 25.0537 43.9473 24.7755 43.7421 24.5704C43.537 24.3652 43.2588 24.25 42.9688 24.25ZM11.3977 13.3125L20 2.98969L28.6023 13.3125H25.4688C25.1787 13.3125 24.9005 13.4277 24.6954 13.6329C24.4902 13.838 24.375 14.1162 24.375 14.4063V30.8125H15.625V14.4063C15.625 14.1162 15.5098 13.838 15.3046 13.6329C15.0995 13.4277 14.8213 13.3125 14.5312 13.3125H11.3977ZM2.5 60.3438V26.4375H13.4375V31.9063C13.4375 32.1963 13.5527 32.4745 13.7579 32.6797C13.963 32.8848 14.2412 33 14.5312 33H25.4688C25.7588 33 26.037 32.8848 26.2421 32.6797C26.4473 32.4745 26.5625 32.1963 26.5625 31.9063V26.4375H35.3125V61.4375C35.317 62.2078 35.527 62.9629 35.9206 63.625H5.78125C4.91101 63.625 4.07641 63.2793 3.46106 62.6639C2.8457 62.0486 2.5 61.214 2.5 60.3438ZM41.875 61.4375C41.875 62.0177 41.6445 62.5741 41.2343 62.9843C40.8241 63.3945 40.2677 63.625 39.6875 63.625C39.1073 63.625 38.5509 63.3945 38.1407 62.9843C37.7305 62.5741 37.5 62.0177 37.5 61.4375V26.4375H41.875V61.4375Z" fill="#E0B1A3"/>
<path d="M32.0312 57.0625H5.78125C5.49117 57.0625 5.21297 57.1777 5.00785 57.3829C4.80273 57.588 4.6875 57.8662 4.6875 58.1562C4.6875 58.4463 4.80273 58.7245 5.00785 58.9296C5.21297 59.1348 5.49117 59.25 5.78125 59.25H32.0312C32.3213 59.25 32.5995 59.1348 32.8046 58.9296C33.0098 58.7245 33.125 58.4463 33.125 58.1562C33.125 57.8662 33.0098 57.588 32.8046 57.3829C32.5995 57.1777 32.3213 57.0625 32.0312 57.0625Z" fill="#E0B1A3"/>
</svg>
