<svg width="18" height="18" viewBox="0 0 18 18" fill="none" xmlns="http://www.w3.org/2000/svg">
<path d="M12 9C12 8.17188 11.707 7.46484 11.1211 6.87891C10.5352 6.29297 9.82812 6 9 6C8.17188 6 7.46484 6.29297 6.87891 6.87891C6.29297 7.46484 6 8.17188 6 9C6 9.82812 6.29297 10.5352 6.87891 11.1211C7.46484 11.707 8.17188 12 9 12C9.82812 12 10.5352 11.707 11.1211 11.1211C11.707 10.5352 12 9.82812 12 9ZM13.6172 9C13.6172 10.2812 13.168 11.3711 12.2695 12.2695C11.3711 13.168 10.2812 13.6172 9 13.6172C7.71875 13.6172 6.62891 13.168 5.73047 12.2695C4.83203 11.3711 4.38281 10.2812 4.38281 9C4.38281 7.71875 4.83203 6.62891 5.73047 5.73047C6.62891 4.83203 7.71875 4.38281 9 4.38281C10.2812 4.38281 11.3711 4.83203 12.2695 5.73047C13.168 6.62891 13.6172 7.71875 13.6172 9ZM14.8828 4.19531C14.8828 4.49219 14.7773 4.74609 14.5664 4.95703C14.3555 5.16797 14.1016 5.27344 13.8047 5.27344C13.5078 5.27344 13.2539 5.16797 13.043 4.95703C12.832 4.74609 12.7266 4.49219 12.7266 4.19531C12.7266 3.89844 12.832 3.64453 13.043 3.43359C13.2539 3.22266 13.5078 3.11719 13.8047 3.11719C14.1016 3.11719 14.3555 3.22266 14.5664 3.43359C14.7773 3.64453 14.8828 3.89844 14.8828 4.19531ZM9 1.61719C8.94531 1.61719 8.64648 1.61523 8.10352 1.61133C7.56055 1.60742 7.14844 1.60742 6.86719 1.61133C6.58594 1.61523 6.20898 1.62695 5.73633 1.64648C5.26367 1.66602 4.86133 1.70508 4.5293 1.76367C4.19727 1.82227 3.91797 1.89453 3.69141 1.98047C3.30078 2.13672 2.95703 2.36328 2.66016 2.66016C2.36328 2.95703 2.13672 3.30078 1.98047 3.69141C1.89453 3.91797 1.82227 4.19727 1.76367 4.5293C1.70508 4.86133 1.66602 5.26367 1.64648 5.73633C1.62695 6.20898 1.61523 6.58594 1.61133 6.86719C1.60742 7.14844 1.60742 7.56055 1.61133 8.10352C1.61523 8.64648 1.61719 8.94531 1.61719 9C1.61719 9.05469 1.61523 9.35352 1.61133 9.89648C1.60742 10.4395 1.60742 10.8516 1.61133 11.1328C1.61523 11.4141 1.62695 11.791 1.64648 12.2637C1.66602 12.7363 1.70508 13.1387 1.76367 13.4707C1.82227 13.8027 1.89453 14.082 1.98047 14.3086C2.13672 14.6992 2.36328 15.043 2.66016 15.3398C2.95703 15.6367 3.30078 15.8633 3.69141 16.0195C3.91797 16.1055 4.19727 16.1777 4.5293 16.2363C4.86133 16.2949 5.26367 16.334 5.73633 16.3535C6.20898 16.373 6.58594 16.3848 6.86719 16.3887C7.14844 16.3926 7.56055 16.3926 8.10352 16.3887C8.64648 16.3848 8.94531 16.3828 9 16.3828C9.05469 16.3828 9.35352 16.3848 9.89648 16.3887C10.4395 16.3926 10.8516 16.3926 11.1328 16.3887C11.4141 16.3848 11.791 16.373 12.2637 16.3535C12.7363 16.334 13.1387 16.2949 13.4707 16.2363C13.8027 16.1777 14.082 16.1055 14.3086 16.0195C14.6992 15.8633 15.043 15.6367 15.3398 15.3398C15.6367 15.043 15.8633 14.6992 16.0195 14.3086C16.1055 14.082 16.1777 13.8027 16.2363 13.4707C16.2949 13.1387 16.334 12.7363 16.3535 12.2637C16.373 11.791 16.3848 11.4141 16.3887 11.1328C16.3926 10.8516 16.3926 10.4395 16.3887 9.89648C16.3848 9.35352 16.3828 9.05469 16.3828 9C16.3828 8.94531 16.3848 8.64648 16.3887 8.10352C16.3926 7.56055 16.3926 7.14844 16.3887 6.86719C16.3848 6.58594 16.373 6.20898 16.3535 5.73633C16.334 5.26367 16.2949 4.86133 16.2363 4.5293C16.1777 4.19727 16.1055 3.91797 16.0195 3.69141C15.8633 3.30078 15.6367 2.95703 15.3398 2.66016C15.043 2.36328 14.6992 2.13672 14.3086 1.98047C14.082 1.89453 13.8027 1.82227 13.4707 1.76367C13.1387 1.70508 12.7363 1.66602 12.2637 1.64648C11.791 1.62695 11.4141 1.61523 11.1328 1.61133C10.8516 1.60742 10.4395 1.60742 9.89648 1.61133C9.35352 1.61523 9.05469 1.61719 9 1.61719ZM18 9C18 10.7891 17.9805 12.0273 17.9414 12.7148C17.8633 14.3398 17.3789 15.5977 16.4883 16.4883C15.5977 17.3789 14.3398 17.8633 12.7148 17.9414C12.0273 17.9805 10.7891 18 9 18C7.21094 18 5.97266 17.9805 5.28516 17.9414C3.66016 17.8633 2.40234 17.3789 1.51172 16.4883C0.621094 15.5977 0.136719 14.3398 0.0585938 12.7148C0.0195312 12.0273 0 10.7891 0 9C0 7.21094 0.0195312 5.97266 0.0585938 5.28516C0.136719 3.66016 0.621094 2.40234 1.51172 1.51172C2.40234 0.621094 3.66016 0.136719 5.28516 0.0585938C5.97266 0.0195312 7.21094 0 9 0C10.7891 0 12.0273 0.0195312 12.7148 0.0585938C14.3398 0.136719 15.5977 0.621094 16.4883 1.51172C17.3789 2.40234 17.8633 3.66016 17.9414 5.28516C17.9805 5.97266 18 7.21094 18 9Z" fill="#8A6155"/>
</svg>
