<svg width="18" height="22" viewBox="0 0 18 22" fill="none" xmlns="http://www.w3.org/2000/svg">
<path d="M12.0348 7.9707C11.7502 7.9707 11.5195 8.20135 11.5195 8.48593V18.2236C11.5195 18.508 11.7502 18.7389 12.0348 18.7389C12.3193 18.7389 12.55 18.508 12.55 18.2236V8.48593C12.55 8.20135 12.3193 7.9707 12.0348 7.9707Z" fill="#E0B1A3"/>
<path d="M5.95468 7.9707C5.6701 7.9707 5.43945 8.20135 5.43945 8.48593V18.2236C5.43945 18.508 5.6701 18.7389 5.95468 18.7389C6.23926 18.7389 6.4699 18.508 6.4699 18.2236V8.48593C6.4699 8.20135 6.23926 7.9707 5.95468 7.9707Z" fill="#E0B1A3"/>
<path d="M1.52386 6.54937V19.2433C1.52386 19.9936 1.79898 20.6982 2.27958 21.2038C2.75797 21.7107 3.42374 21.9985 4.12049 21.9998H13.8686C14.5656 21.9985 15.2313 21.7107 15.7095 21.2038C16.1901 20.6982 16.4653 19.9936 16.4653 19.2433V6.54937C17.4206 6.29578 18.0397 5.37281 17.9119 4.39248C17.7839 3.41236 16.9489 2.67917 15.9603 2.67897H13.3224V2.03495C13.3254 1.49336 13.1113 0.973309 12.7279 0.590718C12.3445 0.208327 11.8236 -0.00460412 11.2821 -0.000176445H6.70706C6.16547 -0.00460412 5.64462 0.208327 5.26122 0.590718C4.87783 0.973309 4.66369 1.49336 4.66671 2.03495V2.67897H2.02881C1.04023 2.67917 0.205215 3.41236 0.0772145 4.39248C-0.0505843 5.37281 0.568486 6.29578 1.52386 6.54937ZM13.8686 20.9693H4.12049C3.23958 20.9693 2.5543 20.2126 2.5543 19.2433V6.59465H15.4348V19.2433C15.4348 20.2126 14.7495 20.9693 13.8686 20.9693ZM5.69715 2.03495C5.69373 1.76667 5.79918 1.50845 5.98957 1.31907C6.17976 1.12969 6.43858 1.02564 6.70706 1.03027H11.2821C11.5505 1.02564 11.8094 1.12969 11.9995 1.31907C12.1899 1.50825 12.2954 1.76667 12.292 2.03495V2.67897H5.69715V2.03495ZM2.02881 3.70941H15.9603C16.4725 3.70941 16.8877 4.12461 16.8877 4.63681C16.8877 5.14901 16.4725 5.56421 15.9603 5.56421H2.02881C1.51661 5.56421 1.10142 5.14901 1.10142 4.63681C1.10142 4.12461 1.51661 3.70941 2.02881 3.70941Z" fill="#E0B1A3"/>
<path d="M8.99568 7.9707C8.71111 7.9707 8.48047 8.20135 8.48047 8.48593V18.2236C8.48047 18.508 8.71111 18.7389 8.99568 18.7389C9.28026 18.7389 9.5109 18.508 9.5109 18.2236V8.48593C9.5109 8.20135 9.28026 7.9707 8.99568 7.9707Z" fill="#E0B1A3"/>
</svg>
