<svg width="18" height="16" viewBox="0 0 18 16" fill="none" xmlns="http://www.w3.org/2000/svg">
<path d="M16.3926 15.0715C16.7973 15.0715 17.1479 14.9379 17.4459 14.6741L12.3462 9.57419C12.2239 9.6618 12.1053 9.747 11.9932 9.82801C11.6116 10.1092 11.3018 10.3286 11.064 10.4858C10.8262 10.6434 10.5098 10.804 10.1148 10.968C9.71958 11.1322 9.35137 11.214 9.0098 11.214H8.9998H8.9898C8.6482 11.214 8.27999 11.1322 7.88479 10.968C7.48959 10.804 7.17318 10.6434 6.9356 10.4858C6.69779 10.3286 6.38821 10.1092 6.00638 9.82801C5.89997 9.75001 5.78196 9.66442 5.65438 9.57281L0.553711 14.6741C0.85172 14.9379 1.20254 15.0715 1.60712 15.0715H16.3926Z" fill="#646262"/>
<path d="M1.01462 6.3628C0.633012 6.10838 0.294611 5.81701 0 5.4888V13.2479L4.49485 8.75301C3.59562 8.12523 2.43702 7.32941 1.01462 6.3628Z" fill="#646262"/>
<path d="M16.9954 6.36279C15.6273 7.28882 14.4645 8.08601 13.5068 8.75481L17.9999 13.2481V5.4888C17.7118 5.8104 17.3771 6.10158 16.9954 6.36279Z" fill="#646262"/>
<path d="M16.393 0.928558H1.60753C1.09171 0.928558 0.695135 1.10274 0.417322 1.45075C0.13928 1.79893 0.000488281 2.23435 0.000488281 2.75655C0.000488281 3.17835 0.184673 3.63538 0.552879 4.12777C0.921085 4.61996 1.31289 5.00657 1.72809 5.28778C1.9557 5.4486 2.64211 5.92579 3.78732 6.7192C4.40553 7.1476 4.94315 7.521 5.40515 7.84323C5.79894 8.11761 6.13855 8.35523 6.41895 8.55242C6.45114 8.575 6.50176 8.61121 6.56895 8.65925C6.64133 8.71124 6.73294 8.77722 6.84594 8.85883C7.06356 9.01621 7.24435 9.14344 7.38833 9.24063C7.53213 9.33785 7.70634 9.44645 7.91072 9.56703C8.11494 9.68746 8.30756 9.77802 8.48834 9.83825C8.66916 9.89844 8.83655 9.92864 8.99054 9.92864H9.00054H9.01054C9.16449 9.92864 9.33191 9.89844 9.51276 9.83825C9.69352 9.77802 9.88597 9.68766 10.0904 9.56703C10.2945 9.44645 10.4685 9.33762 10.6128 9.24063C10.7568 9.14344 10.9375 9.01625 11.1552 8.85883C11.268 8.77722 11.3596 8.71121 11.432 8.65941C11.4992 8.61118 11.5498 8.5752 11.5822 8.55242C11.8006 8.40042 12.141 8.16379 12.5986 7.84601C13.4314 7.26741 14.6578 6.4158 16.2831 5.28778C16.7718 4.94637 17.1802 4.53438 17.5084 4.05238C17.836 3.57038 18.0003 3.06479 18.0003 2.53576C18.0003 2.09377 17.841 1.71556 17.5232 1.40056C17.2051 1.08595 16.8283 0.928558 16.393 0.928558Z" fill="#646262"/>
</svg>
