<svg width="90" height="90" viewBox="0 0 90 90" fill="none" xmlns="http://www.w3.org/2000/svg">
<rect width="90" height="90" fill="#FFE9E0"/>
<path d="M62.0229 54.2835C57.7756 49.8651 57.1365 47.648 57.1365 40.5889C57.1365 33.3294 51.4791 27.4444 44.5 27.4444C37.5209 27.4444 31.8635 33.3294 31.8635 40.5889C31.8635 44.3951 31.7661 45.816 31.2623 47.5604C30.6358 49.7336 29.3496 51.8142 26.9765 54.2835C25.8396 55.4665 26.6449 57.4888 28.2531 57.4888H38.272L38.1811 58.4277C38.1811 62.0575 41.0098 64.9999 44.4994 64.9999C47.9889 64.9999 50.8176 62.0575 50.8176 58.4277L50.7267 57.4888H60.7463C62.3551 57.4888 63.1604 55.4665 62.0229 54.2835ZM44.5006 63.1222C42.0083 63.1222 39.9873 61.0197 39.9873 58.4277L40.0782 57.4888H48.9218L49.0139 58.4277C49.0139 61.0197 46.9929 63.1222 44.5006 63.1222ZM28.2536 55.6111C33.6691 49.9777 33.6691 46.2222 33.6691 40.5889C33.6691 34.3672 38.5182 29.3222 44.5 29.3222C50.4818 29.3222 55.3309 34.3672 55.3315 40.5889C55.3315 46.2222 55.3315 49.9777 60.7469 55.6111H28.2536Z" fill="#E0B1A3" stroke="#E0B1A3" stroke-width="0.3"/>
</svg>
