<svg width="12" height="15" viewBox="0 0 12 15" fill="none" xmlns="http://www.w3.org/2000/svg">
<path d="M0.921417 14.5025C1.036 14.5621 1.16465 14.5894 1.29356 14.5814C1.42247 14.5734 1.54677 14.5305 1.65312 14.4572L10.8615 8.08217C10.9556 8.01698 11.0324 7.92996 11.0856 7.82855C11.1387 7.72715 11.1664 7.61439 11.1664 7.49992C11.1664 7.38545 11.1387 7.27268 11.0856 7.17128C11.0324 7.06988 10.9556 6.98286 10.8615 6.91767L1.65313 0.542668C1.54698 0.468615 1.42253 0.425126 1.29336 0.416942C1.16419 0.408759 1.03525 0.436195 0.920606 0.496259C0.805958 0.556323 0.71 0.64671 0.643194 0.757565C0.576389 0.86842 0.541299 0.995489 0.541752 1.12492L0.54175 13.8749C0.541729 14.0042 0.577098 14.131 0.644024 14.2417C0.710951 14.3523 0.806881 14.4425 0.921417 14.5025ZM1.95842 2.47713L9.21388 7.49992L1.95842 12.5227L1.95842 2.47713Z" fill="#D1D1D1"/>
</svg>
