<svg width="12" height="15" viewBox="0 0 12 15" fill="none" xmlns="http://www.w3.org/2000/svg">
<path d="M11.0786 0.497502C10.964 0.437902 10.8353 0.410633 10.7064 0.418619C10.5775 0.426606 10.4532 0.469547 10.3469 0.542835L1.13854 6.91783C1.04444 6.98302 0.967551 7.07004 0.914443 7.17145C0.861334 7.27285 0.833592 7.38561 0.833592 7.50008C0.833592 7.61455 0.861333 7.72732 0.914443 7.82872C0.967551 7.93012 1.04444 8.01714 1.13854 8.08233L10.3469 14.4573C10.453 14.5314 10.5775 14.5749 10.7066 14.5831C10.8358 14.5912 10.9647 14.5638 11.0794 14.5037C11.194 14.4437 11.29 14.3533 11.3568 14.2424C11.4236 14.1316 11.4587 14.0045 11.4582 13.8751L11.4582 1.12509C11.4583 0.995789 11.4229 0.868951 11.356 0.758323C11.289 0.647695 11.1931 0.557496 11.0786 0.497502ZM10.0416 12.5229L2.78612 7.50008L10.0416 2.47729L10.0416 12.5229Z" fill="#D1D1D1"/>
</svg>
