<svg width="18" height="14" viewBox="0 0 18 14" fill="none" xmlns="http://www.w3.org/2000/svg">
<path d="M9 5.25C7.5087 5.25 6.3 6.42565 6.3 7.875C6.3 9.32487 7.5087 10.5 9 10.5C10.4909 10.5 11.7 9.32487 11.7 7.875C11.7 6.42565 10.4909 5.25 9 5.25ZM16.2 2.625H14.04C13.743 2.625 13.423 2.401 13.3292 2.12695L12.7708 0.497875C12.6767 0.224 12.357 0 12.06 0H5.94C5.643 0 5.32296 0.224 5.22918 0.49805L4.67082 2.12713C4.57668 2.401 4.257 2.625 3.96 2.625H1.8C0.81 2.625 0 3.4125 0 4.375V12.25C0 13.2125 0.81 14 1.8 14H16.2C17.19 14 18 13.2125 18 12.25V4.375C18 3.4125 17.19 2.625 16.2 2.625ZM9 12.25C6.51474 12.25 4.5 10.2912 4.5 7.875C4.5 5.45895 6.51474 3.5 9 3.5C11.4849 3.5 13.5 5.45895 13.5 7.875C13.5 10.2912 11.4849 12.25 9 12.25ZM15.57 5.59877C15.2222 5.59877 14.94 5.32472 14.94 4.98627C14.94 4.64817 15.2222 4.37378 15.57 4.37378C15.9181 4.37378 16.2 4.64817 16.2 4.98627C16.2 5.32472 15.9179 5.59877 15.57 5.59877Z" fill="white"/>
</svg>
