<svg width="53" height="45" viewBox="0 0 53 45" fill="none" xmlns="http://www.w3.org/2000/svg">
<path d="M0 14.1552V37.5401C0 41.1095 2.89878 44.0083 6.46816 44.0083H46.5318C50.1012 44.0083 53 41.1095 53 37.5401V14.1552C53 10.7589 50.2418 8.00074 46.8455 8.00074H38.2357L38.0302 7.10298C37.1973 3.50115 34.0282 0.99176 30.329 0.99176H22.6602C18.9718 0.99176 15.8027 3.50115 14.959 7.10298L14.7535 8.00074H6.15449C2.75816 8.00074 0 10.7697 0 14.1552ZM15.8135 10.6507C16.43 10.6507 16.96 10.2289 17.1006 9.62319L17.5441 7.69788C18.1065 5.30747 20.2049 3.64176 22.6602 3.64176H30.329C32.7843 3.64176 34.8827 5.30747 35.4451 7.69788L35.8886 9.62319C36.0292 10.2181 36.5592 10.6507 37.1757 10.6507H46.8347C48.7708 10.6507 50.3392 12.2191 50.3392 14.1552V37.5401C50.3392 39.6493 48.6302 41.3583 46.521 41.3583H6.46816C4.35898 41.3583 2.65 39.6493 2.65 37.5401V14.1552C2.65 12.2191 4.21837 10.6507 6.15449 10.6507H15.8135Z" fill="#E7E7E7"/>
<path d="M8.96724 18.0815C9.94692 18.0815 10.7411 17.2873 10.7411 16.3076C10.7411 15.3279 9.94692 14.5338 8.96724 14.5338C7.98755 14.5338 7.19336 15.3279 7.19336 16.3076C7.19336 17.2873 7.98755 18.0815 8.96724 18.0815Z" fill="#E7E7E7"/>
<path d="M26.5011 37.2048C32.6339 37.2048 37.6311 32.2076 37.6311 26.0748C37.6311 19.9419 32.6339 14.9448 26.5011 14.9448C20.3682 14.9448 15.3711 19.9311 15.3711 26.0748C15.3711 32.2184 20.3682 37.2048 26.5011 37.2048ZM26.5011 17.5948C31.1737 17.5948 34.9811 21.4021 34.9811 26.0748C34.9811 30.7474 31.1737 34.5548 26.5011 34.5548C21.8284 34.5548 18.0211 30.7474 18.0211 26.0748C18.0211 21.4021 21.8284 17.5948 26.5011 17.5948Z" fill="#E7E7E7"/>
</svg>
