<svg width="40" height="40" viewBox="0 0 40 40" fill="none" xmlns="http://www.w3.org/2000/svg">
<path d="M33.987 13.3667C33.9866 13.3667 33.9861 13.3667 33.9857 13.3667H0.572699C0.256779 13.3664 0.000334457 13.6221 3.26992e-07 13.9381C3.26992e-07 13.9385 3.26992e-07 13.939 3.26992e-07 13.9394V29.9776C-0.000333803 30.2935 0.255442 30.55 0.571362 30.5503C0.57178 30.5503 0.572281 30.5503 0.572699 30.5503H23.2935C23.6098 30.5503 23.8662 30.2939 23.8662 29.9776C23.8662 29.6614 23.6098 29.4049 23.2935 29.4049H1.1454V14.5121H33.413V15.9442C33.4126 16.2601 33.6684 16.5165 33.9843 16.5169C33.9847 16.5169 33.9852 16.5169 33.9857 16.5169C34.3016 16.5172 34.558 16.2614 34.5584 15.9455C34.5584 15.9451 34.5584 15.9446 34.5584 15.9442V13.9394C34.5587 13.6235 34.3029 13.3671 33.987 13.3667Z" fill="#E0B1A3"/>
<path d="M30.1016 10.7076L3.37119 4.6933C3.22284 4.66014 3.06739 4.68704 2.93883 4.76815C2.81044 4.84993 2.71964 4.97915 2.68623 5.12767L1.34971 11.142C1.28105 11.4509 1.47584 11.757 1.78475 11.8256C2.09365 11.8943 2.39971 11.6995 2.46838 11.3906L3.67993 5.93693L29.8503 11.825C29.8917 11.8346 29.9341 11.8393 29.9766 11.839C30.2929 11.8384 30.5488 11.5815 30.5483 11.2653C30.5478 10.9979 30.3624 10.7665 30.1016 10.7076Z" fill="#E0B1A3"/>
<path d="M26.8549 7.39369L10.8167 0.711099C10.5379 0.594905 10.2167 0.714273 10.0816 0.984417L8.74505 3.65745C8.59411 3.93662 8.69802 4.28537 8.97727 4.43631C9.25644 4.58725 9.60519 4.48334 9.75613 4.20409C9.76206 4.19315 9.76766 4.18195 9.77284 4.17059V4.17193L10.8694 1.97737L26.4125 8.45347C26.7052 8.57559 27.0415 8.43743 27.1636 8.14473C27.2857 7.8522 27.1476 7.5159 26.8549 7.39369Z" fill="#E0B1A3"/>
<path d="M27.2614 16.0396H21.9575C21.6412 16.0396 21.3848 16.296 21.3848 16.6122C21.3848 16.9285 21.6412 17.1849 21.9575 17.1849H27.2614C27.5777 17.1849 27.8341 16.9285 27.8341 16.6122C27.8341 16.296 27.5777 16.0396 27.2614 16.0396Z" fill="#E0B1A3"/>
<path d="M16.6112 16.0776C13.3633 16.0776 10.7305 18.7105 10.7305 21.9583C10.7338 25.2047 13.3647 27.8357 16.6112 27.839C19.859 27.839 22.4918 25.2061 22.4918 21.9583C22.4918 18.7105 19.859 16.0776 16.6112 16.0776ZM16.6112 26.7698C13.9538 26.7698 11.7997 24.6157 11.7997 21.9583C11.8026 19.3022 13.9551 17.1498 16.6112 17.1469C19.2685 17.1469 21.4226 19.301 21.4226 21.9583C21.4226 24.6157 19.2685 26.7698 16.6112 26.7698Z" fill="#E0B1A3"/>
<path d="M32.6497 17.949C29.1079 17.949 25.2988 18.7856 25.2988 20.622V36.6602C25.2988 38.4966 29.1079 39.3333 32.6497 39.3333C36.1915 39.3333 40.0005 38.4966 40.0005 36.6602V20.622C40.0005 18.7856 36.1915 17.949 32.6497 17.949ZM38.664 36.6502C38.5631 37.0211 36.559 37.9968 32.6497 37.9968C28.7404 37.9968 26.7363 37.0211 26.6353 36.6602V35.6097C28.0574 36.3261 30.4063 36.6602 32.6497 36.6602C34.893 36.6602 37.2426 36.3228 38.664 35.6091V36.6502ZM38.664 33.9772C38.5631 34.3481 36.559 35.3237 32.6497 35.3237C28.7404 35.3237 26.7363 34.3481 26.6353 33.9872V32.9367C28.0574 33.6531 30.4063 33.9872 32.6497 33.9872C34.893 33.9872 37.2426 33.6497 38.664 32.936V33.9772ZM38.664 31.3041C38.5631 31.675 36.559 32.6507 32.6497 32.6507C28.7404 32.6507 26.7363 31.675 26.6353 31.3142V30.2637C28.0574 30.98 30.4063 31.3142 32.6497 31.3142C34.893 31.3142 37.2426 30.9767 38.664 30.263V31.3041ZM38.664 28.6311C38.5631 29.002 36.559 29.9776 32.6497 29.9776C28.7404 29.9776 26.7363 29.002 26.6353 28.6411V27.5906C28.0574 28.307 30.4063 28.6411 32.6497 28.6411C34.893 28.6411 37.2426 28.3037 38.664 27.59V28.6311ZM38.664 25.9581C38.5631 26.3289 36.559 27.3046 32.6497 27.3046C28.7404 27.3046 26.7363 26.3289 26.6353 25.9681V24.9176C28.0574 25.6306 30.4063 25.9681 32.6497 25.9681C34.893 25.9681 37.2426 25.6306 38.664 24.9169V25.9581ZM38.664 23.285C38.5631 23.6559 36.559 24.6316 32.6497 24.6316C28.7404 24.6316 26.7363 23.6559 26.6353 23.295V22.2445C28.0574 22.9576 30.4063 23.295 32.6497 23.295C34.893 23.295 37.2426 22.9576 38.664 22.2439V23.285ZM32.6497 21.9585C28.7464 21.9585 26.7429 20.9855 26.6353 20.634V20.63C26.7429 20.2578 28.7464 19.2855 32.6497 19.2855C36.5256 19.2855 38.5304 20.2438 38.664 20.622C38.5304 21.0002 36.5256 21.9585 32.6497 21.9585Z" fill="#E0B1A3"/>
<path d="M11.2644 26.731H6.21298L3.81794 24.1115V19.7678L6.46291 17.1849H11.2644C11.5806 17.1849 11.8371 16.9285 11.8371 16.6123C11.8371 16.296 11.5806 16.0396 11.2644 16.0396H6.23036C6.08067 16.0392 5.93674 16.0975 5.8294 16.2019L2.84429 19.1135C2.73277 19.2439 2.67163 19.4098 2.67188 19.5813V24.334C2.67188 24.4769 2.72525 24.6147 2.82157 24.7202L5.5367 27.69C5.64521 27.8088 5.79875 27.8765 5.95971 27.8764H11.2644C11.5806 27.8764 11.8371 27.62 11.8371 27.3037C11.8371 26.9875 11.5807 26.731 11.2644 26.731Z" fill="#E0B1A3"/>
<path d="M16.9444 21.2901H16.2761C16.0683 21.2901 15.942 21.1738 15.942 21.123C15.942 21.0722 16.0683 20.9559 16.2761 20.9559H17.9468C18.3158 20.9559 18.615 20.6567 18.615 20.2877C18.615 19.9186 18.3158 19.6194 17.9468 19.6194H17.2785C17.2785 19.2504 16.9793 18.9512 16.6102 18.9512C16.2412 18.9512 15.942 19.2504 15.942 19.6194V19.6495C15.2008 19.7542 14.6393 20.3719 14.6055 21.1197C14.6533 21.9958 15.3996 22.669 16.2761 22.6266H16.9444C17.1522 22.6266 17.2785 22.7429 17.2785 22.7937C17.2785 22.8444 17.1522 22.9607 16.9444 22.9607H15.2737C14.9047 22.9607 14.6055 23.2599 14.6055 23.629C14.6055 23.998 14.9047 24.2972 15.2737 24.2972H15.942C15.942 24.6663 16.2412 24.9655 16.6102 24.9655C16.9793 24.9655 17.2785 24.6663 17.2785 24.2972V24.2672C18.0197 24.1625 18.5812 23.5448 18.615 22.797C18.5672 21.9208 17.8209 21.2476 16.9444 21.2901Z" fill="#E0B1A3"/>
</svg>
