<svg width="40" height="40" viewBox="0 0 40 40" fill="none" xmlns="http://www.w3.org/2000/svg">
<path d="M34.1943 28.3871C34.1943 27.4265 33.764 26.5723 33.0956 25.9806C33.3801 25.5671 33.5491 25.0671 33.5491 24.5284V24.1832C33.5491 23.9065 33.5046 23.6335 33.4169 23.371L30.6743 15.1419C29.9704 13.031 28.0027 11.6129 25.7782 11.6129H23.6427C24.9608 10.5477 25.8072 8.92 25.8072 7.09677V5.00258C25.8072 2.24387 23.5627 0 20.8046 0H19.1969C16.4382 0 14.1943 2.24387 14.1943 5.00258V7.09677C14.1943 8.92 15.0408 10.5477 16.3588 11.6129H14.2233C11.9988 11.6129 10.0311 13.031 9.32721 15.1419L6.58463 23.3703C6.49689 23.6329 6.45237 23.9065 6.45237 24.1826V24.5277C6.45237 25.0671 6.62076 25.5671 6.90592 25.9806C6.23753 26.5723 5.80721 27.4265 5.80721 28.3871H3.22656V38.7097H13.5491V40H19.3556H20.0008H26.4524V38.7097H36.775V28.3871H34.1943ZM32.904 28.3871H29.033C29.033 27.7452 29.3511 27.1787 29.8337 26.8265C30.182 27 30.5717 27.0968 30.9808 27.0968C31.3853 27.0968 31.7633 26.9942 32.104 26.8271C32.5866 27.1794 32.904 27.7452 32.904 28.3871ZM32.193 23.7794C32.2369 23.9097 32.2588 24.0458 32.2588 24.1826V24.5277C32.2588 24.8348 32.1453 25.1135 31.964 25.3342C31.6485 25.2316 31.3182 25.1613 30.9685 25.1613C30.6233 25.1613 30.2975 25.2303 29.9853 25.331C29.9072 25.2335 29.842 25.1239 29.7937 25.0032L27.3795 18.9677L30.1311 17.5923L32.193 23.7794ZM28.8588 25.9665C28.1808 26.5581 27.7427 27.4187 27.7427 28.3871H26.4524V20.1252L28.5949 25.4826C28.6646 25.6568 28.7569 25.8155 28.8588 25.9665ZM15.4846 5.00194C15.4846 2.95548 17.1498 1.29032 19.1969 1.29032H20.8046C22.8517 1.29032 24.5169 2.95548 24.5169 5.00258V5.25226C24.1666 4.95677 23.8517 4.61355 23.5866 4.21548C23.1737 3.59548 22.4833 3.22581 21.7382 3.22581H18.2627C17.5182 3.22581 16.8272 3.59548 16.393 4.24839C16.1408 4.6271 15.8311 4.96258 15.4846 5.25355V5.00194ZM15.4846 7.09677V6.82C16.2737 6.35484 16.9601 5.72323 17.4898 4.92968C17.662 4.67097 17.9511 4.51613 18.2633 4.51613H21.7388C22.0504 4.51613 22.3401 4.67097 22.535 4.96387C23.044 5.7271 23.7285 6.35548 24.5169 6.82V7.09677C24.5169 9.58645 22.4904 11.6129 20.0008 11.6129C17.5111 11.6129 15.4846 9.58645 15.4846 7.09677ZM22.4227 12.9032C22.0666 13.6529 21.1208 14.1935 20.0008 14.1935C18.8808 14.1935 17.935 13.6529 17.5788 12.9032H20.0008H22.4227ZM7.74269 24.1832C7.74269 24.0458 7.76463 23.9097 7.8085 23.7794L9.87043 17.5923L12.622 18.9684L10.2079 25.0032C10.1595 25.1239 10.0943 25.2342 10.0156 25.3316C9.70398 25.2303 9.37818 25.1613 9.03301 25.1613C8.68334 25.1613 8.35301 25.2316 8.03753 25.3348C7.85624 25.1142 7.74269 24.8355 7.74269 24.5284V24.1832ZM7.89753 26.8271C8.23882 26.9942 8.61624 27.0968 9.02076 27.0968C9.42979 27.0968 9.81947 27 10.1672 26.8265C10.6504 27.1787 10.9685 27.7452 10.9685 28.3871H7.09753C7.09753 27.7452 7.41495 27.1794 7.89753 26.8271ZM13.5491 37.4194H4.51689V29.6774H5.80721V30.9677H7.09753V29.6774H10.9685V30.9677H12.2588V29.6774H13.5491V37.4194ZM13.5491 28.3871H12.2588C12.2588 27.4181 11.8208 26.5581 11.142 25.9665C11.244 25.8155 11.3362 25.6568 11.4066 25.4819L13.5491 20.1245V28.3871ZM19.3556 38.7097H14.8395V37.4194H19.3556V38.7097ZM25.162 38.7097H20.6459V37.4194H25.162V38.7097ZM25.162 36.129H20.6459V29.0323H19.3556V36.129H14.8395V29.6123C16.3098 29.3123 17.4201 28.009 17.4201 26.4516H22.5814C22.5814 28.009 23.6917 29.3123 25.162 29.6123V36.129ZM14.8395 28.2684V26.4516H16.1298C16.1298 27.2916 15.5885 28.0013 14.8395 28.2684ZM25.162 28.2684C24.4124 28.0013 23.8717 27.2916 23.8717 26.4516H25.162V28.2684ZM25.162 16.129V25.1613H14.8395V16.129H13.5491V16.6497L13.1027 17.7652L10.282 16.3548L10.5504 15.5497C11.0788 13.9665 12.555 12.9032 14.2233 12.9032H16.2079C16.5672 14.3735 18.1311 15.4839 20.0008 15.4839C21.8704 15.4839 23.4337 14.3735 23.7937 12.9032H25.7782C27.4466 12.9032 28.9227 13.9665 29.4504 15.5503L29.7188 16.3555L26.8982 17.7658L26.4524 16.6497V16.129H25.162ZM35.4846 37.4194H26.4524V29.6774H27.7427V30.9677H29.033V29.6774H32.904V30.9677H34.1943V29.6774H35.4846V37.4194Z" fill="#E0B1A3"/>
</svg>
