<svg width="28" height="38" viewBox="0 0 28 38" fill="none" xmlns="http://www.w3.org/2000/svg">
<path d="M25.875 5.25H20.25V4.625C20.25 4.45924 20.1842 4.30027 20.0669 4.18306C19.9497 4.06585 19.7908 4 19.625 4H17.0625C17.1045 3.79433 17.1255 3.58492 17.125 3.375C17.125 2.5462 16.7958 1.75134 16.2097 1.16529C15.6237 0.57924 14.8288 0.25 14 0.25C13.1712 0.25 12.3763 0.57924 11.7903 1.16529C11.2042 1.75134 10.875 2.5462 10.875 3.375C10.8745 3.58492 10.8955 3.79433 10.9375 4H8.375C8.20924 4 8.05027 4.06585 7.93306 4.18306C7.81585 4.30027 7.75 4.45924 7.75 4.625V5.25H2.125C1.62772 5.25 1.15081 5.44754 0.799175 5.79917C0.447544 6.15081 0.25 6.62772 0.25 7.125V36.5C0.25 36.8315 0.381696 37.1495 0.616117 37.3839C0.850537 37.6183 1.16848 37.75 1.5 37.75H26.5C26.8315 37.75 27.1495 37.6183 27.3839 37.3839C27.6183 37.1495 27.75 36.8315 27.75 36.5V7.125C27.75 6.62772 27.5525 6.15081 27.2008 5.79917C26.8492 5.44754 26.3723 5.25 25.875 5.25ZM8.375 10.25H19.625C19.7908 10.25 19.9497 10.1842 20.0669 10.0669C20.1842 9.94973 20.25 9.79076 20.25 9.625V9H24V34H4V9H7.75V9.625C7.75 9.79076 7.81585 9.94973 7.93306 10.0669C8.05027 10.1842 8.20924 10.25 8.375 10.25ZM9 5.25H11.8375C11.9473 5.25011 12.0551 5.22131 12.1502 5.16649C12.2453 5.11168 12.3243 5.03279 12.3792 4.93776C12.4342 4.84273 12.4631 4.73491 12.4631 4.62515C12.4631 4.51539 12.4343 4.40756 12.3794 4.3125C12.2129 4.02812 12.1251 3.70454 12.125 3.375C12.125 2.87772 12.3225 2.40081 12.6742 2.04917C13.0258 1.69754 13.5027 1.5 14 1.5C14.4973 1.5 14.9742 1.69754 15.3258 2.04917C15.6775 2.40081 15.875 2.87772 15.875 3.375C15.8749 3.70454 15.7871 4.02812 15.6206 4.3125C15.5657 4.40756 15.5369 4.51539 15.5369 4.62515C15.5369 4.73491 15.5658 4.84273 15.6208 4.93776C15.6757 5.03279 15.7547 5.11168 15.8498 5.16649C15.9449 5.22131 16.0527 5.25011 16.1625 5.25H19V9H9V5.25ZM26.5 36.5H1.5V7.125C1.5 6.95924 1.56585 6.80027 1.68306 6.68306C1.80027 6.56585 1.95924 6.5 2.125 6.5H7.75V7.75H3.375C3.20924 7.75 3.05027 7.81585 2.93306 7.93306C2.81585 8.05027 2.75 8.20924 2.75 8.375V34.625C2.75 34.7908 2.81585 34.9497 2.93306 35.0669C3.05027 35.1842 3.20924 35.25 3.375 35.25H24.625C24.7908 35.25 24.9497 35.1842 25.0669 35.0669C25.1842 34.9497 25.25 34.7908 25.25 34.625V8.375C25.25 8.20924 25.1842 8.05027 25.0669 7.93306C24.9497 7.81585 24.7908 7.75 24.625 7.75H20.25V6.5H25.875C26.0408 6.5 26.1997 6.56585 26.3169 6.68306C26.4342 6.80027 26.5 6.95924 26.5 7.125V36.5Z" fill="#E0B1A3"/>
<path d="M10.25 22.75H17.75C18.2473 22.75 18.7242 22.5525 19.0758 22.2008C19.4275 21.8492 19.625 21.3723 19.625 20.875V14.625C19.625 14.1277 19.4275 13.6508 19.0758 13.2992C18.7242 12.9475 18.2473 12.75 17.75 12.75H10.25C9.75272 12.75 9.27581 12.9475 8.92417 13.2992C8.57254 13.6508 8.375 14.1277 8.375 14.625V20.875C8.375 21.3723 8.57254 21.8492 8.92417 22.2008C9.27581 22.5525 9.75272 22.75 10.25 22.75ZM14.625 14V16.1137L14.2794 15.9406C14.1926 15.8973 14.097 15.8747 14 15.8747C13.903 15.8747 13.8074 15.8973 13.7206 15.9406L13.375 16.1137V14H14.625ZM9.625 14.625C9.625 14.4592 9.69085 14.3003 9.80806 14.1831C9.92527 14.0658 10.0842 14 10.25 14H12.125V17.125C12.125 17.2315 12.1521 17.3363 12.204 17.4294C12.2558 17.5225 12.3306 17.6008 12.4212 17.6568C12.5118 17.7129 12.6153 17.7448 12.7217 17.7497C12.8282 17.7545 12.9341 17.732 13.0294 17.6844L14 17.1988L14.9706 17.6844C15.0659 17.732 15.1718 17.7545 15.2783 17.7497C15.3847 17.7448 15.4882 17.7129 15.5788 17.6568C15.6694 17.6008 15.7442 17.5225 15.796 17.4294C15.8479 17.3363 15.875 17.2315 15.875 17.125V14H17.75C17.9158 14 18.0747 14.0658 18.1919 14.1831C18.3092 14.3003 18.375 14.4592 18.375 14.625V20.875C18.375 21.0408 18.3092 21.1997 18.1919 21.3169C18.0747 21.4342 17.9158 21.5 17.75 21.5H10.25C10.0842 21.5 9.92527 21.4342 9.80806 21.3169C9.69085 21.1997 9.625 21.0408 9.625 20.875V14.625Z" fill="#E0B1A3"/>
<path d="M7.125 25.25C6.95924 25.25 6.80027 25.3158 6.68306 25.4331C6.56585 25.5503 6.5 25.7092 6.5 25.875C6.5 26.0408 6.56585 26.1997 6.68306 26.3169C6.80027 26.4342 6.95924 26.5 7.125 26.5H7.75C7.91576 26.5 8.07473 26.4342 8.19194 26.3169C8.30915 26.1997 8.375 26.0408 8.375 25.875C8.375 25.7092 8.30915 25.5503 8.19194 25.4331C8.07473 25.3158 7.91576 25.25 7.75 25.25H7.125Z" fill="#E0B1A3"/>
<path d="M9.625 25.875C9.625 26.0408 9.69085 26.1997 9.80806 26.3169C9.92527 26.4342 10.0842 26.5 10.25 26.5H20.875C21.0408 26.5 21.1997 26.4342 21.3169 26.3169C21.4342 26.1997 21.5 26.0408 21.5 25.875C21.5 25.7092 21.4342 25.5503 21.3169 25.4331C21.1997 25.3158 21.0408 25.25 20.875 25.25H10.25C10.0842 25.25 9.92527 25.3158 9.80806 25.4331C9.69085 25.5503 9.625 25.7092 9.625 25.875Z" fill="#E0B1A3"/>
<path d="M7.125 29H10.25C10.4158 29 10.5747 28.9342 10.6919 28.8169C10.8092 28.6997 10.875 28.5408 10.875 28.375C10.875 28.2092 10.8092 28.0503 10.6919 27.9331C10.5747 27.8158 10.4158 27.75 10.25 27.75H7.125C6.95924 27.75 6.80027 27.8158 6.68306 27.9331C6.56585 28.0503 6.5 28.2092 6.5 28.375C6.5 28.5408 6.56585 28.6997 6.68306 28.8169C6.80027 28.9342 6.95924 29 7.125 29Z" fill="#E0B1A3"/>
<path d="M20.875 27.75H12.75C12.5842 27.75 12.4253 27.8158 12.3081 27.9331C12.1908 28.0503 12.125 28.2092 12.125 28.375C12.125 28.5408 12.1908 28.6997 12.3081 28.8169C12.4253 28.9342 12.5842 29 12.75 29H20.875C21.0408 29 21.1997 28.9342 21.3169 28.8169C21.4342 28.6997 21.5 28.5408 21.5 28.375C21.5 28.2092 21.4342 28.0503 21.3169 27.9331C21.1997 27.8158 21.0408 27.75 20.875 27.75Z" fill="#E0B1A3"/>
<path d="M20.875 30.25H7.125C6.95924 30.25 6.80027 30.3158 6.68306 30.4331C6.56585 30.5503 6.5 30.7092 6.5 30.875C6.5 31.0408 6.56585 31.1997 6.68306 31.3169C6.80027 31.4342 6.95924 31.5 7.125 31.5H20.875C21.0408 31.5 21.1997 31.4342 21.3169 31.3169C21.4342 31.1997 21.5 31.0408 21.5 30.875C21.5 30.7092 21.4342 30.5503 21.3169 30.4331C21.1997 30.3158 21.0408 30.25 20.875 30.25Z" fill="#E0B1A3"/>
</svg>
