<svg width="38" height="38" viewBox="0 0 38 38" fill="none" xmlns="http://www.w3.org/2000/svg">
<path d="M37.125 31.5H35.875V15.2338C36.2617 14.9451 36.576 14.5704 36.793 14.1393C37.0099 13.7082 37.1236 13.2326 37.125 12.75V5.875C37.1062 5.74351 37.0639 5.61648 37 5.5L33.25 0.5C33.1918 0.422378 33.1163 0.359375 33.0295 0.315983C32.9427 0.272591 32.847 0.25 32.75 0.25H5.25C5.15297 0.25 5.05728 0.272591 4.97049 0.315983C4.88371 0.359375 4.80822 0.422378 4.75 0.5L1 5.5C0.936528 5.61664 0.894208 5.7436 0.875 5.875V12.75C0.876406 13.2326 0.990079 13.7082 1.20703 14.1393C1.42398 14.5704 1.73826 14.9451 2.125 15.2338V31.5H0.875C0.70924 31.5 0.550268 31.5658 0.433058 31.6831C0.315848 31.8003 0.25 31.9592 0.25 32.125V34.625C0.250992 35.4535 0.580551 36.2478 1.16639 36.8336C1.75222 37.4194 2.5465 37.749 3.375 37.75H34.625C35.4535 37.749 36.2478 37.4194 36.8336 36.8336C37.4194 36.2478 37.749 35.4535 37.75 34.625V32.125C37.75 31.9592 37.6842 31.8003 37.5669 31.6831C37.4497 31.5658 37.2908 31.5 37.125 31.5ZM35.875 12.75C35.875 13.2473 35.6775 13.7242 35.3258 14.0758C34.9742 14.4275 34.4973 14.625 34 14.625C33.5027 14.625 33.0258 14.4275 32.6742 14.0758C32.3225 13.7242 32.125 13.2473 32.125 12.75V9.625H35.875V12.75ZM15.875 29H9.625V20.25H15.875V29ZM16.5 19H9C8.83424 19 8.67527 19.0658 8.55806 19.1831C8.44085 19.3003 8.375 19.4592 8.375 19.625V29H5.875V15.25C5.875 15.245 5.875 15.2413 5.875 15.2362C6.11214 15.0567 6.32257 14.8444 6.5 14.6056C6.78744 14.999 7.16365 15.319 7.59805 15.5396C8.03246 15.7602 8.51279 15.8752 9 15.8752C9.48721 15.8752 9.96754 15.7602 10.4019 15.5396C10.8363 15.319 11.2126 14.999 11.5 14.6056C11.7874 14.999 12.1637 15.319 12.5981 15.5396C13.0325 15.7602 13.5128 15.8752 14 15.8752C14.4872 15.8752 14.9675 15.7602 15.4019 15.5396C15.8363 15.319 16.2126 14.999 16.5 14.6056C16.7874 14.999 17.1637 15.319 17.5981 15.5396C18.0325 15.7602 18.5128 15.8752 19 15.8752C19.4872 15.8752 19.9675 15.7602 20.4019 15.5396C20.8364 15.319 21.2126 14.999 21.5 14.6056C21.7874 14.999 22.1636 15.319 22.5981 15.5396C23.0325 15.7602 23.5128 15.8752 24 15.8752C24.4872 15.8752 24.9675 15.7602 25.4019 15.5396C25.8364 15.319 26.2126 14.999 26.5 14.6056C26.7874 14.999 27.1636 15.319 27.5981 15.5396C28.0325 15.7602 28.5128 15.8752 29 15.8752C29.4872 15.8752 29.9675 15.7602 30.4019 15.5396C30.8364 15.319 31.2126 14.999 31.5 14.6056C31.6774 14.8444 31.8879 15.0567 32.125 15.2362C32.125 15.2413 32.125 15.245 32.125 15.25V29H17.125V19.625C17.125 19.4592 17.0592 19.3003 16.9419 19.1831C16.8247 19.0658 16.6658 19 16.5 19ZM2.125 12.75V9.625H5.875V12.75C5.875 13.2473 5.67746 13.7242 5.32583 14.0758C4.97419 14.4275 4.49728 14.625 4 14.625C3.50272 14.625 3.02581 14.4275 2.67417 14.0758C2.32254 13.7242 2.125 13.2473 2.125 12.75ZM35.875 8.375H2.125V6.5H35.875V8.375ZM30.875 12.75C30.875 13.2473 30.6775 13.7242 30.3258 14.0758C29.9742 14.4275 29.4973 14.625 29 14.625C28.5027 14.625 28.0258 14.4275 27.6742 14.0758C27.3225 13.7242 27.125 13.2473 27.125 12.75V9.625H30.875V12.75ZM25.875 12.75C25.875 13.2473 25.6775 13.7242 25.3258 14.0758C24.9742 14.4275 24.4973 14.625 24 14.625C23.5027 14.625 23.0258 14.4275 22.6742 14.0758C22.3225 13.7242 22.125 13.2473 22.125 12.75V9.625H25.875V12.75ZM20.875 12.75C20.875 13.2473 20.6775 13.7242 20.3258 14.0758C19.9742 14.4275 19.4973 14.625 19 14.625C18.5027 14.625 18.0258 14.4275 17.6742 14.0758C17.3225 13.7242 17.125 13.2473 17.125 12.75V9.625H20.875V12.75ZM15.875 12.75C15.875 13.2473 15.6775 13.7242 15.3258 14.0758C14.9742 14.4275 14.4973 14.625 14 14.625C13.5027 14.625 13.0258 14.4275 12.6742 14.0758C12.3225 13.7242 12.125 13.2473 12.125 12.75V9.625H15.875V12.75ZM10.875 12.75C10.875 13.2473 10.6775 13.7242 10.3258 14.0758C9.97419 14.4275 9.49728 14.625 9 14.625C8.50272 14.625 8.02581 14.4275 7.67417 14.0758C7.32254 13.7242 7.125 13.2473 7.125 12.75V9.625H10.875V12.75ZM5.5625 1.5H32.4375L35.25 5.25H2.75L5.5625 1.5ZM3.375 15.8125C3.78741 15.8967 4.21259 15.8967 4.625 15.8125V29.625C4.625 29.7908 4.69085 29.9497 4.80806 30.0669C4.92527 30.1842 5.08424 30.25 5.25 30.25H32.75C32.9158 30.25 33.0747 30.1842 33.1919 30.0669C33.3092 29.9497 33.375 29.7908 33.375 29.625V15.8125C33.7874 15.8967 34.2126 15.8967 34.625 15.8125V31.5H3.375V15.8125ZM15.875 32.75H22.125V33.375C22.125 33.5408 22.0592 33.6997 21.9419 33.8169C21.8247 33.9342 21.6658 34 21.5 34H16.5C16.3342 34 16.1753 33.9342 16.0581 33.8169C15.9408 33.6997 15.875 33.5408 15.875 33.375V32.75ZM36.5 34.625C36.5 35.1223 36.3025 35.5992 35.9508 35.9508C35.5992 36.3025 35.1223 36.5 34.625 36.5H3.375C2.87772 36.5 2.40081 36.3025 2.04917 35.9508C1.69754 35.5992 1.5 35.1223 1.5 34.625V32.75H14.625V33.375C14.625 33.8723 14.8225 34.3492 15.1742 34.7008C15.5258 35.0525 16.0027 35.25 16.5 35.25H21.5C21.9973 35.25 22.4742 35.0525 22.8258 34.7008C23.1775 34.3492 23.375 33.8723 23.375 33.375V32.75H36.5V34.625Z" fill="#E0B1A3"/>
<path d="M20.875 26.5H28.375C28.5408 26.5 28.6997 26.4342 28.8169 26.3169C28.9342 26.1997 29 26.0408 29 25.875V20.875C29 20.7092 28.9342 20.5503 28.8169 20.4331C28.6997 20.3158 28.5408 20.25 28.375 20.25H20.875C20.7092 20.25 20.5503 20.3158 20.4331 20.4331C20.3158 20.5503 20.25 20.7092 20.25 20.875V25.875C20.25 26.0408 20.3158 26.1997 20.4331 26.3169C20.5503 26.4342 20.7092 26.5 20.875 26.5ZM21.5 21.5H27.75V25.25H21.5V21.5Z" fill="#E0B1A3"/>
</svg>
