<svg width="40" height="40" viewBox="0 0 40 40" fill="none" xmlns="http://www.w3.org/2000/svg">
<path d="M16.1287 9.01542C14.8766 8.96363 13.609 8.88542 12.3613 8.78323C12.0343 8.75667 11.7476 8.9998 11.7208 9.32683C11.694 9.65378 11.9373 9.94058 12.2644 9.96738C12.712 10.004 13.1625 10.0365 13.6136 10.0669V14.6475C13.6137 14.9756 13.8797 15.2416 14.2077 15.2416C14.5358 15.2416 14.8018 14.9756 14.8018 14.6475V10.1398C15.2286 10.1632 15.6551 10.185 16.0798 10.2025C16.088 10.2028 16.0964 10.203 16.1047 10.203C16.4214 10.203 16.6845 9.95292 16.6978 9.63347C16.7113 9.30581 16.4566 9.02902 16.1287 9.01542Z" fill="#E0B1A3"/>
<path d="M33.2285 8.75789C33.1845 8.43274 32.885 8.20461 32.5601 8.24891C31.3175 8.41719 30.0544 8.56242 28.8058 8.68032C28.4792 8.71117 28.2395 9.00102 28.2702 9.32758C28.2993 9.63524 28.5581 9.86578 28.8609 9.86578C28.8796 9.86578 28.8986 9.86492 28.9176 9.86313C29.33 9.82414 29.7441 9.78125 30.1583 9.73649V14.21C30.1582 14.5381 30.4241 14.8041 30.7523 14.8041C31.0804 14.8041 31.3463 14.5381 31.3463 14.2101V9.60071C31.8055 9.54531 32.2641 9.48789 32.7195 9.42617C33.0446 9.38219 33.2725 9.08297 33.2285 8.75789Z" fill="#E0B1A3"/>
<path d="M26.902 10.9688V10.793C26.902 10.2807 26.7014 9.80835 26.3371 9.4628C25.9691 9.11366 25.4812 8.93569 24.9601 8.96413C24.4666 8.9903 23.9673 9.01273 23.4763 9.03109C23.157 9.04288 22.9043 9.30523 22.9043 9.62476V12.4302V14.761C22.9043 15.0891 23.1702 15.3551 23.4984 15.3551C23.8265 15.3551 24.0924 15.0891 24.0924 14.761V13.0033C24.5276 13.0071 24.9286 13.1652 25.2298 13.4541C25.5419 13.7534 25.7138 14.1656 25.7138 14.6145C25.7138 14.9426 25.9798 15.2086 26.3079 15.2086C26.636 15.2086 26.902 14.9426 26.902 14.6145C26.902 13.8388 26.6001 13.1222 26.0521 12.5966C26.0512 12.5958 26.0502 12.595 26.0493 12.5941C26.5623 12.2294 26.902 11.6294 26.902 10.9688ZM25.7139 10.9689C25.7139 11.3813 25.3688 11.748 24.9602 11.7695H24.9601C24.6729 11.7848 24.3827 11.7988 24.0924 11.8115V10.1953C24.4025 10.1819 24.7139 10.1669 25.023 10.1505C25.2128 10.1401 25.3903 10.2023 25.5195 10.3249C25.6448 10.4438 25.7139 10.6101 25.7139 10.793V10.9689Z" fill="#E0B1A3"/>
<path d="M19.4838 9.09424C18.9536 9.09361 18.46 9.2933 18.0888 9.66244C17.7217 10.0276 17.5195 10.5149 17.5195 11.0346V14.807C17.5195 15.135 17.7855 15.401 18.1136 15.401C18.4416 15.401 18.7077 15.135 18.7077 14.807V13.0332C19.1388 13.0391 19.571 13.0431 20.0027 13.0431C20.0866 13.0431 20.1699 13.0423 20.2538 13.0421V14.8222C20.2538 15.1503 20.5198 15.4163 20.8479 15.4163C21.176 15.4163 21.442 15.1503 21.442 14.8222V11.0498C21.4419 9.9776 20.5636 9.10041 19.4838 9.09424ZM20.2538 11.8545C19.7392 11.8558 19.2225 11.853 18.7077 11.8459V11.0346C18.7077 10.8335 18.7855 10.6453 18.9267 10.5048C19.072 10.3603 19.2663 10.2842 19.4773 10.2824C19.9054 10.2848 20.2538 10.629 20.2538 11.0497V11.8545H20.2538Z" fill="#E0B1A3"/>
<path d="M8.86875 10.9995L8.71062 10.9805C8.30742 10.9316 7.95375 10.5303 7.95375 10.1218C7.95367 9.95234 8.01187 9.81133 8.12203 9.71375C8.23469 9.61398 8.39281 9.57054 8.56726 9.59179C9.04703 9.65008 9.53453 9.70554 10.0166 9.75664C10.343 9.79109 10.6353 9.55476 10.6698 9.22844C10.7044 8.90219 10.4679 8.60969 10.1416 8.57515C9.66578 8.52476 9.1843 8.47008 8.71055 8.41242C8.19344 8.34961 7.70484 8.49617 7.33414 8.82461C6.9675 9.14953 6.76562 9.61015 6.76562 10.1219C6.76562 11.1423 7.55719 12.0375 8.56758 12.1601L8.72719 12.1793C9.13805 12.2287 9.48515 12.6128 9.48515 13.0181C9.48515 13.1905 9.42203 13.3415 9.30734 13.4431C9.19383 13.5438 9.03812 13.5881 8.86875 13.5677C8.3943 13.5109 7.91336 13.4494 7.43945 13.3853C7.11406 13.3413 6.81508 13.5692 6.77109 13.8943C6.72703 14.2194 6.95492 14.5187 7.28008 14.5627C7.76 14.6276 8.24695 14.6898 8.72726 14.7473C8.80312 14.7565 8.87836 14.7609 8.95281 14.7609C9.38023 14.7609 9.77969 14.6123 10.0959 14.3319C10.4628 14.0063 10.6734 13.5274 10.6734 13.018C10.6734 12.0077 9.8807 11.1211 8.86875 10.9995Z" fill="#E0B1A3"/>
<path d="M39.7952 4.08247C39.6652 3.96958 39.4925 3.91856 39.3222 3.94301C28.3527 5.50418 17.201 5.72958 6.17727 4.61262C5.85102 4.57926 5.55945 4.81739 5.52633 5.14379C5.4932 5.4702 5.73109 5.76161 6.0575 5.79473C16.9502 6.8984 27.9655 6.70286 38.8119 5.21403V16.6384C26.3257 18.3678 13.6744 18.3678 1.18813 16.6384V5.21403C2.10258 5.3395 3.02437 5.45661 3.93703 5.5634C4.26367 5.602 4.55805 5.36825 4.59602 5.04239C4.63414 4.71653 4.40086 4.42145 4.075 4.3834C2.94617 4.25145 1.80313 4.10333 0.677734 3.94309C0.506953 3.91879 0.334688 3.96973 0.204687 4.08254C0.0746875 4.19528 0 4.35903 0 4.53114V17.1549C0 17.4507 0.217578 17.7014 0.510312 17.743C0.946797 17.8051 1.38352 17.8647 1.82039 17.9226V35.4689C1.82039 35.7969 2.08641 36.0629 2.41445 36.0629H4.79227C5.12031 36.0629 5.38633 35.7969 5.38633 35.4689V18.3489C10.2448 18.8652 15.1223 19.1235 19.9999 19.1235C24.8775 19.1235 29.7549 18.8653 34.6132 18.3489V23.6294C34.6132 23.9575 34.8791 24.2235 35.2073 24.2235C35.5354 24.2235 35.8013 23.9575 35.8013 23.6294V18.2173C36.198 18.1717 36.5946 18.1243 36.9911 18.0751V34.8748H35.8013V25.6096C35.8013 25.2816 35.5354 25.0156 35.2073 25.0156C34.8791 25.0156 34.6132 25.2816 34.6132 25.6096V35.4689C34.6132 35.7969 34.8791 36.0629 35.2073 36.0629H37.5852C37.9133 36.0629 38.1792 35.7969 38.1792 35.4689V17.9228C38.6162 17.8649 39.053 17.8052 39.4895 17.7431C39.7823 17.7014 39.9998 17.4507 39.9998 17.155V4.53114C40 4.35903 39.9253 4.19528 39.7952 4.08247ZM4.19828 34.8748H3.00859V18.075C3.405 18.1242 3.80156 18.1716 4.19828 18.2172V34.8748Z" fill="#E0B1A3"/>
</svg>
