<svg width="34" height="40" viewBox="0 0 34 40" fill="none" xmlns="http://www.w3.org/2000/svg">
<path d="M22.7041 4.94272C22.3021 2.12506 19.8495 0 16.9995 0C15.1666 0 13.4259 0.884466 12.3436 2.36679C12.1225 2.66909 12.1887 3.09315 12.491 3.31422C12.7923 3.53449 13.2173 3.46914 13.438 3.16644C14.2664 2.0329 15.5976 1.356 16.9993 1.356C19.179 1.356 21.0542 2.98033 21.3616 5.134C21.4101 5.47225 21.7003 5.71636 22.0322 5.71636C22.0638 5.71636 22.0963 5.71397 22.1287 5.7096C22.4994 5.65657 22.757 5.31315 22.7041 4.94272Z" fill="#E0B1A3"/>
<path d="M32.496 12.5322L30.4621 9.14235C30.3398 8.93797 30.1191 8.81323 29.8808 8.81323H27.9317C27.5575 8.81323 27.2538 9.11693 27.2538 9.49113C27.2538 9.86534 27.5575 10.169 27.9317 10.169H29.497L30.7174 12.2029H3.28145L4.50178 10.169H5.2198C5.59401 10.169 5.8977 9.86534 5.8977 9.49113C5.8977 9.11693 5.59401 8.81323 5.2198 8.81323H4.11804C3.8797 8.81323 3.65903 8.93797 3.53668 9.14235L1.50278 12.5322C1.37705 12.742 1.37407 13.0028 1.49424 13.2153C1.61441 13.4278 1.83965 13.5593 2.08415 13.5593H31.9147C32.1592 13.5593 32.3842 13.4278 32.5046 13.2153C32.6249 13.0028 32.6218 12.7416 32.496 12.5322Z" fill="#E0B1A3"/>
<path d="M29.1171 6.28101C29.0222 6.12787 28.8707 6.01922 28.6955 5.97831L19.4534 3.8167C19.2784 3.77558 19.0941 3.80617 18.9411 3.90071C18.7886 3.99566 18.6797 4.1472 18.6388 4.32239L17.9418 7.30173C17.8564 7.6662 18.0829 8.03087 18.4475 8.11588C18.812 8.20129 19.1771 7.97486 19.2621 7.61019L19.8047 5.29127L27.7264 7.14422L26.4816 12.4663C26.3962 12.8308 26.6226 13.1955 26.9873 13.2805C27.0396 13.2926 27.0914 13.2983 27.1426 13.2983C27.4505 13.2983 27.7292 13.0874 27.8017 12.775L29.201 6.79286C29.2423 6.61787 29.2121 6.43355 29.1171 6.28101Z" fill="#E0B1A3"/>
<path d="M17.3591 7.88361L16.7413 2.65884C16.7203 2.48028 16.6291 2.31721 16.4877 2.20599C16.3463 2.09476 16.1677 2.04391 15.9884 2.06496L4.64901 3.40527C4.27738 3.44936 4.01163 3.78623 4.05552 4.15825L5.08538 12.8724C5.1263 13.2174 5.41887 13.4711 5.75792 13.4711C5.78433 13.4711 5.81154 13.4693 5.83856 13.4663C6.20998 13.4222 6.47574 13.0853 6.43204 12.7133L5.48163 4.67188L15.4745 3.49087L16.0124 8.04231C16.0565 8.41413 16.3918 8.6783 16.7654 8.63619C17.137 8.59249 17.4028 8.25543 17.3591 7.88361Z" fill="#E0B1A3"/>
<path d="M22.7199 12.6237L21.3743 7.0277C21.3321 6.85311 21.2223 6.70196 21.0692 6.60801C20.916 6.51486 20.7323 6.48566 20.5565 6.52737L9.63486 9.15396C9.27078 9.24135 9.04674 9.60761 9.13413 9.97168L9.80667 12.7687C9.89406 13.1332 10.2603 13.3574 10.6242 13.2694C10.9883 13.182 11.2123 12.8158 11.1249 12.4517L10.6107 10.3137L20.2141 8.00453L21.4013 12.9411C21.4758 13.2519 21.7538 13.4605 22.0599 13.4605C22.1125 13.4605 22.1658 13.4543 22.2192 13.4414C22.5833 13.3538 22.8073 12.9878 22.7199 12.6237Z" fill="#E0B1A3"/>
<path d="M32.5909 12.8468C32.5722 12.4865 32.2746 12.2036 31.9136 12.2036H2.08302C1.72192 12.2036 1.42439 12.4863 1.40572 12.8468L0.0497212 39.2874C0.0401873 39.4729 0.107322 39.6544 0.235235 39.7891C0.363346 39.9236 0.540915 40 0.726825 40H33.2691C33.4549 40 33.6326 39.9238 33.7613 39.7891C33.889 39.6544 33.9562 39.4731 33.9468 39.2874L32.5909 12.8468ZM1.44028 38.644L2.72676 13.5594H31.269L32.5555 38.644H1.44028Z" fill="#E0B1A3"/>
<path d="M22.0847 14.915C20.9631 14.915 20.0508 15.8273 20.0508 16.9489C20.0508 18.0706 20.9631 18.9828 22.0847 18.9828C23.2063 18.9828 24.1186 18.0706 24.1186 16.9489C24.1186 15.8273 23.2063 14.915 22.0847 14.915ZM22.0847 17.627C21.7107 17.627 21.4068 17.3229 21.4068 16.9491C21.4068 16.5753 21.7109 16.2712 22.0847 16.2712C22.4585 16.2712 22.7626 16.5753 22.7626 16.9491C22.7626 17.3229 22.4585 17.627 22.0847 17.627Z" fill="#E0B1A3"/>
<path d="M11.9148 14.915C10.7931 14.915 9.88086 15.8273 9.88086 16.9489C9.88086 18.0706 10.7931 18.9828 11.9148 18.9828C13.0364 18.9828 13.9486 18.0706 13.9486 16.9489C13.9486 15.8273 13.0364 14.915 11.9148 14.915ZM11.9148 17.627C11.5409 17.627 11.2369 17.3229 11.2369 16.9491C11.2369 16.5753 11.5409 16.2712 11.9148 16.2712C12.2886 16.2712 12.5927 16.5753 12.5927 16.9491C12.5927 17.3229 12.2886 17.627 11.9148 17.627Z" fill="#E0B1A3"/>
<path d="M22.0837 16.949H22.0315C21.6573 16.949 21.3536 17.2527 21.3536 17.6269C21.3536 17.7194 21.3718 17.8078 21.4058 17.8883V21.3556C21.4058 23.7854 19.4289 25.7624 16.999 25.7624C14.569 25.7624 12.5921 23.7856 12.5921 21.3556V17.6271C12.5921 17.2529 12.2884 16.9492 11.9142 16.9492C11.54 16.9492 11.2363 17.2529 11.2363 17.6271V21.3558C11.2363 24.5334 13.8214 27.1184 16.999 27.1184C20.1765 27.1184 22.7616 24.5334 22.7616 21.3558V17.6271C22.7616 17.2529 22.4579 16.949 22.0837 16.949Z" fill="#E0B1A3"/>
</svg>
