<svg width="23" height="23" viewBox="0 0 23 23" fill="none" xmlns="http://www.w3.org/2000/svg">
<path d="M21.645 16.0062C19.186 13.4482 18.816 12.1647 18.816 8.07778C18.816 3.87491 15.5407 0.46785 11.5002 0.46785C7.45962 0.46785 4.1843 3.87495 4.1843 8.07778C4.1843 10.2814 4.12787 11.104 3.8362 12.1139C3.47348 13.3721 2.72886 14.5767 1.35496 16.0062C0.696773 16.6911 1.163 17.862 2.09403 17.862H7.89449L7.84186 18.4055C7.84186 20.507 9.47954 22.2105 11.4998 22.2105C13.52 22.2105 15.1577 20.507 15.1577 18.4055L15.1051 17.862H20.9059C21.8373 17.862 22.3035 16.6911 21.645 16.0062ZM11.5005 21.1234C10.0576 21.1234 8.88755 19.9062 8.88755 18.4055L8.94018 17.862H14.0602L14.1135 18.4055C14.1134 19.9062 12.9434 21.1234 11.5005 21.1234ZM2.09436 16.7748C5.22962 13.5134 5.22962 11.3392 5.22962 8.07778C5.22962 4.47576 8.037 1.55498 11.5002 1.55498C14.9633 1.55498 17.7707 4.47576 17.771 8.07778C17.771 11.3392 17.771 13.5134 20.9063 16.7748H2.09436Z" fill="#E0B1A3" stroke="#E0B1A3" stroke-width="0.3"/>
</svg>
