<svg width="20" height="20" viewBox="0 0 20 20" fill="none" xmlns="http://www.w3.org/2000/svg">
<path d="M19.2949 18.2109L14.6934 13.6094C15.834 12.2188 16.5215 10.4375 16.5215 8.49609C16.5215 4.04297 12.9082 0.429688 8.45508 0.429688C3.99805 0.429688 0.388672 4.04297 0.388672 8.49609C0.388672 12.9492 3.99805 16.5625 8.45508 16.5625C10.3965 16.5625 12.1738 15.8789 13.5645 14.7383L18.166 19.3359C18.4785 19.6484 18.9824 19.6484 19.2949 19.3359C19.6074 19.0273 19.6074 18.5195 19.2949 18.2109ZM8.45508 14.957C4.88867 14.957 1.99023 12.0586 1.99023 8.49609C1.99023 4.93359 4.88867 2.03125 8.45508 2.03125C12.0176 2.03125 14.9199 4.93359 14.9199 8.49609C14.9199 12.0586 12.0176 14.957 8.45508 14.957Z" fill="#646262"/>
</svg>
