<svg width="8" height="6" viewBox="0 0 8 6" fill="none" xmlns="http://www.w3.org/2000/svg">
<path d="M1.41336 1.19334L4.00002 3.78L6.58669 1.19334C6.64841 1.13162 6.72169 1.08266 6.80233 1.04925C6.88297 1.01585 6.9694 0.998657 7.05669 0.998657C7.14398 0.998657 7.23041 1.01585 7.31105 1.04925C7.3917 1.08266 7.46497 1.13162 7.52669 1.19334C7.58841 1.25506 7.63737 1.32833 7.67078 1.40898C7.70418 1.48962 7.72137 1.57605 7.72137 1.66334C7.72137 1.75062 7.70418 1.83706 7.67078 1.9177C7.63737 1.99834 7.58841 2.07162 7.52669 2.13334L4.46669 5.19334C4.40502 5.25514 4.33176 5.30417 4.25111 5.33763C4.17046 5.37108 4.084 5.3883 3.99669 5.3883C3.90938 5.3883 3.82292 5.37108 3.74227 5.33763C3.66163 5.30417 3.58837 5.25514 3.52669 5.19334L0.466691 2.13334C0.404889 2.07166 0.355857 1.9984 0.322403 1.91775C0.288948 1.8371 0.271729 1.75065 0.271729 1.66334C0.271729 1.57603 0.288948 1.48957 0.322403 1.40892C0.355857 1.32827 0.404889 1.25501 0.466691 1.19334C0.726691 0.940004 1.15336 0.933338 1.41336 1.19334Z" fill="#E0B1A3"/>
</svg>
