<svg width="8" height="6" viewBox="0 0 8 6" fill="none" xmlns="http://www.w3.org/2000/svg">
<path d="M1.41336 1.19333L4.00002 3.78L6.58669 1.19333C6.64841 1.13161 6.72169 1.08265 6.80233 1.04925C6.88297 1.01584 6.9694 0.998651 7.05669 0.998651C7.14398 0.998651 7.23041 1.01584 7.31105 1.04925C7.3917 1.08265 7.46497 1.13161 7.52669 1.19333C7.58841 1.25505 7.63737 1.32833 7.67078 1.40897C7.70418 1.48961 7.72137 1.57604 7.72137 1.66333C7.72137 1.75062 7.70418 1.83705 7.67078 1.91769C7.63737 1.99834 7.58841 2.07161 7.52669 2.13333L4.46669 5.19333C4.40502 5.25513 4.33176 5.30417 4.25111 5.33762C4.17046 5.37107 4.084 5.38829 3.99669 5.38829C3.90938 5.38829 3.82292 5.37107 3.74227 5.33762C3.66163 5.30417 3.58837 5.25513 3.52669 5.19333L0.466691 2.13333C0.404889 2.07166 0.355857 1.9984 0.322403 1.91775C0.288948 1.8371 0.271729 1.75064 0.271729 1.66333C0.271729 1.57602 0.288948 1.48956 0.322403 1.40891C0.355857 1.32827 0.404889 1.25501 0.466691 1.19333C0.726691 0.939998 1.15336 0.933331 1.41336 1.19333Z" fill="#646262"/>
</svg>
