<svg width="8" height="6" viewBox="0 0 8 6" fill="none" xmlns="http://www.w3.org/2000/svg">
<path d="M1.41311 1.19334L3.99978 3.78L6.58645 1.19334C6.64817 1.13162 6.72144 1.08266 6.80208 1.04925C6.88273 1.01585 6.96916 0.998657 7.05645 0.998657C7.14373 0.998657 7.23017 1.01585 7.31081 1.04925C7.39145 1.08266 7.46473 1.13162 7.52645 1.19334C7.58817 1.25506 7.63713 1.32833 7.67053 1.40898C7.70393 1.48962 7.72113 1.57605 7.72113 1.66334C7.72113 1.75062 7.70393 1.83706 7.67053 1.9177C7.63713 1.99834 7.58817 2.07162 7.52645 2.13334L4.46645 5.19334C4.40477 5.25514 4.33151 5.30417 4.25086 5.33763C4.17021 5.37108 4.08376 5.3883 3.99645 5.3883C3.90913 5.3883 3.82268 5.37108 3.74203 5.33763C3.66138 5.30417 3.58812 5.25514 3.52645 5.19334L0.466447 2.13334C0.404645 2.07166 0.355613 1.9984 0.322158 1.91775C0.288704 1.8371 0.271484 1.75065 0.271484 1.66334C0.271484 1.57603 0.288704 1.48957 0.322158 1.40892C0.355613 1.32827 0.404645 1.25501 0.466447 1.19334C0.726447 0.940004 1.15311 0.933338 1.41311 1.19334Z" fill="#CDCDCD"/>
</svg>
