<svg width="22" height="24" viewBox="0 0 22 24" fill="none" xmlns="http://www.w3.org/2000/svg">
<path d="M11.0478 3.19985C10.8453 3.19985 10.6811 3.36403 10.6811 3.56652V4.76913L8.75431 5.41117L5.10764 6.14058C5.06341 6.14935 5.02098 6.16618 4.98267 6.19035L0.949261 8.75706C0.778278 8.86574 0.727968 9.09258 0.836645 9.26356L3.40336 13.297C3.46172 13.3881 3.55715 13.4488 3.6644 13.4629C3.77182 13.4771 3.87978 13.4432 3.95963 13.3702L4.81437 12.5955V22.6335C4.81437 22.836 4.97855 23.0002 5.18104 23.0002H16.9146C17.1171 23.0002 17.2813 22.836 17.2813 22.6335V12.6739L18.1492 13.3838C18.2278 13.4492 18.3304 13.478 18.4316 13.4629C18.5326 13.4493 18.6233 13.3938 18.6815 13.31L21.2482 9.64331C21.363 9.47966 21.3252 9.25425 21.1636 9.13663L17.1301 6.20324C17.0874 6.17209 17.0383 6.15078 16.9866 6.14058L13.3413 5.41117L11.4145 4.76913V3.8811C12.1507 3.68917 12.6173 2.96567 12.4882 2.21585C12.3591 1.46621 11.6775 0.940191 10.9196 1.00554C10.1616 1.07089 9.58004 1.70576 9.58112 2.4665C9.58112 2.669 9.7453 2.83318 9.94779 2.83318C10.1503 2.83318 10.3145 2.669 10.3145 2.4665C10.3145 2.06152 10.6428 1.73316 11.0478 1.73316C11.4528 1.73316 11.7812 2.06152 11.7812 2.4665C11.7812 2.87149 11.4528 3.19985 11.0478 3.19985ZM11.0478 5.41958L12.8556 6.02313C12.7319 6.92674 11.9598 7.60029 11.0478 7.60029C10.1358 7.60029 9.36394 6.92674 9.24005 6.02313L11.0478 5.41958ZM20.4413 9.51798L18.3079 12.5661L17.1472 11.6161C17.0374 11.5261 16.8856 11.5075 16.7574 11.5683C16.6294 11.629 16.5477 11.7583 16.5479 11.9003V22.2669H5.54771V11.7664C5.54771 11.6212 5.46213 11.4897 5.32947 11.431C5.19662 11.3723 5.04175 11.3974 4.93432 11.4951L3.7899 12.5357L1.6536 9.17924L5.32033 6.84599L8.5178 6.20646C8.73122 7.43647 9.79847 8.33453 11.0467 8.33453C12.295 8.33453 13.3623 7.43647 13.5757 6.20646L16.7628 6.8442L20.4413 9.51798Z" fill="#E0B1A3" stroke="#E0B1A3" stroke-width="0.3"/>
</svg>
