<svg width="17" height="11" viewBox="0 0 17 11" fill="none" xmlns="http://www.w3.org/2000/svg">
<path d="M16.2164 2.74902C16.1197 2.74902 16.0471 2.79967 16.0204 2.82144L11.3197 6.95199C11.2283 7.0342 11.1141 7.07765 10.9892 7.07765C10.8641 7.07765 10.7456 7.03316 10.6536 6.95052L6.09578 2.95828C6.05762 2.92212 5.96739 2.85049 5.85275 2.85049C5.824 2.85049 5.5719 2.86033 5.5719 3.20036V9.32914C5.5719 9.72828 5.8939 10.053 6.28973 10.053H15.7942C16.1893 10.053 16.4988 9.73504 16.4988 9.32914V3.10549C16.4987 2.75904 16.2453 2.74902 16.2164 2.74902Z" fill="white"/>
<path d="M6.00597 1.50965L10.5926 5.46678C10.635 5.50762 10.7762 5.62574 10.9903 5.62574C11.1948 5.62574 11.3396 5.50858 11.3666 5.48503L16.0074 1.4362L16.0132 1.43095C16.0764 1.37172 16.2077 1.24849 16.1452 1.09036C16.1107 1.00342 16.0266 0.947266 15.9308 0.947266H6.15539C6.03792 0.947266 5.9336 1.014 5.8895 1.11728C5.85967 1.18727 5.83413 1.33036 5.99885 1.50224L6.00597 1.50965Z" fill="white"/>
<path d="M3.96879 3.33203H2.66798C2.42889 3.33203 2.23438 3.52655 2.23438 3.76564V4.06916C2.23438 4.30825 2.42889 4.50276 2.66798 4.50276H3.96879C4.20788 4.50276 4.4024 4.30825 4.4024 4.06916V3.76564C4.4024 3.52655 4.20788 3.33203 3.96879 3.33203Z" fill="white"/>
<path d="M3.96881 5.23975H1.80079C1.5617 5.23975 1.36719 5.43426 1.36719 5.67335V5.97687C1.36719 6.21596 1.5617 6.41048 1.80079 6.41048H3.96881C4.2079 6.41048 4.40242 6.21596 4.40242 5.97687V5.67335C4.40242 5.43426 4.2079 5.23975 3.96881 5.23975Z" fill="white"/>
<path d="M3.96883 7.14795H0.933604C0.694515 7.14795 0.5 7.34246 0.5 7.58155V7.88508C0.5 8.12417 0.694515 8.31868 0.933604 8.31868H3.96883C4.20792 8.31868 4.40244 8.12417 4.40244 7.88508V7.58155C4.40244 7.34246 4.20792 7.14795 3.96883 7.14795Z" fill="white"/>
</svg>
