<svg width="19" height="13" viewBox="0 0 19 13" fill="none" xmlns="http://www.w3.org/2000/svg">
<path d="M17.0208 12.8333H1.97915C0.88825 12.8333 0 11.945 0 10.8541V2.14571C0 1.05481 0.88825 0.16656 1.97915 0.16656H17.0208C18.1117 0.16656 19 1.05481 19 2.14571V10.8541C19 11.945 18.1117 12.8333 17.0208 12.8333ZM18.2083 2.14575C18.2083 1.49103 17.6756 0.958251 17.0208 0.958251H1.97915C1.32443 0.958251 0.791654 1.49103 0.791654 2.14575V10.8541C0.791654 11.5088 1.32443 12.0416 1.97915 12.0416H17.0208C17.6755 12.0416 18.2083 11.5088 18.2083 10.8541V2.14575H18.2083Z" fill="#E0B1A3"/>
<path d="M18.6042 10.4583H0.395846C0.177346 10.4583 0 10.2809 0 10.0624V7.68741C0 7.46891 0.177346 7.29156 0.395846 7.29156H18.6042C18.8227 7.29156 19 7.46891 19 7.68741V10.0624C19 10.2809 18.8227 10.4583 18.6042 10.4583ZM18.2083 8.08325H0.791654V9.6666H18.2083V8.08325H18.2083Z" fill="#E0B1A3"/>
<path d="M7.52085 4.91675H2.77085C2.55235 4.91675 2.375 4.7394 2.375 4.5209C2.375 4.3024 2.55235 4.12509 2.77085 4.12509H7.52085C7.73935 4.12509 7.91669 4.30244 7.91669 4.52094C7.91669 4.73944 7.73935 4.91675 7.52085 4.91675Z" fill="#E0B1A3"/>
<path d="M7.52085 3.33325H2.77085C2.55235 3.33325 2.375 3.15591 2.375 2.93741C2.375 2.71891 2.55235 2.54156 2.77085 2.54156H7.52085C7.73935 2.54156 7.91669 2.71891 7.91669 2.93741C7.91666 3.15591 7.73935 3.33325 7.52085 3.33325Z" fill="#E0B1A3"/>
<path d="M15.4381 5.70825H14.6465C13.9918 5.70825 13.459 5.17547 13.459 4.52075V3.7291C13.459 3.07438 13.9918 2.5416 14.6465 2.5416H15.4381C16.0929 2.5416 16.6256 3.07438 16.6256 3.7291V4.52075C16.6256 5.17544 16.0929 5.70825 15.4381 5.70825ZM15.834 3.72906C15.834 3.51056 15.6566 3.33321 15.4381 3.33321H14.6465C14.428 3.33321 14.2506 3.51056 14.2506 3.72906V4.52071C14.2506 4.73921 14.428 4.91656 14.6465 4.91656H15.4381C15.6566 4.91656 15.834 4.73921 15.834 4.52071V3.72906Z" fill="#E0B1A3"/>
</svg>
