<svg width="19" height="15" viewBox="0 0 19 15" fill="none" xmlns="http://www.w3.org/2000/svg">
<path d="M18.95 2.59751V2.59766V12.4063C18.95 13.6603 17.9306 14.6797 16.6766 14.6797H2.3234C1.06941 14.6797 0.05 13.6603 0.05 12.4063V2.59373C0.05 1.33974 1.06941 0.320329 2.3234 0.320329H16.6805C17.9344 0.320329 18.9538 1.34356 18.95 2.59751ZM17.9925 12.4063V12.3563H17.9885V2.59766C17.9885 1.87421 17.4001 1.28571 16.6766 1.28571H2.3234C1.59995 1.28571 1.01145 1.87421 1.01145 2.59766V12.4063C1.01145 13.1297 1.59995 13.7182 2.3234 13.7182H16.6805C17.404 13.7182 17.9925 13.1297 17.9925 12.4063Z" fill="#E0B1A3" stroke="white" stroke-width="0.1"/>
<path d="M11.9085 7.37708L11.9488 7.3409L16.5954 3.17395C16.5955 3.17389 16.5955 3.17384 16.5956 3.17379C16.7914 2.99556 16.8091 2.69297 16.6312 2.4935C16.4529 2.29765 16.1503 2.27996 15.9509 2.45796L11.9085 7.37708ZM11.9085 7.37708L11.9478 7.41439L16.6143 11.845L16.6144 11.8451C16.8063 12.0263 16.8137 12.3326 16.6322 12.525C16.5357 12.6251 16.4112 12.6747 16.2831 12.6747C16.1652 12.6747 16.0443 12.6318 15.9521 12.5432L15.9519 12.543L11.2265 8.05345L11.193 8.02167L11.1587 8.05246L9.83382 9.23971L9.83382 9.23971L9.83333 9.24015C9.74464 9.32175 9.62713 9.36454 9.51337 9.36454C9.39917 9.36454 9.28536 9.32538 9.19276 9.2435C9.19273 9.24348 9.19271 9.24345 9.19268 9.24343L7.90339 8.09172L7.86931 8.06127L7.83593 8.09249L3.08322 12.5386C3.08319 12.5386 3.08316 12.5386 3.08314 12.5387C2.99049 12.6241 2.87302 12.6668 2.75546 12.6668C2.62794 12.6668 2.49946 12.6137 2.40257 12.5134C2.22107 12.3173 2.23199 12.0148 2.42413 11.8333C2.42414 11.8333 2.42416 11.8333 2.42417 11.8333L7.1062 7.45001L7.1461 7.41266L7.10535 7.37623L2.40351 3.17367L2.40349 3.17365C2.20384 2.99539 2.18615 2.69282 2.36424 2.49337C2.54249 2.29372 2.84504 2.27603 3.0445 2.4541C3.0445 2.4541 3.04451 2.45411 3.04452 2.45412L8.13159 7.00653L8.13146 7.00667L8.13493 7.00927C8.1619 7.0295 8.18557 7.04953 8.20893 7.07228C8.21081 7.07566 8.21265 7.07822 8.21388 7.07987C8.2176 7.08483 8.22192 7.08912 8.22358 7.09077L8.22393 7.09111L8.22387 7.09117L8.22598 7.09305L9.47613 8.20955L9.50952 8.23936L9.54284 8.20946L15.9508 2.45805L11.9085 7.37708Z" fill="#E0B1A3" stroke="white" stroke-width="0.1"/>
</svg>
