<svg width="19" height="19" viewBox="0 0 19 19" fill="none" xmlns="http://www.w3.org/2000/svg">
<path d="M14.1761 9.82245C13.0156 9.81837 11.9055 10.2963 11.111 11.1423C9.9682 10.2306 8.54844 9.73644 7.08658 9.74196H7.07506C5.31809 9.74568 3.68767 10.4286 2.47929 11.6716C1.25159 12.9261 0.580281 14.6409 0.584 16.5015C0.58472 16.6033 0.624667 16.7008 0.695325 16.7738C0.767423 16.846 0.865552 16.8862 0.96764 16.8851L11.038 16.8659C11.0611 16.8928 11.084 16.9158 11.1071 16.9427C12.4292 18.342 14.5309 18.6692 16.216 17.7384C17.9011 16.8075 18.743 14.8545 18.2625 12.9903C17.7821 11.1261 16.1013 9.82305 14.1761 9.82245ZM1.3628 16.114C1.44341 14.6063 2.02655 13.2292 3.02776 12.2049C4.09051 11.1116 5.5291 10.5092 7.07506 10.5092H7.08658C8.3769 10.5042 9.63027 10.9399 10.639 11.7445C9.7891 13.0572 9.73308 14.732 10.4933 16.0988L1.3628 16.114ZM14.1761 17.4951C12.2692 17.4951 10.7235 15.9493 10.7235 14.0424C10.7235 12.1357 12.2692 10.5897 14.1761 10.5897C16.0831 10.5897 17.6288 12.1357 17.6288 14.0424C17.6288 15.9493 16.0831 17.4951 14.1761 17.4951Z" fill="#E0B1A3"/>
<path d="M7.07842 8.82893C9.31788 8.82893 11.1334 7.01342 11.1334 4.77396C11.1334 2.53437 9.31788 0.718857 7.07842 0.718857C4.83895 0.718857 3.02344 2.53437 3.02344 4.77396C3.0256 7.01246 4.83979 8.82677 7.07842 8.82893ZM7.07842 1.48614C8.89429 1.48614 10.3661 2.9582 10.3661 4.77396C10.3661 6.58959 8.89429 8.06165 7.07842 8.06165C5.26266 8.06165 3.79072 6.58959 3.79072 4.77396C3.79288 2.95904 5.2635 1.48842 7.07842 1.48614Z" fill="#E0B1A3"/>
<path d="M15.7295 13.6587H12.6219C12.4101 13.6587 12.2383 13.8305 12.2383 14.0424C12.2383 14.2543 12.4101 14.426 12.6219 14.426H15.7295C15.9413 14.426 16.113 14.2543 16.113 14.0424C16.113 13.8305 15.9413 13.6587 15.7295 13.6587Z" fill="#E0B1A3"/>
</svg>
