<svg width="17" height="19" viewBox="0 0 17 19" fill="none" xmlns="http://www.w3.org/2000/svg">
<path d="M16.5894 4.89537C16.5887 4.88517 16.587 4.87496 16.5852 4.86441C16.5788 4.82403 16.5653 4.78511 16.5455 4.74935V4.74689C16.5455 4.74443 16.5416 4.74302 16.5398 4.74056C16.5192 4.70819 16.4933 4.67955 16.4631 4.65576C16.4557 4.64929 16.448 4.64318 16.4399 4.63746C16.4336 4.63289 16.4283 4.62726 16.4216 4.62304L8.68091 0.0489842C8.57043 -0.0163281 8.43316 -0.0163281 8.32272 0.0489842L0.582017 4.62304C0.474527 4.68611 0.408379 4.80134 0.408203 4.92598V14.0741C0.408159 14.1985 0.473867 14.3137 0.580962 14.377L8.32167 18.9511C8.33073 18.9555 8.34001 18.9594 8.34946 18.9627C8.35967 18.9676 8.36952 18.9718 8.38008 18.9757C8.45726 19.0081 8.54426 19.0081 8.62144 18.9757C8.632 18.9718 8.64185 18.9676 8.65205 18.9627C8.66151 18.9594 8.67079 18.9555 8.67985 18.9511L16.4206 14.377C16.5277 14.3137 16.5934 14.1985 16.5933 14.0741V4.92598C16.5933 4.91543 16.5901 4.90557 16.5894 4.89537ZM5.97905 2.25051L9.02537 4.05058C9.19047 4.15305 9.40739 4.1023 9.50987 3.93724C9.61234 3.77213 9.56159 3.55522 9.39653 3.45274C9.39226 3.4501 9.38795 3.44755 9.38355 3.44509L6.67114 1.84206L8.50076 0.760821L15.5497 4.92602L13.7201 6.00726L10.4395 4.06857C10.2722 3.96965 10.0563 4.02511 9.95742 4.19242C9.85851 4.35972 9.91397 4.57554 10.0813 4.67445L13.0284 6.41611L11.1987 7.49735L4.14943 3.33214L5.97905 2.25051ZM13.3679 7.03251V9.38217L11.5502 10.4564V8.10671L13.3679 7.03251ZM15.8896 13.8732L8.85261 18.0313V16.8889C8.85261 16.6946 8.69507 16.537 8.50076 16.537C8.30645 16.537 8.14891 16.6946 8.14891 16.8889V18.0313L1.1119 13.8732V5.12689L3.45769 3.7406L10.5063 7.90615L8.50076 9.09118L2.13016 5.32639C1.96285 5.22747 1.74704 5.28293 1.64812 5.45024C1.54921 5.61754 1.60467 5.83336 1.77197 5.93227L8.14891 9.70094V15.4815C8.14891 15.6758 8.30645 15.8333 8.50076 15.8333C8.69507 15.8333 8.85261 15.6758 8.85261 15.4815V9.70094L10.8465 8.5226V11.0728C10.8465 11.2671 11.004 11.4247 11.1983 11.4247C11.2613 11.4247 11.3232 11.4079 11.3775 11.3757L13.8988 9.88707C14.0059 9.82374 14.0716 9.70855 14.0716 9.58413V6.61697L15.8896 5.54242V13.8732Z" fill="#E0B1A3"/>
</svg>
