<svg width="19" height="19" viewBox="0 0 19 19" fill="none" xmlns="http://www.w3.org/2000/svg">
<path d="M0 6.50847V14.8917C0 16.1713 1.03918 17.2105 2.31878 17.2105H16.6812C17.9608 17.2105 19 16.1713 19 14.8917V6.50847C19 5.29092 18.0112 4.30215 16.7937 4.30215H13.7071L13.6335 3.98031C13.3349 2.68909 12.1988 1.78949 10.8727 1.78949H8.12347C6.80122 1.78949 5.6651 2.68909 5.36265 3.98031L5.28898 4.30215H2.20633C0.988776 4.30215 0 5.2948 0 6.50847ZM5.66898 5.25215C5.89 5.25215 6.08 5.10092 6.13041 4.88378L6.28939 4.19358C6.49102 3.33664 7.24327 2.73949 8.12347 2.73949H10.8727C11.7529 2.73949 12.5051 3.33664 12.7067 4.19358L12.8657 4.88378C12.9161 5.09705 13.1061 5.25215 13.3271 5.25215H16.7898C17.4839 5.25215 18.0461 5.81439 18.0461 6.50847V14.8917C18.0461 15.6479 17.4335 16.2605 16.6773 16.2605H2.31878C1.56265 16.2605 0.95 15.6479 0.95 14.8917V6.50847C0.95 5.81439 1.51225 5.25215 2.20633 5.25215H5.66898Z" fill="#E0B1A3"/>
<path d="M3.21404 7.91603C3.56525 7.91603 3.84996 7.63132 3.84996 7.28011C3.84996 6.9289 3.56525 6.64419 3.21404 6.64419C2.86284 6.64419 2.57812 6.9289 2.57812 7.28011C2.57812 7.63132 2.86284 7.91603 3.21404 7.91603Z" fill="#E0B1A3"/>
<path d="M9.49977 14.7715C11.6983 14.7715 13.4898 12.9801 13.4898 10.7815C13.4898 8.58296 11.6983 6.79153 9.49977 6.79153C7.30119 6.79153 5.50977 8.57909 5.50977 10.7815C5.50977 12.984 7.30119 14.7715 9.49977 14.7715ZM9.49977 7.74153C11.1749 7.74153 12.5398 9.10643 12.5398 10.7815C12.5398 12.4566 11.1749 13.8215 9.49977 13.8215C7.82466 13.8215 6.45977 12.4566 6.45977 10.7815C6.45977 9.10643 7.82466 7.74153 9.49977 7.74153Z" fill="#E0B1A3"/>
</svg>
