<svg width="19" height="19" viewBox="0 0 19 19" fill="none" xmlns="http://www.w3.org/2000/svg">
<path d="M9.43211 10.2377C9.45179 10.2377 9.47146 10.2377 9.49507 10.2377C9.50294 10.2377 9.51081 10.2377 9.51867 10.2377C9.53048 10.2377 9.54622 10.2377 9.55802 10.2377C10.7108 10.2181 11.6433 9.8128 12.3319 9.03769C13.8467 7.33009 13.5949 4.40278 13.5673 4.12342C13.469 2.0263 12.4775 1.02299 11.6591 0.554773C11.0492 0.204597 10.3371 0.0157382 9.54228 0H9.51474C9.51081 0 9.50294 0 9.499 0H9.47539C9.03866 0 8.18092 0.0708221 7.3586 0.539035C6.53234 1.00725 5.52509 2.01056 5.42673 4.12342C5.39919 4.40278 5.14738 7.33009 6.66218 9.03769C7.3468 9.8128 8.27929 10.2181 9.43211 10.2377ZM6.47726 4.22179C6.47726 4.20998 6.48119 4.19818 6.48119 4.19031C6.61103 1.36923 8.61373 1.06627 9.47146 1.06627H9.4872C9.49507 1.06627 9.50687 1.06627 9.51867 1.06627C10.581 1.08987 12.387 1.52268 12.5089 4.19031C12.5089 4.20211 12.5089 4.21392 12.5129 4.22179C12.5168 4.24933 12.7922 6.92483 11.541 8.3334C11.0453 8.89211 10.3843 9.16753 9.51474 9.1754C9.50687 9.1754 9.50294 9.1754 9.49507 9.1754C9.4872 9.1754 9.48326 9.1754 9.47539 9.1754C8.60979 9.16753 7.94485 8.89211 7.45303 8.3334C6.20577 6.9327 6.47332 4.24539 6.47726 4.22179Z" fill="#E0B1A3"/>
<path d="M17.5802 15.093C17.5802 15.089 17.5802 15.0851 17.5802 15.0812C17.5802 15.0497 17.5763 15.0182 17.5763 14.9828C17.5527 14.2038 17.5015 12.3821 15.7939 11.7998C15.7821 11.7958 15.7664 11.7919 15.7546 11.7879C13.9801 11.3355 12.5047 10.3125 12.4889 10.3007C12.2489 10.1315 11.9184 10.1905 11.7492 10.4305C11.58 10.6705 11.6391 11.001 11.8791 11.1702C11.9459 11.2174 13.5119 12.3073 15.4713 12.8109C16.3881 13.1375 16.4904 14.1172 16.5179 15.0143C16.5179 15.0497 16.5179 15.0812 16.5218 15.1127C16.5258 15.4668 16.5022 16.0137 16.4392 16.3284C15.8018 16.6904 13.3034 17.9416 9.50258 17.9416C5.71753 17.9416 3.20335 16.6865 2.56202 16.3245C2.49906 16.0097 2.47152 15.4628 2.47939 15.1087C2.47939 15.0772 2.48332 15.0458 2.48332 15.0104C2.51087 14.1133 2.61317 13.1336 3.52992 12.807C5.48933 12.3034 7.05529 11.2096 7.12217 11.1663C7.36218 10.9971 7.4212 10.6666 7.25201 10.4266C7.08283 10.1866 6.75232 10.1276 6.51232 10.2967C6.49658 10.3086 5.02899 11.3315 3.24663 11.784C3.23089 11.7879 3.21909 11.7919 3.20728 11.7958C1.49968 12.3821 1.44853 14.2038 1.42493 14.9789C1.42493 15.0143 1.42493 15.0458 1.42099 15.0772C1.42099 15.0812 1.42099 15.0851 1.42099 15.089C1.41706 15.2936 1.41312 16.3442 1.62166 16.8714C1.661 16.9737 1.73182 17.0603 1.82625 17.1193C1.94429 17.198 4.77324 19 9.50652 19C14.2398 19 17.0687 17.194 17.1868 17.1193C17.2773 17.0603 17.352 16.9737 17.3914 16.8714C17.5881 16.3481 17.5842 15.2976 17.5802 15.093Z" fill="#E0B1A3"/>
</svg>
