<svg width="24" height="23" viewBox="0 0 24 23" fill="none" xmlns="http://www.w3.org/2000/svg">
<path d="M11.541 14.375C13.1288 14.375 14.416 13.0878 14.416 11.5C14.416 9.91218 13.1288 8.625 11.541 8.625C9.9532 8.625 8.66602 9.91218 8.66602 11.5C8.66602 13.0878 9.9532 14.375 11.541 14.375Z" stroke="#E0B1A3" stroke-width="1.3" stroke-miterlimit="10" stroke-linecap="round" stroke-linejoin="round"/>
<path d="M19.9924 7.45056L19.2736 6.20569C18.8769 5.51784 17.9979 5.28281 17.31 5.67956L16.932 5.89806C15.4945 6.7275 13.6976 5.69034 13.6976 4.03075V3.59375C13.6976 2.79953 13.0543 2.15625 12.2601 2.15625H10.8226C10.0284 2.15625 9.38509 2.79953 9.38509 3.59375V4.03075C9.38509 5.69034 7.58821 6.72822 6.15071 5.89806L5.77265 5.67956C5.0848 5.28281 4.20577 5.51784 3.80902 6.20569L3.09027 7.45056C2.69352 8.13841 2.92855 9.01744 3.6164 9.41419L3.99446 9.63269C5.43196 10.4628 5.43196 12.5372 3.99446 13.3673L3.6164 13.5858C2.92855 13.9826 2.69352 14.8616 3.09027 15.5494L3.80902 16.7943C4.20577 17.4822 5.0848 17.7172 5.77265 17.3204L6.15071 17.1019C7.58821 16.2718 9.38509 17.3097 9.38509 18.9693V19.4062C9.38509 20.2005 10.0284 20.8438 10.8226 20.8438H12.2601C13.0543 20.8438 13.6976 20.2005 13.6976 19.4062V18.9693C13.6976 17.3097 15.4945 16.2718 16.932 17.1019L17.31 17.3204C17.9979 17.7172 18.8769 17.4822 19.2736 16.7943L19.9924 15.5494C20.3891 14.8616 20.1541 13.9826 19.4663 13.5858L19.0882 13.3673C17.6507 12.5372 17.6507 10.4628 19.0882 9.63269L19.4663 9.41419C20.1541 9.01744 20.3899 8.13841 19.9924 7.45056Z" stroke="#E0B1A3" stroke-width="1.3" stroke-miterlimit="10" stroke-linecap="round" stroke-linejoin="round"/>
</svg>
