<svg width="21" height="25" viewBox="0 0 21 25" fill="none" xmlns="http://www.w3.org/2000/svg">
<path d="M13.3994 7.57705C13.6526 7.57705 13.8582 7.37198 13.8582 7.11818C13.8582 6.86445 13.6526 6.65932 13.3994 6.65932H7.099C6.84572 6.65932 6.64014 6.86439 6.64014 7.11818C6.64014 7.37192 6.84572 7.57705 7.099 7.57705H13.3994Z" fill="white" stroke="white" stroke-width="0.4"/>
<path d="M19.7197 6.65937H16.594C16.3407 6.65937 16.1351 6.86445 16.1351 7.11824C16.1351 7.37198 16.3407 7.57711 16.594 7.57711H19.2608V23.0824H1.73848V7.57705H4.25246C4.50574 7.57705 4.71133 7.37198 4.71133 7.11818C4.71133 6.86445 4.50574 6.65932 4.25246 6.65932H1.27967C1.02639 6.65932 0.820801 6.86439 0.820801 7.11818V23.5411C0.820801 23.7949 1.02639 24 1.27967 24H19.7197C19.973 24 20.1785 23.7949 20.1785 23.5411V7.11818C20.1785 6.86445 19.9734 6.65937 19.7197 6.65937Z" fill="white" stroke="white" stroke-width="0.4"/>
<path d="M14.9514 8.609C15.2046 8.609 15.4102 8.40392 15.4102 8.15013V4.80427C15.4102 2.70688 13.1458 1 10.3515 1C7.56811 1 5.3042 2.70688 5.3042 4.80427V8.15018C5.3042 8.40392 5.50978 8.60905 5.76307 8.60905C6.01635 8.60905 6.22193 8.40398 6.22193 8.15018V4.80427C6.22193 3.21254 8.07473 1.91768 10.363 1.91768C12.6398 1.91768 14.4926 3.21254 14.4926 4.80427V8.15018C14.4925 8.40392 14.6976 8.609 14.9514 8.609Z" fill="white" stroke="white" stroke-width="0.4"/>
<path d="M4.58203 9.32982C4.58203 9.98045 5.11202 10.51 5.7631 10.51C6.41417 10.51 6.94416 9.9805 6.94416 9.32982C6.94416 9.07609 6.73858 8.87096 6.4853 8.87096C6.23201 8.87096 6.02643 9.07603 6.02643 9.32982C6.02643 9.47439 5.90851 9.59231 5.76304 9.59231C5.61803 9.59231 5.49965 9.47439 5.49965 9.32982C5.49965 9.07609 5.29407 8.87096 5.04079 8.87096C4.7875 8.87096 4.58203 9.07609 4.58203 9.32982Z" fill="white" stroke="white" stroke-width="0.4"/>
<path d="M14.9512 10.51C15.6023 10.51 16.1323 9.9805 16.1323 9.32982C16.1323 9.07609 15.9267 8.87096 15.6734 8.87096C15.4201 8.87096 15.2145 9.07603 15.2145 9.32982C15.2145 9.47439 15.0966 9.59231 14.9511 9.59231C14.8057 9.59231 14.6878 9.47439 14.6878 9.32982C14.6878 9.07609 14.4822 8.87096 14.2289 8.87096C13.9756 8.87096 13.77 9.07603 13.77 9.32982C13.7701 9.98045 14.3001 10.51 14.9512 10.51Z" fill="white" stroke="white" stroke-width="0.4"/>
</svg>
