<svg width="17" height="17" viewBox="0 0 17 17" fill="none" xmlns="http://www.w3.org/2000/svg">
<path d="M16.6308 7.73748C16.9654 7.41137 17.0835 6.93275 16.9392 6.48784C16.7945 6.04292 16.4177 5.72532 15.9547 5.65792L11.8385 5.05982C11.6632 5.03429 11.5117 4.92434 11.4334 4.76537L9.59317 1.03585C9.38655 0.616812 8.96716 0.3564 8.49978 0.3564C8.03274 0.3564 7.61336 0.616812 7.40673 1.03585L5.56614 4.76571C5.48785 4.92468 5.33603 5.03463 5.16072 5.06016L1.0445 5.65826C0.58188 5.72532 0.204707 6.04326 0.0600338 6.48818C-0.0842994 6.93309 0.0338223 7.41171 0.368444 7.73782L3.34668 10.6408C3.47365 10.7647 3.53186 10.9431 3.5019 11.1174L2.7993 15.2166C2.73701 15.5774 2.83164 15.9284 3.06516 16.2051C3.42804 16.6364 4.06154 16.7678 4.56806 16.5016L8.24924 14.5661C8.4031 14.4854 8.5968 14.4861 8.75032 14.5661L12.4318 16.5016C12.6109 16.5959 12.8019 16.6436 12.999 16.6436C13.3588 16.6436 13.6999 16.4836 13.9344 16.2051C14.1683 15.9284 14.2626 15.5767 14.2003 15.2166L13.4973 11.1174C13.4674 10.9428 13.5256 10.7647 13.6525 10.6408L16.6308 7.73748Z" fill="#FFD645"/>
</svg>
