<svg width="16" height="10" viewBox="0 0 16 10" fill="none" xmlns="http://www.w3.org/2000/svg">
<path d="M8 0C4.511 0 1.486 2.032 0 5C1.486 7.968 4.511 10 8 10C11.489 10 14.514 7.968 16 5C14.514 2.032 11.489 0 8 0ZM11.945 2.652C12.885 3.252 13.682 4.055 14.28 5C13.6839 5.9449 12.8866 6.74663 11.945 7.348C10.7671 8.10065 9.39837 8.50057 8.0005 8.50057C6.60263 8.50057 5.23395 8.10065 4.056 7.348C3.11486 6.74609 2.31768 5.94447 1.721 5C2.35639 3.99314 3.21962 3.14978 4.241 2.538C4.02119 3.14225 3.95028 3.79058 4.03429 4.42805C4.11829 5.06553 4.35474 5.67336 4.72358 6.20003C5.09243 6.7267 5.58281 7.1567 6.15315 7.45357C6.7235 7.75044 7.35701 7.90545 8 7.90545C8.64299 7.90545 9.2765 7.75044 9.84685 7.45357C10.4172 7.1567 10.9076 6.7267 11.2764 6.20003C11.6453 5.67336 11.8817 5.06553 11.9657 4.42805C12.0497 3.79058 11.9788 3.14225 11.759 2.538C11.821 2.575 11.883 2.613 11.944 2.652H11.945ZM8 3.5C7.99987 3.89796 7.84165 4.27956 7.56016 4.56087C7.27867 4.84217 6.89696 5.00013 6.499 5C6.10104 4.99987 5.71944 4.84165 5.43813 4.56016C5.15683 4.27867 4.99887 3.89696 4.999 3.499C4.99913 3.10104 5.15735 2.71944 5.43884 2.43813C5.72033 2.15683 6.10204 1.99887 6.5 1.999C6.89796 1.99913 7.27956 2.15735 7.56087 2.43884C7.84217 2.72033 8.00013 3.10204 8 3.5Z" fill="#D1D1D1"/>
</svg>
